<svg version="1.1" viewBox="0.0 0.0 720.0 540.0" fill="none" stroke="none" stroke-linecap="square" stroke-miterlimit="10" xmlns:xlink="http://www.w3.org/1999/xlink" xmlns="http://www.w3.org/2000/svg"><clipPath id="p.0"><path d="m0 0l720.0 0l0 540.0l-720.0 0l0 -540.0z" clip-rule="nonzero"/></clipPath><g clip-path="url(#p.0)"><path fill="#000000" fill-opacity="0.0" d="m0 0l720.0 0l0 540.0l-720.0 0z" fill-rule="evenodd"/><defs><radialGradient id="p.1" gradientUnits="userSpaceOnUse" gradientTransform="matrix(17.292714527273752 0.0 0.0 17.292714527273752 0.0 0.0)" spreadMethod="pad" cx="20.837139715289368" cy="15.695624135729709" fx="20.837139715289368" fy="15.695624135729709" r="17.292715072631836"><stop offset="0.0" stop-color="#fff6db"/><stop offset="1.0" stop-color="#fad25c"/></radialGradient></defs><path fill="url(#p.1)" d="m150.0 271.41995l0 0c0 -117.39748 94.16826 -212.56693 210.33072 -212.56693l0 0c55.783173 0 109.281586 22.395378 148.72626 62.259407c39.44467 39.86403 61.60446 93.93126 61.60446 150.30753l0 0c0 117.39746 -94.168274 212.56693 -210.33072 212.56693l0 0c-116.16246 0 -210.33072 -95.169464 -210.33072 -212.56693z" fill-rule="evenodd"/><defs><radialGradient id="p.2" gradientUnits="userSpaceOnUse" gradientTransform="matrix(11.88365869225644 0.0 0.0 11.88365869225644 0.0 0.0)" spreadMethod="pad" cx="30.188569485064903" cy="16.99042670572875" fx="30.188569485064903" fy="16.99042670572875" r="11.883658409118652"><stop offset="0.0" stop-color="#f5d0d0"/><stop offset="1.0" stop-color="#d96868"/></radialGradient></defs><path fill="url(#p.2)" d="m358.75067 150.3307c41.48947 -117.43832 203.29852 0 0 150.99214c-203.29857 -150.99214 -41.489502 -268.43045 0 -150.99214z" fill-rule="evenodd"/><path stroke="#000000" stroke-width="8.0" stroke-linejoin="round" stroke-linecap="butt" d="m358.75067 150.3307c41.48947 -117.43832 203.29852 0 0 150.99214c-203.29857 -150.99214 -41.489502 -268.43045 0 -150.99214z" fill-rule="evenodd"/><path fill="#000000" fill-opacity="0.0" d="m358.75067 150.3307l0.25195312 151.68504" fill-rule="evenodd"/><path stroke="#000000" stroke-width="8.0" stroke-linejoin="round" stroke-linecap="butt" d="m358.75067 150.3307l0.25195312 151.68504" fill-rule="evenodd"/><path fill="#000000" fill-opacity="0.0" d="m358.999 209.99998l46.26773 46.267715l-47.496063 47.496063l-46.26773 -46.2677z" fill-rule="evenodd"/><path stroke="#000000" stroke-width="8.0" stroke-linejoin="round" stroke-linecap="butt" d="m358.999 209.99998l46.26773 46.267715l-47.496063 47.496063l-46.26773 -46.2677z" fill-rule="evenodd"/><defs><linearGradient id="p.3" gradientUnits="userSpaceOnUse" gradientTransform="matrix(11.995133844734914 3.413486664076052 -3.413486664076052 11.995133844734914 0.0 0.0)" spreadMethod="pad" x1="19.797838037377492" y1="11.054911306573656" x2="19.797793644369346" y2="23.05004515122642"><stop offset="0.0" stop-color="#3177ee"/><stop offset="1.0" stop-color="#113d8a"/></linearGradient></defs><path fill="url(#p.3)" d="m179.26927 272.1266l0 0c11.315308 -39.72972 40.779907 -66.16255 65.81102 -59.039383l0 0c12.020355 3.4206696 21.389832 14.280289 26.047241 30.18988c4.657379 15.909592 4.221222 35.565903 -1.2125854 54.64476l0 0c-11.315338 39.729736 -40.779922 66.16254 -65.811035 59.039368l0 0c-25.031113 -7.123169 -36.149963 -45.10492 -24.83464 -84.834625z" fill-rule="evenodd"/><path stroke="#000000" stroke-width="4.0" stroke-linejoin="round" stroke-linecap="butt" d="m179.26927 272.1266l0 0c11.315308 -39.72972 40.779907 -66.16255 65.81102 -59.039383l0 0c12.020355 3.4206696 21.389832 14.280289 26.047241 30.18988c4.657379 15.909592 4.221222 35.565903 -1.2125854 54.64476l0 0c-11.315338 39.729736 -40.779922 66.16254 -65.811035 59.039368l0 0c-25.031113 -7.123169 -36.149963 -45.10492 -24.83464 -84.834625z" fill-rule="evenodd"/><defs><linearGradient id="p.4" gradientUnits="userSpaceOnUse" gradientTransform="matrix(11.417667398636336 2.899017113135517 -2.899017113135517 11.417667398636336 0.0 0.0)" spreadMethod="pad" x1="28.71433568070234" y1="18.624041424943663" x2="28.714295644846242" y2="30.041708823509808"><stop offset="0.0" stop-color="#3177ee"/><stop offset="1.0" stop-color="#113d8a"/></linearGradient></defs><path fill="url(#p.4)" d="m257.30927 361.06818l0 0c9.140961 -35.998505 36.405792 -60.139893 60.897644 -53.921234l0 0c11.761414 2.9862976 21.297333 12.71756 26.509949 27.053009c5.2126465 14.335449 5.674988 32.10083 1.2853394 49.38794l0 0c-9.140961 35.998505 -36.40576 60.139893 -60.897644 53.921234l0 0c-24.491882 -6.218628 -36.93625 -40.442413 -27.795288 -76.44095z" fill-rule="evenodd"/><path stroke="#000000" stroke-width="4.0" stroke-linejoin="round" stroke-linecap="butt" d="m257.30927 361.06818l0 0c9.140961 -35.998505 36.405792 -60.139893 60.897644 -53.921234l0 0c11.761414 2.9862976 21.297333 12.71756 26.509949 27.053009c5.2126465 14.335449 5.674988 32.10083 1.2853394 49.38794l0 0c-9.140961 35.998505 -36.40576 60.139893 -60.897644 53.921234l0 0c-24.491882 -6.218628 -36.93625 -40.442413 -27.795288 -76.44095z" fill-rule="evenodd"/><defs><linearGradient id="p.5" gradientUnits="userSpaceOnUse" gradientTransform="matrix(11.589956823813049 -1.258619294348008 1.258619294348008 11.589956823813049 0.0 0.0)" spreadMethod="pad" x1="27.53300227017091" y1="29.82212752108943" x2="27.532960056935643" y2="41.41208434482561"><stop offset="0.0" stop-color="#3177ee"/><stop offset="1.0" stop-color="#113d8a"/></linearGradient></defs><path fill="url(#p.5)" d="m363.9347 378.14734l0 0c-4.0181885 -37.09439 12.656555 -69.329895 37.24411 -72.0l0 0c11.807343 -1.2822266 23.897644 4.564392 33.611145 16.253662c9.713501 11.68927 16.254517 28.263702 18.184113 46.077057l0 0c4.018219 37.09439 -12.656525 69.329895 -37.24408 72.0l0 0c-24.587555 2.670105 -47.77707 -25.236328 -51.795288 -62.33072z" fill-rule="evenodd"/><path stroke="#000000" stroke-width="4.0" stroke-linejoin="round" stroke-linecap="butt" d="m363.9347 378.14734l0 0c-4.0181885 -37.09439 12.656555 -69.329895 37.24411 -72.0l0 0c11.807343 -1.2822266 23.897644 4.564392 33.611145 16.253662c9.713501 11.68927 16.254517 28.263702 18.184113 46.077057l0 0c4.018219 37.09439 -12.656525 69.329895 -37.24408 72.0l0 0c-24.587555 2.670105 -47.77707 -25.236328 -51.795288 -62.33072z" fill-rule="evenodd"/><defs><linearGradient id="p.6" gradientUnits="userSpaceOnUse" gradientTransform="matrix(11.441491358138988 -4.201203807996908 4.201203807996908 11.441491358138988 0.0 0.0)" spreadMethod="pad" x1="25.46055360581769" y1="29.986956121391504" x2="25.460513229332427" y2="41.428447479459244"><stop offset="0.0" stop-color="#3177ee"/><stop offset="1.0" stop-color="#113d8a"/></linearGradient></defs><path fill="url(#p.6)" d="m441.3221 301.58456l0 0c-13.280945 -36.146393 -3.8471985 -72.86607 21.070862 -82.01575l0 0c11.966064 -4.393814 25.975586 -1.712204 38.946594 7.4549255c12.971039 9.167145 23.841034 24.068863 30.21878 41.42697l0 0c13.280884 36.146393 3.847168 72.86609 -21.070892 82.01575l0 0c-24.91803 9.149658 -55.88443 -12.735504 -69.165344 -48.881897z" fill-rule="evenodd"/><path stroke="#000000" stroke-width="4.0" stroke-linejoin="round" stroke-linecap="butt" d="m441.3221 301.58456l0 0c-13.280945 -36.146393 -3.8471985 -72.86607 21.070862 -82.01575l0 0c11.966064 -4.393814 25.975586 -1.712204 38.946594 7.4549255c12.971039 9.167145 23.841034 24.068863 30.21878 41.42697l0 0c13.280884 36.146393 3.847168 72.86609 -21.070892 82.01575l0 0c-24.91803 9.149658 -55.88443 -12.735504 -69.165344 -48.881897z" fill-rule="evenodd"/><defs><radialGradient id="p.7" gradientUnits="userSpaceOnUse" gradientTransform="matrix(19.46815932136895 0.0 0.0 19.46815932136895 0.0 0.0)" spreadMethod="pad" cx="18.491732785690274" cy="13.868799589267708" fx="18.491732785690274" fy="13.868799589267708" r="19.468158721923828"><stop offset="0.0" stop-color="#dcecd5"/><stop offset="1.0" stop-color="#93bc81"/></radialGradient></defs><path fill="url(#p.7)" d="m92.0 270.0l0 0c0 -148.01231 119.987686 -268.0 268.0 -268.0l0 0c71.07803 0 139.24487 28.235634 189.50464 78.495384c50.259705 50.259743 78.49536 118.4266 78.49536 189.50461l0 0c0 148.0123 -119.9877 268.0 -268.0 268.0l0 0c-148.01231 0 -268.0 -119.9877 -268.0 -268.0zm56.333603 0l0 0c0 116.900116 94.766266 211.66641 211.6664 211.66641c116.900116 0 211.66638 -94.7663 211.66638 -211.66641l0 0c0 -116.90013 -94.766266 -211.6664 -211.66638 -211.6664l0 0c-116.90013 0 -211.6664 94.766266 -211.6664 211.6664z" fill-rule="evenodd"/><path stroke="#000000" stroke-width="3.0" stroke-linejoin="round" stroke-linecap="butt" d="m92.0 270.0l0 0c0 -148.01231 119.987686 -268.0 268.0 -268.0l0 0c71.07803 0 139.24487 28.235634 189.50464 78.495384c50.259705 50.259743 78.49536 118.4266 78.49536 189.50461l0 0c0 148.0123 -119.9877 268.0 -268.0 268.0l0 0c-148.01231 0 -268.0 -119.9877 -268.0 -268.0zm56.333603 0l0 0c0 116.900116 94.766266 211.66641 211.6664 211.66641c116.900116 0 211.66638 -94.7663 211.66638 -211.66641l0 0c0 -116.90013 -94.766266 -211.6664 -211.66638 -211.6664l0 0c-116.90013 0 -211.6664 94.766266 -211.6664 211.6664z" fill-rule="evenodd"/><path fill="#000000" fill-opacity="0.0" d="m149.10565 94.7636l27.559052 -27.590553l31.811035 31.811028l-27.559067 27.590546z" fill-rule="evenodd"/><path fill="#000000" d="m171.80101 100.02436l7.5308075 -7.539406q1.9655151 -1.9677658 3.6882477 -3.206047q1.7227173 -1.2382812 3.257843 -1.89077q1.5351257 -0.6524887 2.8826294 -0.74128723q1.3475037 -0.11090088 2.5184174 0.19821167q1.1708832 0.2870102 2.1983032 0.96086884q1.0163574 0.6628113 1.9113007 1.5577469q0.76234436 0.76234436 1.3480225 1.7015762q0.58566284 0.9171219 0.8731537 2.0222092q0.27645874 1.0940399 0.19949341 2.3650055q-0.07695007 1.2709732 -0.6288147 2.7078476q-0.54081726 1.425827 -1.6338501 3.028633q-1.1040802 1.5917587 -2.848755 3.3384247q-0.2539673 0.25426483 -0.6294098 0.63012695q-0.3754425 0.35375977 -0.77297974 0.6854248l-0.90548706 0.79598236l6.7285614 6.7285614l-6.183655 6.1907196l-19.533829 -19.533829zm15.994766 3.6203918l1.4134064 -1.4150238q0.9937897 -0.9949341 1.4243011 -1.9123459q0.44154358 -0.9284668 0.4413147 -1.7462921q-2.4414062E-4 -0.8399353 -0.38703918 -1.5802841q-0.38679504 -0.74035645 -1.0386658 -1.3922195q-1.038559 -1.0385666 -1.9775391 -1.4472046q-0.92793274 -0.41970062 -1.8115387 -0.35314178q-0.8836212 0.06656647 -1.7008362 0.55307007q-0.81721497 0.48651123 -1.5791321 1.2492905l-1.4134064 1.4150238l6.629135 6.6291275z" fill-rule="nonzero"/><path fill="#000000" fill-opacity="0.0" d="m191.06992 54.984783l31.968506 -20.692913l24.53543 37.76378l-31.96849 20.692917z" fill-rule="evenodd"/><path fill="#000000" d="m247.15492 75.14491l-8.748962 5.663124l-4.289505 -4.2218094l-5.7451935 3.718811l2.164566 5.597267l-5.9157257 3.829193l-9.1479645 -26.985832l10.257416 -6.6395264l21.42537 19.038773zm-25.341125 -11.385658l4.7584076 12.256775l4.695862 -3.0395813l-8.955826 -9.539829l-0.4984436 0.32263565z" fill-rule="nonzero"/><path fill="#000000" fill-opacity="0.0" d="m92.0 232.99213l64.0 0l0 74.01575l-64.0 0z" fill-rule="evenodd"/><path fill="#222222" d="m103.5 266.4146l16.765625 0l5.203125 -16.562485l5.203125 16.562485l16.765625 0l-13.6875 9.453125l5.015625 15.984375l-13.296875 -9.828125l-13.296875 9.828125l5.015625 -15.984375l-13.6875 -9.453125z" fill-rule="nonzero"/><path fill="#000000" fill-opacity="0.0" d="m567.6142 231.54199l53.007874 0l0 73.165344l-53.007874 0z" fill-rule="evenodd"/><path fill="#222222" d="m579.1142 264.96448l16.765625 0l5.203125 -16.562485l5.203125 16.562485l16.765625 0l-13.6875 9.453125l5.015625 15.984375l-13.296875 -9.828125l-13.296875 9.828125l5.015625 -15.984375l-13.6875 -9.453125z" fill-rule="nonzero"/><path fill="#000000" fill-opacity="0.0" d="m422.52484 4.715793l51.905518 10.708662l-11.118103 53.85827l-51.905518 -10.70866z" fill-rule="evenodd"/><path fill="#000000" d="m430.6008 26.57341l10.436432 2.1531525q2.7239075 0.56196594 4.704956 1.3216705q1.9810791 0.7597046 3.36969 1.6843529q1.3886108 0.9246483 2.2032166 2.0020943q0.83309937 1.0653038 1.2182617 2.213688q0.4036255 1.1362381 0.4052124 2.365036q0.004760742 1.2134895 -0.25109863 2.45298q-0.21795654 1.0558624 -0.6807556 2.0612106q-0.44436646 0.9932022 -1.2095642 1.8404388q-0.76205444 0.83193207 -1.8661194 1.4656754q-1.1040344 0.6337433 -2.6076355 0.9616966q-1.4883118 0.3311119 -3.427887 0.29789734q-1.9364319 -0.04851532 -4.354248 -0.5473404q-0.35195923 -0.07261276 -0.8722534 -0.17995453q-0.50183105 -0.11948776 -0.997345 -0.26958084l-1.1625366 -0.3196106l-1.9237671 9.319134l-8.569519 -1.7679863l5.584961 -27.054554zm5.7644043 15.356472l1.9587402 0.40410995q1.3772583 0.28414154 2.3802185 0.14007187q1.0182495 -0.1409111 1.7013245 -0.59028244q0.7015686 -0.46152115 1.1075134 -1.1914253q0.40594482 -0.729908 0.5923157 -1.6327477q0.29693604 -1.4384193 0.12237549 -2.4476318q-0.15927124 -1.0060577 -0.70040894 -1.7080002q-0.5411377 -0.70194244 -1.396637 -1.1177483q-0.85546875 -0.41580582 -1.9113464 -0.6336479l-1.9587402 -0.40410995l-1.8953552 9.181412z" fill-rule="nonzero"/><path fill="#000000" fill-opacity="0.0" d="m509.32117 38.32164l41.57483 32.88189l-45.385834 57.354332l-41.57483 -32.88189z" fill-rule="evenodd"/><path fill="#000000" d="m512.9498 81.70359l-11.914124 10.498375l-9.05661 -7.162964l13.220673 -24.764572l7.7453003 6.1258316l-11.57959 19.090042l16.42041 -15.261391l6.5320435 5.1662445l-11.133301 19.482872l16.0354 -15.605759l5.392273 4.264824l-20.573792 18.948906l-8.333557 -6.5910873l7.244873 -14.191322z" fill-rule="nonzero"/><path fill="#000000" fill-opacity="0.0" d="m472.43143 16.916996l39.77951 21.039371l-25.669281 48.661415l-39.77951 -21.039368z" fill-rule="evenodd"/><path fill="#000000" d="m482.18045 75.694664l-9.212677 -4.8725815l1.594696 -5.8026733l-6.049713 -3.199688l-3.8322754 4.6192284l-6.229248 -3.2946548l19.104492 -21.146515l10.801086 5.712681l-6.176361 27.984203zm-2.416809 -27.668274l-8.3828125 10.131229l4.9447327 2.6152687l3.9629211 -12.468903l-0.5248413 -0.27759552z" fill-rule="nonzero"/><path fill="#000000" fill-opacity="0.0" d="m554.2357 70.99445l24.818909 30.078743l-42.393738 35.02362l-24.818878 -30.078743z" fill-rule="evenodd"/><path fill="#000000" d="m553.8474 112.86368q-0.24212646 -0.83358765 -0.6512451 -1.8940582q-0.387146 -1.0583725 -0.90618896 -2.1293488q-0.50701904 -1.080925 -1.1281738 -2.1283417q-0.61120605 -1.0353699 -1.2775269 -1.8428497q-1.1734009 -1.4221268 -2.191162 -1.9190063q-1.0177002 -0.49687195 -1.8729248 0.20970154q-0.4095459 0.33835602 -0.49401855 0.8742981q-0.07244873 0.5259857 0.080200195 1.2511063q0.16259766 0.737175 0.4963379 1.6572189q0.35577393 0.9221573 0.79473877 2.0187836l0.555603 1.3853226q0.72198486 1.7342834 1.0366821 3.3186493q0.324646 1.5964127 0.14404297 3.0224457q-0.18054199 1.4260406 -0.8904419 2.7016068q-0.69781494 1.2656174 -2.0228882 2.3603058q-1.5418701 1.2738266 -3.2264404 1.8345795q-1.6846313 0.56075287 -3.4432983 0.27066803q-1.758606 -0.29008484 -3.5950317 -1.509079q-1.826416 -1.2069321 -3.7059326 -3.4847488q-1.6607056 -2.0126724 -2.9741821 -4.2919464q-1.3156128 -2.2572632 -2.165039 -4.9807053l4.9628906 -4.1001205q0.61328125 2.756401 1.6550903 4.9764175q1.053772 2.2100601 2.515625 3.9816895q1.2131958 1.4703369 2.2299194 1.745079q1.0267334 0.28678894 1.8578491 -0.39987946q0.49389648 -0.40802002 0.6343994 -0.94971466q0.16247559 -0.5395889 0.006225586 -1.3427734q-0.15631104 -0.8031769 -0.59106445 -1.9438171q-0.41278076 -1.1385345 -1.0714722 -2.7224426q-0.6586914 -1.5839081 -0.9874878 -3.1363144q-0.30688477 -1.5503082 -0.15820312 -2.9905014q0.16064453 -1.4501419 0.8648071 -2.7817612q0.7041626 -1.3316269 2.0773926 -2.4661255q1.4093628 -1.1643524 2.9855347 -1.6355438q1.5981445 -0.46909332 3.2745972 -0.13134766q1.6884766 0.32779694 3.4390259 1.5163803q1.7724609 1.1906891 3.5625 3.3600311q0.7060547 0.85569 1.4293213 1.8795547q0.7232666 1.0238647 1.3920898 2.1535492q0.69073486 1.1317825 1.25531 2.307022q0.5645752 1.1752396 0.9532471 2.3336792l-4.850708 3.6223373z" fill-rule="nonzero"/><path fill="#000000" fill-opacity="0.0" d="m152.16725 308.21l13.763779 50.015747l-48.251976 13.259857l-13.763779 -50.015747z" fill-rule="evenodd"/><path fill="#000000" d="m138.26376 324.1191l2.263565 8.225464q0.58869934 2.1392212 0.76109314 3.825714q0.19160461 1.6973877 0.036987305 3.0200195q-0.15461731 1.3226318 -0.61701965 2.292328q-0.45828247 0.9847412 -1.1433411 1.675354q-0.66586304 0.70150757 -1.5310211 1.1499023q-0.8651581 0.4484253 -1.8444824 0.7175293q-0.82865906 0.22772217 -1.7112122 0.25961304q-0.8784027 0.046936035 -1.7560883 -0.19799805q-0.8735504 -0.22988892 -1.7245483 -0.79003906q-0.8509979 -0.56015015 -1.6316223 -1.5123291q-0.776474 -0.9371338 -1.453949 -2.3389587q-0.6733322 -1.3867798 -1.1998367 -3.3000488q-0.07462311 -0.27114868 -0.18655396 -0.6779175q-0.09687042 -0.41088867 -0.17453003 -0.81085205l-0.19676208 -0.95059204l-7.337372 2.016327l-1.8572769 -6.749115l21.30397 -5.8544006zm-8.839905 9.688721l0.4270172 1.5516968q0.29849243 1.0846863 0.75775146 1.7524719q0.47433472 0.6636658 1.050705 0.99142456q0.57637024 0.32772827 1.2479858 0.3538208q0.6716156 0.02609253 1.3797455 -0.16851807q1.1299896 -0.31051636 1.7894745 -0.7996216q0.65948486 -0.48910522 0.9513092 -1.1364441q0.31103516 -0.6364441 0.29699707 -1.394165q-0.014053345 -0.75775146 -0.24206543 -1.5863037l-0.4270172 -1.5516968l-7.231903 1.9873352z" fill-rule="nonzero"/><path fill="#000000" fill-opacity="0.0" d="m159.05219 343.4778l17.984253 34.614166l-44.409454 23.08664l-17.984253 -34.614197z" fill-rule="evenodd"/><path fill="#000000" d="m148.79425 361.96533l7.14624 13.754303l-3.632248 1.8882751l-3.9189148 -7.542694l-4.1452026 2.1549072l3.4578552 6.6553345l-3.5490723 1.8450012l-3.4578552 -6.655304l-4.283844 2.2269897l3.9189148 7.542694l-3.9927063 2.0756226l-7.14624 -13.754303l19.603073 -10.190826z" fill-rule="nonzero"/><path fill="#000000" fill-opacity="0.0" d="m170.17978 371.48538l25.196854 31.527557l-49.984253 39.93701l-25.196854 -31.527557z" fill-rule="evenodd"/><path fill="#000000" d="m147.98636 407.33768l13.281296 -10.611664l-3.1215668 -3.9058533l3.9795074 -3.179596l10.681625 13.365387l-3.9795074 3.179596l-3.1898499 -3.9913025l-13.281296 10.611633l-4.3702087 -5.4682007z" fill-rule="nonzero"/><path fill="#000000" fill-opacity="0.0" d="m205.6071 405.59668l26.330704 28.724426l-47.18109 43.275574l-26.330719 -28.724396z" fill-rule="evenodd"/><path fill="#000000" d="m191.49478 432.70395q1.9690247 -1.8060608 4.1791077 -2.5398254q2.232132 -0.7328491 4.434662 -0.52682495q2.214035 0.1954956 4.268875 1.257843q2.05484 1.0623779 3.7019196 2.859192q1.1508484 1.2554626 2.1021118 2.778778q0.9512634 1.523346 1.500473 3.3942566l-4.3393555 2.665619q-0.37641907 -1.5205383 -1.0080719 -2.7645874q-0.6316376 -1.2440186 -1.3918304 -2.0733337q-0.91856384 -1.0020752 -1.9810181 -1.490509q-1.0509186 -0.49902344 -2.1795197 -0.48156738q-1.1286011 0.017486572 -2.2897491 0.53125q-1.1506042 0.5252991 -2.2675323 1.5497742q-1.1169434 1.0245056 -1.7396393 2.125702q-0.6121216 1.1127014 -0.7271271 2.2359009q-0.11502075 1.1231995 0.27957153 2.2242432q0.4060974 1.0904541 1.3246613 2.0925293q0.7601929 0.82928467 1.9445496 1.5663757q1.184372 0.73706055 2.6661987 1.2436829l-3.030136 4.093872q-1.8043213 -0.71969604 -3.2161865 -1.8205566q-1.4233704 -1.0903015 -2.5742188 -2.3457642q-1.6470795 -1.796814 -2.5389252 -3.9259033q-0.8803253 -2.139679 -0.9065399 -4.341858q-0.014709473 -2.212738 0.89671326 -4.3632507q0.92196655 -2.1390076 2.8910065 -3.9450378z" fill-rule="nonzero"/><path fill="#000000" fill-opacity="0.0" d="m226.19974 429.65506l32.97638 23.275574l-32.18898 45.606323l-32.97638 -23.275604z" fill-rule="evenodd"/><path fill="#000000" d="m228.3287 479.77527l-6.816757 -4.8114624l1.8694916 -4.437134l-4.4806824 -3.1625671l-3.5162354 3.2748108l-4.608322 -3.2526855l17.335678 -14.806915l7.9911804 5.6404114l-7.774353 21.555542zm0.91574097 -22.189026l-7.686447 7.1781616l3.6509247 2.5769043l4.431259 -9.475739l-0.3957367 -0.2793274z" fill-rule="nonzero"/><path fill="#000000" fill-opacity="0.0" d="m250.90474 450.7691l41.76378 17.795288l-19.968506 46.834656l-41.76378 -17.795288z" fill-rule="evenodd"/><path fill="#000000" d="m254.71509 471.5523l9.142181 3.8954163q2.1705627 0.9248657 3.5784912 2.2041626q1.4140625 1.2648926 2.1082153 2.6646423q0.7146301 1.39151 0.7727356 2.80896q0.064208984 1.4031067 -0.4444275 2.5960693q-0.39831543 0.9342346 -0.9773865 1.7745056q-0.572937 0.8258667 -1.3966064 1.4430237q-0.8175354 0.6027832 -1.9331665 0.9086914q-1.0950928 0.29766846 -2.5460205 0.15499878q-0.07052612 0.6832886 -0.004852295 1.7643127q0.06567383 1.0809937 0.21380615 2.3669739q0.1481018 1.2859802 0.35183716 2.680603q0.20373535 1.3945923 0.4093628 2.7050781l-7.359741 -3.1359558q-0.02368164 -1.6575623 0.06484985 -3.657959q0.09466553 -2.01474 0.5767517 -4.2211l-1.8399506 -0.7839966l-2.941513 6.899109l-6.4397736 -2.7439575l8.665207 -20.323578zm3.181244 13.414337q1.0924683 0.46548462 1.9624939 0.496521q0.88442993 0.03717041 1.5548706 -0.22064209q0.6704712 -0.25784302 1.1168518 -0.7470093q0.46072388 -0.48303223 0.7058716 -1.0579834q0.48410034 -1.1354675 0.47427368 -1.9888611q-0.00982666 -0.8534241 -0.38446045 -1.488617q-0.36853027 -0.64956665 -1.0259705 -1.0995178q-0.6574402 -0.4499817 -1.4767761 -0.7991028l-1.0780945 -0.4593811l-2.9415283 6.899109l1.0924683 0.46548462z" fill-rule="nonzero"/><path fill="#000000" fill-opacity="0.0" d="m276.1881 465.0853l38.04724 8.566925l-9.669281 42.92914l-38.04724 -8.566925z" fill-rule="evenodd"/><path fill="#000000" d="m283.70184 484.84467l15.121399 3.4048157l-0.89953613 3.9937134l-8.292389 -1.867157l-1.0265503 4.557678l7.316803 1.6474915l-0.87893677 3.9022522l-7.316803 -1.6474915l-1.0609131 4.7101135l8.292389 1.867157l-0.98880005 4.390045l-15.121429 -3.4048462l4.854767 -21.553772z" fill-rule="nonzero"/><path fill="#000000" fill-opacity="0.0" d="m398.3864 478.12286l45.385834 -14.7716675l14.551178 44.6929l-45.385834 14.771698z" fill-rule="evenodd"/><path fill="#000000" d="m431.6941 491.84903q-0.696228 -0.06915283 -1.6004944 -0.070617676q-0.8942261 -0.0211792 -1.8582764 0.04611206q-0.9491577 0.062469482 -1.8990173 0.22372437q-0.9547119 0.14639282 -1.7570496 0.40753174q-1.396637 0.45455933 -2.0679932 1.0674438q-0.6713867 0.6128845 -0.3956604 1.4597473q0.13061523 0.40115356 0.4996338 0.62609863q0.37905884 0.20526123 0.97128296 0.30828857q0.58740234 0.08816528 1.3679504 0.113464355q0.7905884 0.005584717 1.7394104 -0.007446289l1.1958923 -0.011291504q1.5023499 -0.028900146 2.780487 0.21240234q1.2732544 0.22640991 2.2773743 0.78692627q1.0141296 0.5408325 1.749054 1.4354248q0.7349243 0.8945923 1.160614 2.2020264q0.49822998 1.530304 0.4190979 2.9527588q-0.069122314 1.402771 -0.80407715 2.6278687q-0.73495483 1.2251282 -2.1799622 2.237671q-1.4301758 1.007721 -3.673706 1.737915q-1.9909363 0.64801025 -4.073456 0.96429443q-2.0676575 0.3114624 -4.3395386 0.14712524l-1.596283 -4.9029236q2.2359009 0.356781 4.1836853 0.23223877q1.9577637 -0.14425659 3.7109985 -0.71487427q1.4411926 -0.46905518 1.9450073 -1.1424255q0.51864624 -0.67819214 0.252594 -1.4953308q-0.15963745 -0.4902954 -0.523468 -0.7498169q-0.3538208 -0.27920532 -1.0003052 -0.39743042q-0.63165283 -0.123046875 -1.605011 -0.1348877q-0.97817993 -0.02670288 -2.3520203 -0.0067749023q-1.368988 0.03475952 -2.6225586 -0.18164062q-1.238739 -0.22125244 -2.2677307 -0.75723267q-1.0338135 -0.5508423 -1.822998 -1.4606323q-0.7743225 -0.91464233 -1.214508 -2.2666626q-0.4547119 -1.3965759 -0.34170532 -2.7150269q0.11300659 -1.3184814 0.8572693 -2.464447q0.73947144 -1.1608582 2.1347046 -2.1243591q1.4101257 -0.96832275 3.549652 -1.6646729q0.8469238 -0.27563477 1.821991 -0.51083374q0.97509766 -0.23519897 2.0040894 -0.40579224q1.0438538 -0.17541504 2.0870056 -0.25204468q1.0431519 -0.07659912 2.011322 -0.030212402l1.2767029 4.678314z" fill-rule="nonzero"/><path fill="#000000" fill-opacity="0.0" d="m434.0326 469.72012l37.417328 -18.992126l18.48819 36.37796l-37.417328 18.992126z" fill-rule="evenodd"/><path fill="#000000" d="m452.42645 480.1507l13.821472 -7.015442l1.8547668 3.649475l-7.579529 3.847168l2.1166687 4.164856l6.6878357 -3.3945618l1.8122559 3.5658875l-6.687805 3.3945923l2.1874695 4.304138l7.579529 -3.847168l2.0388184 4.011627l-13.821472 7.015442l-10.01001 -19.696014z" fill-rule="nonzero"/><path fill="#000000" fill-opacity="0.0" d="m463.23413 455.9731l37.763794 -29.196869l31.496033 40.75592l-37.763763 29.196838z" fill-rule="evenodd"/><path fill="#000000" d="m483.23383 462.79044l7.8618164 -6.078308q1.8665466 -1.4431152 3.670288 -2.0476685q1.7941589 -0.6168823 3.3546753 -0.5396118q1.5632935 0.055358887 2.8288574 0.69644165q1.2559814 0.62872314 2.0490112 1.6548767q0.6210327 0.8036194 1.0718079 1.7191162q0.44125366 0.9031372 0.5779114 1.9232483q0.12713623 1.007721 -0.15032959 2.1307678q-0.2746277 1.1011047 -1.1072693 2.2978516q0.5619812 0.39501953 1.5375671 0.8652954q0.9755554 0.47024536 2.170288 0.9685669q1.1947327 0.49832153 2.5114136 1.0011292q1.3166809 0.5028076 2.560852 0.9628906l-6.32901 4.8932495q-1.458313 -0.78829956 -3.1611023 -1.8418579q-1.7123413 -1.0658875 -3.402832 -2.563446l-1.5822449 1.2232971l4.5861206 5.9344482l-5.5378723 4.281555l-13.509949 -17.481842zm13.260986 3.770111q0.9394531 -0.7263489 1.3911438 -1.470581q0.4640808 -0.7538147 0.56625366 -1.4648132q0.10217285 -0.71102905 -0.106933594 -1.3393555q-0.19674683 -0.6378784 -0.578949 -1.1324158q-0.75479126 -0.9767151 -1.5044556 -1.3846436q-0.7496643 -0.40789795 -1.4869385 -0.39089966q-0.74679565 0.0046081543 -1.4604187 0.3588562q-0.7135925 0.35421753 -1.4181824 0.8989563l-0.927124 0.7167969l4.5861206 5.9344177l0.93948364 -0.72631836z" fill-rule="nonzero"/><path fill="#000000" fill-opacity="0.0" d="m492.3626 432.1796l37.51178 -37.480316l40.787415 40.787415l-37.51178 37.480316z" fill-rule="evenodd"/><path fill="#000000" d="m511.3034 438.1715l6.0129395 -6.0078735l13.9331665 9.381165l-8.981323 -14.328827l3.890686 -3.8874512l11.389282 19.852448l-6.7313843 6.7257385l-19.513367 -11.735199z" fill-rule="nonzero"/><path fill="#000000" fill-opacity="0.0" d="m516.3375 409.1836l36.125977 -47.3071l46.740173 35.716522l-36.125977 47.3071z" fill-rule="evenodd"/><path fill="#000000" d="m537.42676 410.60938l4.248413 -5.5633545l17.555054 13.414703l-4.248474 5.5633545l-17.554993 -13.414703z" fill-rule="nonzero"/><path fill="#000000" fill-opacity="0.0" d="m529.48816 398.67612l23.527527 -50.70868l57.385803 26.64569l-23.527527 50.70865z" fill-rule="evenodd"/><path fill="#000000" d="m559.93 401.30322q-2.4234009 -1.1252136 -3.949585 -2.884735q-1.5338135 -1.7802734 -2.1896362 -3.8936462q-0.6699829 -2.1199646 -0.47869873 -4.4256897q0.19134521 -2.3057556 1.2172852 -4.5168457q0.7167969 -1.5449219 1.7575073 -3.0083618q1.0407104 -1.46344 2.5567017 -2.6889954l4.1272583 2.984497q-1.2589722 0.931427 -2.1646118 1.9924316q-0.9057007 1.0610046 -1.3792114 2.0815125q-0.57214355 1.2331238 -0.61486816 2.4019165q-0.0569458 1.1622314 0.39263916 2.1979065q0.449646 1.035675 1.369873 1.9108887q0.92681885 0.86102295 2.3015137 1.4993286q1.3746338 0.63827515 2.630249 0.7906189q1.262207 0.1381836 2.3431396 -0.18682861q1.0809937 -0.3250122 1.9457397 -1.1121521q0.8505249 -0.7937317 1.4226685 -2.0268555q0.47351074 -1.0205078 0.6989136 -2.3973694q0.22546387 -1.3768616 0.12390137 -2.9400024l4.942688 1.2269287q0.028747559 1.94281 -0.44506836 3.669464q-0.4597168 1.7332153 -1.1765137 3.2781677q-1.0258789 2.21109 -2.6485596 3.8522034q-1.6369019 1.634552 -3.659546 2.504242q-2.0368042 0.86309814 -4.371887 0.84695435q-2.3285522 -0.030334473 -4.751892 -1.1555786z" fill-rule="nonzero"/><path fill="#000000" fill-opacity="0.0" d="m546.3951 372.40182l16.315002 -49.228363l54.771606 18.141724l-16.314941 49.228363z" fill-rule="evenodd"/><path fill="#000000" d="m566.7992 366.8647l4.8760986 -14.713043l3.8861694 1.2871704l-2.6740112 8.068451l4.4349365 1.4689636l2.359375 -7.1192017l3.7971802 1.2576904l-2.359436 7.1192017l4.583252 1.5180969l2.6740112 -8.068451l4.2717285 1.414917l-4.8760986 14.713043l-20.973206 -6.9468384z" fill-rule="nonzero"/><path fill="#000000" fill-opacity="0.0" d="m559.7228 346.10565l9.165405 -55.149597l43.71649 7.2440796l-9.165344 55.149597z" fill-rule="evenodd"/><path fill="#000000" d="m587.2648 322.87372q-0.38250732 0.585968 -0.8008423 1.3877563q-0.43121338 0.78378296 -0.8161011 1.6702881q-0.38238525 0.87109375 -0.67736816 1.7883301q-0.3104248 0.91467285 -0.44873047 1.7470093q-0.24078369 1.448883 -0.006591797 2.327118q0.2341919 0.87820435 1.112793 1.0238037q0.41619873 0.06896973 0.7860718 -0.15481567q0.3569336 -0.24179077 0.7214966 -0.71987915q0.3491211 -0.48062134 0.7315674 -1.1616516q0.3696289 -0.6989746 0.7956543 -1.5469971l0.54156494 -1.0664368q0.6672363 -1.3465271 1.4708252 -2.3695374q0.788208 -1.0255737 1.7486572 -1.6583252q0.94763184 -0.6507263 2.0804443 -0.890625q1.1327515 -0.2399292 2.4892578 -0.015136719q1.5877075 0.26309204 2.8134766 0.9888611q1.2128296 0.7077942 1.9609985 1.9245911q0.7481079 1.2167969 0.9801636 2.9657593q0.23461914 1.733551 -0.15222168 4.0610046q-0.34320068 2.0653992 -1.0230713 4.0592346q-0.6772461 1.9783936 -1.8708496 3.9187317l-5.086914 -0.842926q1.3478394 -1.8197632 2.1356812 -3.6056213q0.77490234 -1.803833 1.0772095 -3.6226501q0.24847412 -1.4951172 -0.11669922 -2.252472q-0.36254883 -0.77279663 -1.2103882 -0.91329956q-0.508667 -0.08428955 -0.9067993 0.11898804q-0.41088867 0.18530273 -0.81396484 0.7045288q-0.4005127 0.5038147 -0.85998535 1.3621216q-0.47485352 0.8557739 -1.0907593 2.084076q-0.60058594 1.230896 -1.3707886 2.2436218q-0.76763916 0.99728394 -1.7177734 1.6634216q-0.9656372 0.6635742 -2.1369019 0.9446106q-1.1687622 0.26565552 -2.5715332 0.033203125q-1.4489746 -0.2401123 -2.5667725 -0.94799805q-1.1178589 -0.70788574 -1.7914429 -1.8964844q-0.6890869 -1.1911621 -0.9005127 -2.8733826q-0.20892334 -1.6976013 0.15997314 -3.9171448q0.1459961 -0.8786011 0.38702393 -1.8522949q0.24102783 -0.97369385 0.564209 -1.9654541q0.32580566 -1.0071411 0.73895264 -1.9681702q0.41314697 -0.96102905 0.9008179 -1.7987976l4.7401733 1.0230408z" fill-rule="nonzero"/><path fill="#000000" fill-opacity="0.0" d="m238.86769 23.884985l44.88188 -16.125984l21.039368 58.740158l-44.881866 16.125984z" fill-rule="evenodd"/><path fill="#000000" d="m278.1827 45.51528l11.106537 10.620037l-9.9991455 3.592682l-6.8175354 -8.60804l-0.93182373 11.392368l-7.5434875 2.7103577l1.8335571 -15.269386l-11.148697 -10.737717l9.999161 -3.592678l7.273773 7.7966003l0.96084595 -10.75528l7.0582275 -2.5360126l-1.7914124 15.387068z" fill-rule="nonzero"/></g></svg>