<?xml version="1.0" encoding="UTF-8" standalone="no"?>
<!DOCTYPE svg PUBLIC "-//W3C//DTD SVG 1.1//EN" "http://www.w3.org/Graphics/SVG/1.1/DTD/svg11.dtd">
<svg version="1.1" xmlns="http://www.w3.org/2000/svg" xmlns:xlink="http://www.w3.org/1999/xlink" preserveAspectRatio="xMidYMid meet" viewBox="0 0 640 640" width="500" height="500"><defs><path d="M0 80L640 80L640 560L0 560L0 80Z" id="a8ischG0hm"></path><path d="M69.25 321.7C69.25 181.52 181.69 67.88 320.39 67.88C320.39 67.88 320.39 67.88 320.39 67.88C387 67.88 450.88 94.62 497.98 142.22C545.08 189.82 571.54 254.38 571.54 321.7C571.54 321.7 571.54 321.7 571.54 321.7C571.54 461.87 459.1 575.51 320.39 575.51C320.39 575.51 320.39 575.51 320.39 575.51C181.69 575.51 69.25 461.87 69.25 321.7C69.25 321.7 69.25 321.7 69.25 321.7Z" id="a8156Dcvf"></path><radialGradient id="gradientf2oOBtYjzw" gradientUnits="userSpaceOnUse" cx="320.39" cy="321.7" dx="7323.44" dy="5572.58" r="8752.96"><stop style="stop-color: #fff6db;stop-opacity: 1" offset="0%"></stop><stop style="stop-color: #fad25c;stop-opacity: 1" offset="100%"></stop></radialGradient><path d="M318.51 357.4C75.76 177.11 268.97 36.89 318.51 177.11C368.05 36.89 561.25 177.11 318.51 357.4Z" id="j4hg4kXZ4V"></path><radialGradient id="gradienta1rwR1OoSB" gradientUnits="userSpaceOnUse" cx="318.51" cy="238.7" dx="4998.35" dy="3828.76" r="5898.26"><stop style="stop-color: #f5d0d0;stop-opacity: 1" offset="0%"></stop><stop style="stop-color: #d96868;stop-opacity: 1" offset="100%"></stop></radialGradient><path d="M318.51 357.4C75.76 177.11 268.97 36.89 318.51 177.11C368.05 36.89 561.25 177.11 318.51 357.4Z" id="dADhsv5VY"></path><path d="M318.51 177.11L318.81 358.23" id="i45I39zEcY"></path><path d="M318.51 177.11L318.81 358.23" id="b1t5I1hTOM"></path><path d="M318.8 248.36L374.05 303.6L317.34 360.31L262.09 305.07L318.8 248.36Z" id="e1DYSD5Hsu"></path><path d="M318.8 248.36L374.05 303.6L317.34 360.31L262.09 305.07L318.8 248.36Z" id="baG871axp"></path><path d="M104.2 322.54C117.71 275.1 152.89 243.54 182.78 252.04C182.78 252.04 182.78 252.04 182.78 252.04C197.14 256.13 208.32 269.1 213.88 288.09C219.44 307.09 218.92 330.56 212.44 353.34C212.44 353.34 212.44 353.34 212.44 353.34C198.92 400.78 163.74 432.34 133.86 423.83C133.86 423.83 133.86 423.83 133.86 423.83C103.97 415.33 90.69 369.98 104.2 322.54C104.2 322.54 104.2 322.54 104.2 322.54Z" id="g6S7Wy0l"></path><linearGradient id="gradientbgeQlUn3U" gradientUnits="userSpaceOnUse" x1="128.65" y1="236.64" x2="79.76" y2="408.44"><stop style="stop-color: #3177ee;stop-opacity: 1" offset="0%"></stop><stop style="stop-color: #113d8a;stop-opacity: 1" offset="100%"></stop></linearGradient><path d="M104.2 322.54C117.71 275.1 152.89 243.54 182.78 252.04C182.78 252.04 182.78 252.04 182.78 252.04C197.14 256.13 208.32 269.1 213.88 288.09C219.44 307.09 218.92 330.56 212.44 353.34C212.44 353.34 212.44 353.34 212.44 353.34C198.92 400.78 163.74 432.34 133.86 423.83C133.86 423.83 133.86 423.83 133.86 423.83C103.97 415.33 90.69 369.98 104.2 322.54C104.2 322.54 104.2 322.54 104.2 322.54Z" id="c14InBjS2a"></path><path d="M197.38 428.74C208.3 385.75 240.85 356.93 270.1 364.35C270.1 364.35 270.1 364.35 270.1 364.35C284.14 367.92 295.53 379.54 301.75 396.66C307.98 413.77 308.53 434.99 303.29 455.63C303.29 455.63 303.29 455.63 303.29 455.63C292.37 498.61 259.82 527.44 230.57 520.01C230.57 520.01 230.57 520.01 230.57 520.01C201.33 512.59 186.47 471.72 197.38 428.74C197.38 428.74 197.38 428.74 197.38 428.74Z" id="c2V5oizmJd"></path><linearGradient id="gradienthhOPw5bvp" gradientUnits="userSpaceOnUse" x1="217.15" y1="350.91" x2="177.62" y2="506.57"><stop style="stop-color: #3177ee;stop-opacity: 1" offset="0%"></stop><stop style="stop-color: #113d8a;stop-opacity: 1" offset="100%"></stop></linearGradient><path d="M197.38 428.74C208.3 385.75 240.85 356.93 270.1 364.35C270.1 364.35 270.1 364.35 270.1 364.35C284.14 367.92 295.53 379.54 301.75 396.66C307.98 413.77 308.53 434.99 303.29 455.63C303.29 455.63 303.29 455.63 303.29 455.63C292.37 498.61 259.82 527.44 230.57 520.01C230.57 520.01 230.57 520.01 230.57 520.01C201.33 512.59 186.47 471.72 197.38 428.74C197.38 428.74 197.38 428.74 197.38 428.74Z" id="aJhOZPT4"></path><path d="M324.7 449.13C319.9 404.84 339.81 366.35 369.17 363.16C369.17 363.16 369.17 363.16 369.17 363.16C383.27 361.63 397.7 368.61 409.3 382.57C420.9 396.53 428.71 416.32 431.01 437.59C431.01 437.59 431.01 437.59 431.01 437.59C435.81 481.88 415.9 520.37 386.54 523.56C386.54 523.56 386.54 523.56 386.54 523.56C357.18 526.74 329.5 493.42 324.7 449.13C324.7 449.13 324.7 449.13 324.7 449.13Z" id="aEjsVerB"></path><linearGradient id="gradientcnHxYcNb3" gradientUnits="userSpaceOnUse" x1="315.99" y1="368.94" x2="333.41" y2="529.33"><stop style="stop-color: #3177ee;stop-opacity: 1" offset="0%"></stop><stop style="stop-color: #113d8a;stop-opacity: 1" offset="100%"></stop></linearGradient><path d="M324.7 449.13C319.9 404.84 339.81 366.35 369.17 363.16C369.17 363.16 369.17 363.16 369.17 363.16C383.27 361.63 397.7 368.61 409.3 382.57C420.9 396.53 428.71 416.32 431.01 437.59C431.01 437.59 431.01 437.59 431.01 437.59C435.81 481.88 415.9 520.37 386.54 523.56C386.54 523.56 386.54 523.56 386.54 523.56C357.18 526.74 329.5 493.42 324.7 449.13C324.7 449.13 324.7 449.13 324.7 449.13Z" id="a1skqpo7HH"></path><path d="M417.1 357.71C401.24 314.55 412.51 270.71 442.26 259.78C442.26 259.78 442.26 259.78 442.26 259.78C456.55 254.54 473.28 257.74 488.76 268.69C504.25 279.63 517.23 297.42 524.85 318.15C524.85 318.15 524.85 318.15 524.85 318.15C540.7 361.31 529.44 405.15 499.69 416.08C499.69 416.08 499.69 416.08 499.69 416.08C469.93 427 432.96 400.87 417.1 357.71C417.1 357.71 417.1 357.71 417.1 357.71Z" id="b14mMsklZ9"></path><linearGradient id="gradientb9rBtvHvi" gradientUnits="userSpaceOnUse" x1="388.4" y1="279.56" x2="445.8" y2="435.87"><stop style="stop-color: #3177ee;stop-opacity: 1" offset="0%"></stop><stop style="stop-color: #113d8a;stop-opacity: 1" offset="100%"></stop></linearGradient><path d="M417.1 357.71C401.24 314.55 412.51 270.71 442.26 259.78C442.26 259.78 442.26 259.78 442.26 259.78C456.55 254.54 473.28 257.74 488.76 268.69C504.25 279.63 517.23 297.42 524.85 318.15C524.85 318.15 524.85 318.15 524.85 318.15C540.7 361.31 529.44 405.15 499.69 416.08C499.69 416.08 499.69 416.08 499.69 416.08C469.93 427 432.96 400.87 417.1 357.71C417.1 357.71 417.1 357.71 417.1 357.71Z" id="b21e1oTyEJ"></path><path d="M332.7 0.25L339.03 0.57L345.34 1L351.63 1.57L357.9 2.25L364.14 3.06L370.36 3.99L376.55 5.04L382.72 6.21L388.86 7.49L394.96 8.9L401.03 10.43L407.07 12.07L413.07 13.83L419.03 15.71L424.95 17.7L430.83 19.81L436.67 22.03L442.46 24.36L448.2 26.8L453.9 29.36L459.55 32.03L465.14 34.81L470.68 37.7L476.17 40.7L481.6 43.8L486.97 47.02L492.29 50.34L497.54 53.76L502.72 57.3L507.84 60.93L512.9 64.68L517.89 68.52L522.8 72.47L527.65 76.52L532.42 80.67L537.11 84.92L541.73 89.27L546.27 93.73L550.73 98.27L555.08 102.89L559.33 107.58L563.48 112.35L567.53 117.2L571.48 122.11L575.32 127.1L579.07 132.16L582.7 137.28L586.24 142.46L589.66 147.71L592.98 153.03L596.2 158.4L599.3 163.83L602.3 169.32L605.19 174.86L607.97 180.45L610.64 186.1L613.2 191.8L615.64 197.54L617.97 203.33L620.19 209.17L622.3 215.05L624.29 220.97L626.17 226.93L627.93 232.93L629.57 238.97L631.1 245.04L632.51 251.14L633.79 257.28L634.96 263.45L636.01 269.64L636.94 275.86L637.75 282.1L638.43 288.37L639 294.66L639.43 300.97L639.75 307.3L639.94 313.64L640 320L639.73 333.19L638.94 346.24L637.63 359.15L635.81 371.91L633.5 384.49L630.7 396.9L627.43 409.12L623.69 421.14L619.49 432.96L614.85 444.56L609.78 455.93L604.28 467.06L598.37 477.94L592.06 488.56L585.35 498.92L578.26 508.99L570.8 518.77L562.97 528.25L554.79 537.42L546.27 546.27L537.42 554.79L528.25 562.97L518.77 570.8L508.99 578.26L498.92 585.35L488.56 592.06L477.94 598.37L467.06 604.28L455.93 609.78L444.56 614.85L432.96 619.49L421.14 623.69L409.12 627.43L396.9 630.7L384.49 633.5L371.91 635.81L359.15 637.63L346.24 638.94L333.19 639.73L320 640L306.81 639.73L293.76 638.94L280.85 637.63L268.09 635.81L255.51 633.5L243.1 630.7L230.88 627.43L218.86 623.69L207.04 619.49L195.44 614.85L184.07 609.78L172.94 604.28L162.06 598.37L151.44 592.06L141.08 585.35L131.01 578.26L121.23 570.8L111.75 562.97L102.58 554.79L93.73 546.27L85.21 537.42L77.03 528.25L69.2 518.77L61.74 508.99L54.65 498.92L47.94 488.56L41.63 477.94L35.72 467.06L30.22 455.93L25.15 444.56L20.51 432.96L16.31 421.14L12.57 409.12L9.3 396.9L6.5 384.49L4.19 371.91L2.37 359.15L1.06 346.24L0.27 333.19L0 320L0.27 306.81L1.06 293.76L2.37 280.85L4.19 268.09L6.5 255.51L9.3 243.1L12.57 230.88L16.31 218.86L20.51 207.04L25.15 195.44L30.22 184.07L35.72 172.94L41.63 162.06L47.94 151.44L54.65 141.08L61.74 131.01L69.2 121.23L77.03 111.75L85.21 102.58L93.73 93.73L102.58 85.21L111.75 77.03L121.23 69.2L131.01 61.74L141.08 54.65L151.44 47.94L162.06 41.63L172.94 35.72L184.07 30.22L195.44 25.15L207.04 20.51L218.86 16.31L230.88 12.57L243.1 9.3L255.51 6.5L268.09 4.19L280.85 2.37L293.76 1.06L306.81 0.27L320 0L326.36 0.06L332.7 0.25ZM299.27 68.1L289.08 69.14L279 70.57L269.06 72.4L259.26 74.61L249.61 77.2L240.12 80.15L230.78 83.46L221.62 87.13L212.64 91.13L203.85 95.47L195.26 100.14L186.87 105.13L178.69 110.43L170.74 116.03L163.01 121.92L155.52 128.1L148.28 134.56L141.29 141.29L134.56 148.28L128.1 155.52L121.92 163.01L116.03 170.74L110.43 178.69L105.13 186.87L100.14 195.26L95.47 203.85L91.13 212.64L87.13 221.62L83.46 230.78L80.15 240.12L77.2 249.61L74.61 259.26L72.4 269.06L70.57 279L69.14 289.08L68.1 299.27L67.47 309.58L67.26 320L67.47 330.42L68.1 340.73L69.14 350.92L70.57 361L72.4 370.94L74.61 380.74L77.2 390.39L80.15 399.88L83.46 409.22L87.13 418.38L91.13 427.36L95.47 436.15L100.14 444.74L105.13 453.13L110.43 461.31L116.03 469.26L121.92 476.99L128.1 484.48L134.56 491.72L141.29 498.71L148.28 505.44L155.52 511.9L163.01 518.08L170.74 523.97L178.69 529.57L186.87 534.87L195.26 539.86L203.85 544.53L212.64 548.87L221.62 552.87L230.78 556.54L240.12 559.85L249.61 562.8L259.26 565.39L269.06 567.6L279 569.43L289.08 570.86L299.27 571.9L309.58 572.53L320 572.74L330.42 572.53L340.73 571.9L350.92 570.86L361 569.43L370.94 567.6L380.74 565.39L390.39 562.8L399.88 559.85L409.22 556.54L418.38 552.87L427.36 548.87L436.15 544.53L444.74 539.86L453.13 534.87L461.31 529.57L469.26 523.97L476.99 518.08L484.48 511.9L491.72 505.44L498.71 498.71L505.44 491.72L511.9 484.48L518.08 476.99L523.97 469.26L529.57 461.31L534.87 453.13L539.86 444.74L544.53 436.15L548.87 427.36L552.87 418.38L556.54 409.22L559.85 399.88L562.8 390.39L565.39 380.74L567.6 370.94L569.43 361L570.86 350.92L571.9 340.73L572.53 330.42L572.74 320L572.53 309.58L571.9 299.27L570.86 289.08L569.43 279L567.6 269.06L565.39 259.26L562.8 249.61L559.85 240.12L556.54 230.78L552.87 221.62L548.87 212.64L544.53 203.85L539.86 195.26L534.87 186.87L529.57 178.69L523.97 170.74L518.08 163.01L511.9 155.52L505.44 148.28L498.71 141.29L491.72 134.56L484.48 128.1L476.99 121.92L469.26 116.03L461.31 110.43L453.13 105.13L444.74 100.14L436.15 95.47L427.36 91.13L418.38 87.13L409.22 83.46L399.88 80.15L390.39 77.2L380.74 74.61L370.94 72.4L361 70.57L350.92 69.14L340.73 68.1L330.42 67.47L320 67.26L309.58 67.47L299.27 68.1Z" id="h8MK0q2YQ"></path><radialGradient id="gradientbHyqMxR3h" gradientUnits="userSpaceOnUse" cx="320" cy="320" dx="8258.55" dy="6273.91" r="9923.19"><stop style="stop-color: #dcecd5;stop-opacity: 1" offset="0%"></stop><stop style="stop-color: #93bc81;stop-opacity: 1" offset="100%"></stop></radialGradient><path d="M332.7 0.25L339.03 0.57L345.34 1L351.63 1.57L357.9 2.25L364.14 3.06L370.36 3.99L376.55 5.04L382.72 6.21L388.86 7.49L394.96 8.9L401.03 10.43L407.07 12.07L413.07 13.83L419.03 15.71L424.95 17.7L430.83 19.81L436.67 22.03L442.46 24.36L448.2 26.8L453.9 29.36L459.55 32.03L465.14 34.81L470.68 37.7L476.17 40.7L481.6 43.8L486.97 47.02L492.29 50.34L497.54 53.76L502.72 57.3L507.84 60.93L512.9 64.68L517.89 68.52L522.8 72.47L527.65 76.52L532.42 80.67L537.11 84.92L541.73 89.27L546.27 93.73L550.73 98.27L555.08 102.89L559.33 107.58L563.48 112.35L567.53 117.2L571.48 122.11L575.32 127.1L579.07 132.16L582.7 137.28L586.24 142.46L589.66 147.71L592.98 153.03L596.2 158.4L599.3 163.83L602.3 169.32L605.19 174.86L607.97 180.45L610.64 186.1L613.2 191.8L615.64 197.54L617.97 203.33L620.19 209.17L622.3 215.05L624.29 220.97L626.17 226.93L627.93 232.93L629.57 238.97L631.1 245.04L632.51 251.14L633.79 257.28L634.96 263.45L636.01 269.64L636.94 275.86L637.75 282.1L638.43 288.37L639 294.66L639.43 300.97L639.75 307.3L639.94 313.64L640 320L639.73 333.19L638.94 346.24L637.63 359.15L635.81 371.91L633.5 384.49L630.7 396.9L627.43 409.12L623.69 421.14L619.49 432.96L614.85 444.56L609.78 455.93L604.28 467.06L598.37 477.94L592.06 488.56L585.35 498.92L578.26 508.99L570.8 518.77L562.97 528.25L554.79 537.42L546.27 546.27L537.42 554.79L528.25 562.97L518.77 570.8L508.99 578.26L498.92 585.35L488.56 592.06L477.94 598.37L467.06 604.28L455.93 609.78L444.56 614.85L432.96 619.49L421.14 623.69L409.12 627.43L396.9 630.7L384.49 633.5L371.91 635.81L359.15 637.63L346.24 638.94L333.19 639.73L320 640L306.81 639.73L293.76 638.94L280.85 637.63L268.09 635.81L255.51 633.5L243.1 630.7L230.88 627.43L218.86 623.69L207.04 619.49L195.44 614.85L184.07 609.78L172.94 604.28L162.06 598.37L151.44 592.06L141.08 585.35L131.01 578.26L121.23 570.8L111.75 562.97L102.58 554.79L93.73 546.27L85.21 537.42L77.03 528.25L69.2 518.77L61.74 508.99L54.65 498.92L47.94 488.56L41.63 477.94L35.72 467.06L30.22 455.93L25.15 444.56L20.51 432.96L16.31 421.14L12.57 409.12L9.3 396.9L6.5 384.49L4.19 371.91L2.37 359.15L1.06 346.24L0.27 333.19L0 320L0.27 306.81L1.06 293.76L2.37 280.85L4.19 268.09L6.5 255.51L9.3 243.1L12.57 230.88L16.31 218.86L20.51 207.04L25.15 195.44L30.22 184.07L35.72 172.94L41.63 162.06L47.94 151.44L54.65 141.08L61.74 131.01L69.2 121.23L77.03 111.75L85.21 102.58L93.73 93.73L102.58 85.21L111.75 77.03L121.23 69.2L131.01 61.74L141.08 54.65L151.44 47.94L162.06 41.63L172.94 35.72L184.07 30.22L195.44 25.15L207.04 20.51L218.86 16.31L230.88 12.57L243.1 9.3L255.51 6.5L268.09 4.19L280.85 2.37L293.76 1.06L306.81 0.27L320 0L326.36 0.06L332.7 0.25ZM299.27 68.1L289.08 69.14L279 70.57L269.06 72.4L259.26 74.61L249.61 77.2L240.12 80.15L230.78 83.46L221.62 87.13L212.64 91.13L203.85 95.47L195.26 100.14L186.87 105.13L178.69 110.43L170.74 116.03L163.01 121.92L155.52 128.1L148.28 134.56L141.29 141.29L134.56 148.28L128.1 155.52L121.92 163.01L116.03 170.74L110.43 178.69L105.13 186.87L100.14 195.26L95.47 203.85L91.13 212.64L87.13 221.62L83.46 230.78L80.15 240.12L77.2 249.61L74.61 259.26L72.4 269.06L70.57 279L69.14 289.08L68.1 299.27L67.47 309.58L67.26 320L67.47 330.42L68.1 340.73L69.14 350.92L70.57 361L72.4 370.94L74.61 380.74L77.2 390.39L80.15 399.88L83.46 409.22L87.13 418.38L91.13 427.36L95.47 436.15L100.14 444.74L105.13 453.13L110.43 461.31L116.03 469.26L121.92 476.99L128.1 484.48L134.56 491.72L141.29 498.71L148.28 505.44L155.52 511.9L163.01 518.08L170.74 523.97L178.69 529.57L186.87 534.87L195.26 539.86L203.85 544.53L212.64 548.87L221.62 552.87L230.78 556.54L240.12 559.85L249.61 562.8L259.26 565.39L269.06 567.6L279 569.43L289.08 570.86L299.27 571.9L309.58 572.53L320 572.74L330.42 572.53L340.73 571.9L350.92 570.86L361 569.43L370.94 567.6L380.74 565.39L390.39 562.8L399.88 559.85L409.22 556.54L418.38 552.87L427.36 548.87L436.15 544.53L444.74 539.86L453.13 534.87L461.31 529.57L469.26 523.97L476.99 518.08L484.48 511.9L491.72 505.44L498.71 498.71L505.44 491.72L511.9 484.48L518.08 476.99L523.97 469.26L529.57 461.31L534.87 453.13L539.86 444.74L544.53 436.15L548.87 427.36L552.87 418.38L556.54 409.22L559.85 399.88L562.8 390.39L565.39 380.74L567.6 370.94L569.43 361L570.86 350.92L571.9 340.73L572.53 330.42L572.74 320L572.53 309.58L571.9 299.27L570.86 289.08L569.43 279L567.6 269.06L565.39 259.26L562.8 249.61L559.85 240.12L556.54 230.78L552.87 221.62L548.87 212.64L544.53 203.85L539.86 195.26L534.87 186.87L529.57 178.69L523.97 170.74L518.08 163.01L511.9 155.52L505.44 148.28L498.71 141.29L491.72 134.56L484.48 128.1L476.99 121.92L469.26 116.03L461.31 110.43L453.13 105.13L444.74 100.14L436.15 95.47L427.36 91.13L418.38 87.13L409.22 83.46L399.88 80.15L390.39 77.2L380.74 74.61L370.94 72.4L361 70.57L350.92 69.14L340.73 68.1L330.42 67.47L320 67.26L309.58 67.47L299.27 68.1Z" id="iye00tmpa"></path><path d="M68.19 110.76L101.09 77.82L139.08 115.8L106.17 148.75L68.19 110.76Z" id="b1BcyFvQJ0"></path><path d="M117.21 101.05L117.38 101.06L117.55 101.08L117.71 101.09L117.86 101.11L118.01 101.13L118.14 101.15L118.27 101.17L118.39 101.19L118.5 101.21L118.6 101.23L118.69 101.25L118.78 101.27L118.85 101.28L118.92 101.29L118.97 101.3L119.02 101.31L119.21 101.36L119.39 101.41L119.57 101.46L119.74 101.52L119.9 101.58L120.06 101.65L120.21 101.71L120.36 101.77L120.5 101.84L120.63 101.9L120.76 101.97L120.88 102.03L120.99 102.09L121.09 102.15L121.19 102.2L121.28 102.25L121.36 102.3L121.43 102.34L121.5 102.38L121.56 102.41L121.6 102.44L121.64 102.45L121.81 102.56L121.97 102.67L122.12 102.78L122.27 102.89L122.41 103L122.55 103.11L122.68 103.21L122.81 103.32L122.93 103.42L123.05 103.52L123.16 103.61L123.26 103.7L123.36 103.79L123.45 103.87L123.53 103.95L123.61 104.02L123.68 104.09L123.74 104.15L123.8 104.2L123.85 104.25L123.89 104.29L123.93 104.31L124.05 104.44L124.17 104.56L124.28 104.69L124.39 104.81L124.49 104.93L124.59 105.05L124.68 105.16L124.77 105.28L124.86 105.39L124.94 105.49L125.01 105.6L125.08 105.69L125.15 105.79L125.21 105.88L125.27 105.96L125.32 106.04L125.37 106.11L125.41 106.17L125.45 106.23L125.48 106.27L125.51 106.31L125.54 106.35L125.63 106.5L125.72 106.64L125.8 106.79L125.87 106.94L125.95 107.08L126.01 107.22L126.07 107.36L126.13 107.5L126.19 107.63L126.24 107.75L126.28 107.87L126.32 107.99L126.36 108.1L126.4 108.21L126.43 108.3L126.46 108.39L126.48 108.48L126.51 108.55L126.53 108.62L126.55 108.68L126.56 108.72L126.58 108.76L126.62 108.94L126.66 109.11L126.69 109.29L126.72 109.46L126.74 109.63L126.76 109.8L126.78 109.96L126.79 110.12L126.8 110.27L126.81 110.42L126.81 110.56L126.82 110.69L126.82 110.82L126.82 110.94L126.82 111.05L126.82 111.16L126.82 111.26L126.81 111.34L126.81 111.42L126.81 111.49L126.81 111.54L126.82 111.59L126.8 111.79L126.78 112L126.75 112.2L126.72 112.39L126.69 112.59L126.65 112.78L126.61 112.97L126.57 113.15L126.53 113.32L126.48 113.49L126.44 113.65L126.39 113.8L126.35 113.95L126.3 114.09L126.26 114.22L126.22 114.33L126.18 114.44L126.15 114.54L126.12 114.63L126.1 114.7L126.08 114.77L126.07 114.82L125.98 115.05L125.88 115.28L125.78 115.5L125.68 115.73L125.57 115.94L125.46 116.16L125.35 116.36L125.24 116.57L125.13 116.76L125.03 116.95L124.92 117.13L124.82 117.3L124.72 117.46L124.62 117.62L124.53 117.76L124.45 117.89L124.37 118.02L124.3 118.13L124.24 118.22L124.19 118.31L124.15 118.38L124.12 118.43L123.93 118.69L123.75 118.95L123.56 119.2L123.37 119.44L123.17 119.68L122.98 119.92L122.79 120.15L122.6 120.37L122.41 120.59L122.23 120.79L122.05 120.99L121.88 121.18L121.71 121.36L121.55 121.53L121.41 121.68L121.27 121.83L121.14 121.96L121.03 122.08L120.93 122.19L120.84 122.28L120.77 122.36L120.71 122.42L120.21 122.92L119.96 123.17L119.92 123.21L119.88 123.25L119.84 123.29L119.8 123.33L119.76 123.36L119.72 123.4L119.67 123.44L119.63 123.48L119.59 123.51L119.55 123.55L119.51 123.59L119.47 123.63L119.42 123.66L119.38 123.7L119.34 123.74L119.3 123.77L119.25 123.81L119.21 123.85L119.17 123.88L119.13 123.92L119.08 123.96L119.04 123.99L117.96 124.94L125.99 132.98L118.61 140.37L95.28 117.04L104.28 108.04L104.59 107.73L104.9 107.43L105.2 107.15L105.48 106.88L105.76 106.63L106.02 106.39L106.28 106.16L106.53 105.95L106.76 105.75L106.98 105.56L107.19 105.39L107.39 105.23L107.58 105.08L107.76 104.94L107.92 104.81L108.07 104.7L108.2 104.59L108.33 104.5L108.44 104.41L108.53 104.34L108.61 104.27L108.68 104.21L108.96 104.02L109.23 103.83L109.49 103.66L109.74 103.5L109.98 103.34L110.22 103.2L110.44 103.06L110.66 102.94L110.87 102.82L111.06 102.71L111.25 102.62L111.43 102.52L111.59 102.44L111.75 102.36L111.89 102.29L112.03 102.23L112.15 102.17L112.26 102.12L112.35 102.07L112.44 102.03L112.51 101.99L112.57 101.96L112.82 101.85L113.06 101.76L113.29 101.68L113.51 101.6L113.73 101.53L113.94 101.47L114.14 101.42L114.33 101.37L114.51 101.33L114.68 101.29L114.85 101.25L115.01 101.23L115.15 101.2L115.29 101.18L115.42 101.16L115.53 101.14L115.64 101.13L115.74 101.12L115.82 101.11L115.9 101.09L115.96 101.08L116.01 101.07L116.23 101.06L116.44 101.05L116.64 101.04L116.84 101.04L117.03 101.05L117.21 101.05ZM111.12 109.8L110.74 109.95L110.42 110.09L110.19 110.2L110.04 110.27L109.72 110.47L109.4 110.69L109.08 110.93L108.77 111.19L108.46 111.47L108.16 111.76L106.47 113.45L114.38 121.37L116.07 119.68L116.6 119.11L117 118.61L117.3 118.18L117.52 117.82L117.67 117.56L117.77 117.39L117.99 116.87L118.13 116.41L118.21 116.01L118.26 115.7L118.28 115.46L118.3 115.31L118.27 114.83L118.19 114.42L118.08 114.06L117.98 113.77L117.89 113.56L117.84 113.42L117.59 113L117.34 112.63L117.09 112.32L116.87 112.07L116.7 111.88L116.6 111.76L116.01 111.21L115.49 110.8L115.04 110.5L114.68 110.28L114.41 110.13L114.23 110.03L113.7 109.83L113.23 109.71L112.82 109.65L112.48 109.63L112.23 109.62L112.07 109.61L111.57 109.68L111.12 109.8Z" id="a4rIzPesNW"></path><path d="M118.29 63.27L156.46 38.56L185.76 83.65L147.59 108.36L118.29 63.27Z" id="b3wL1GolF"></path><path d="M174.81 94.1L169.69 89.06L162.83 93.5L165.42 100.18L158.35 104.75L147.43 72.53L159.68 64.6L185.26 87.34L174.81 94.1ZM160.68 88.38L166.29 84.75L155.6 73.36L155 73.74L160.68 88.38Z" id="afH9tuFHJ"></path><path d="M0 275.81L76.42 275.81L76.42 364.19L0 364.19L0 275.81Z" id="b3BLr1uo"></path><path d="M33.75 315.72L39.96 295.94L46.18 315.72L66.19 315.72L49.85 327.01L55.84 346.09L39.96 334.36L24.09 346.09L30.07 327.01L13.73 315.72L33.75 315.72Z" id="be1Ifm3rG"></path><path d="M567.9 274.08L631.19 274.08L631.19 361.44L567.9 361.44L567.9 274.08Z" id="a8eUUKUfgA"></path><path d="M601.65 313.99L607.86 294.21L614.07 313.99L634.09 313.99L617.75 325.27L623.74 344.36L607.86 332.63L591.98 344.36L597.97 325.27L581.63 313.99L601.65 313.99Z" id="c5YlSSZdbV"></path><path d="M394.66 3.24L456.63 16.03L443.36 80.34L381.38 67.55L394.66 3.24Z" id="h1gLARmq7"></path><path d="M417.2 32L417.61 32.1L418.01 32.19L418.39 32.28L418.76 32.37L419.1 32.47L419.43 32.56L419.74 32.64L420.04 32.73L420.32 32.81L420.58 32.89L420.82 32.97L421.05 33.05L421.26 33.12L421.46 33.18L421.64 33.24L421.8 33.3L421.95 33.35L422.08 33.39L422.19 33.43L422.29 33.47L422.38 33.49L422.69 33.61L423 33.74L423.29 33.86L423.56 33.98L423.82 34.1L424.07 34.22L424.31 34.33L424.53 34.44L424.74 34.55L424.94 34.66L425.13 34.76L425.3 34.86L425.46 34.95L425.61 35.04L425.75 35.12L425.88 35.19L425.99 35.26L426.1 35.33L426.19 35.38L426.27 35.43L426.34 35.47L426.4 35.5L426.62 35.65L426.83 35.8L427.03 35.95L427.22 36.09L427.39 36.24L427.56 36.38L427.71 36.51L427.86 36.65L428 36.78L428.12 36.9L428.24 37.02L428.35 37.14L428.45 37.24L428.54 37.35L428.63 37.44L428.71 37.53L428.78 37.61L428.84 37.69L428.9 37.75L428.95 37.81L428.99 37.85L429.03 37.89L429.16 38.06L429.29 38.23L429.4 38.4L429.51 38.57L429.61 38.73L429.71 38.88L429.79 39.03L429.87 39.18L429.95 39.32L430.02 39.46L430.08 39.59L430.14 39.72L430.19 39.83L430.24 39.95L430.28 40.05L430.32 40.14L430.36 40.23L430.39 40.31L430.42 40.38L430.44 40.44L430.47 40.49L430.49 40.54L430.55 40.72L430.61 40.9L430.66 41.08L430.7 41.25L430.74 41.43L430.78 41.59L430.81 41.75L430.83 41.91L430.86 42.06L430.88 42.21L430.89 42.35L430.91 42.48L430.92 42.61L430.93 42.73L430.93 42.84L430.94 42.94L430.95 43.04L430.95 43.12L430.96 43.2L430.96 43.26L430.97 43.32L430.97 43.36L430.97 43.56L430.97 43.75L430.96 43.94L430.95 44.12L430.94 44.3L430.92 44.47L430.91 44.64L430.89 44.81L430.87 44.96L430.85 45.11L430.83 45.26L430.82 45.39L430.8 45.52L430.78 45.64L430.76 45.76L430.74 45.86L430.72 45.96L430.71 46.04L430.7 46.12L430.69 46.19L430.68 46.24L430.67 46.29L430.63 46.46L430.6 46.62L430.55 46.79L430.51 46.94L430.47 47.1L430.42 47.24L430.38 47.39L430.33 47.52L430.29 47.65L430.24 47.78L430.2 47.9L430.15 48.01L430.11 48.12L430.07 48.22L430.04 48.31L430 48.4L429.97 48.48L429.94 48.55L429.91 48.61L429.89 48.66L429.87 48.71L429.86 48.75L429.79 48.91L429.71 49.06L429.63 49.21L429.55 49.36L429.47 49.49L429.39 49.63L429.31 49.76L429.23 49.88L429.15 49.99L429.07 50.11L428.99 50.21L428.92 50.31L428.85 50.4L428.78 50.49L428.71 50.57L428.65 50.64L428.6 50.71L428.55 50.77L428.51 50.83L428.47 50.87L428.44 50.91L428.41 50.95L428.29 51.08L428.16 51.21L428.03 51.33L427.91 51.45L427.78 51.56L427.65 51.67L427.52 51.77L427.4 51.87L427.28 51.96L427.16 52.05L427.04 52.13L426.93 52.21L426.83 52.28L426.72 52.34L426.63 52.41L426.54 52.46L426.46 52.51L426.39 52.56L426.32 52.6L426.27 52.64L426.22 52.67L426.19 52.7L426.01 52.8L425.82 52.89L425.64 52.98L425.46 53.06L425.28 53.14L425.1 53.22L424.92 53.28L424.75 53.35L424.58 53.41L424.41 53.46L424.25 53.51L424.1 53.56L423.95 53.6L423.81 53.64L423.68 53.68L423.56 53.71L423.45 53.74L423.35 53.76L423.26 53.79L423.19 53.81L423.12 53.83L423.07 53.85L422.83 53.9L422.59 53.94L422.34 53.98L422.1 54.02L421.86 54.05L421.62 54.08L421.39 54.1L421.16 54.12L420.94 54.13L420.72 54.15L420.51 54.16L420.31 54.17L420.12 54.17L419.94 54.18L419.77 54.18L419.62 54.18L419.47 54.19L419.34 54.19L419.23 54.19L419.13 54.19L419.04 54.2L418.98 54.2L418.66 54.19L418.35 54.17L418.04 54.15L417.72 54.13L417.42 54.1L417.11 54.07L416.82 54.03L416.53 54L416.24 53.96L415.97 53.92L415.71 53.88L415.46 53.84L415.22 53.8L414.99 53.76L414.78 53.72L414.58 53.69L414.4 53.65L414.24 53.62L414.09 53.6L413.97 53.58L413.86 53.56L413.78 53.55L412.74 53.33L412.68 53.32L412.63 53.31L412.58 53.29L412.52 53.28L412.47 53.27L412.41 53.25L412.36 53.24L412.3 53.22L412.25 53.21L412.2 53.2L412.14 53.18L412.09 53.17L412.03 53.15L411.98 53.14L411.93 53.12L411.87 53.11L411.82 53.09L411.76 53.07L411.71 53.06L411.66 53.04L411.6 53.03L411.55 53.01L410.16 52.63L407.86 63.76L397.63 61.65L404.3 29.34L416.76 31.91L417.2 32ZM413.52 48.16L414.28 48.29L414.93 48.35L415.45 48.36L415.87 48.35L416.17 48.33L416.36 48.33L416.92 48.22L417.39 48.09L417.76 47.94L418.05 47.8L418.26 47.69L418.39 47.62L418.77 47.34L419.08 47.04L419.32 46.76L419.5 46.51L419.63 46.32L419.72 46.2L419.93 45.77L420.1 45.35L420.23 44.97L420.32 44.65L420.38 44.4L420.42 44.25L420.56 43.46L420.62 42.79L420.62 42.25L420.6 41.83L420.58 41.53L420.57 41.33L420.45 40.77L420.29 40.31L420.11 39.93L419.95 39.64L419.81 39.43L419.73 39.29L419.4 38.91L419.05 38.6L418.72 38.36L418.43 38.17L418.2 38.04L418.07 37.95L417.72 37.79L417.36 37.65L416.99 37.52L416.6 37.4L416.2 37.29L415.78 37.2L413.45 36.71L411.18 47.68L413.52 48.16Z" id="cq852ToF9"></path><path d="M498.29 43.37L547.94 82.63L493.74 151.11L444.1 111.85L498.29 43.37Z" id="aqDx2oHCj"></path><path d="M488.4 107.7L477.59 99.15L493.37 69.58L502.62 76.9L488.79 99.69L508.4 81.47L516.2 87.64L502.91 110.9L522.05 92.27L528.49 97.36L503.93 119.98L493.98 112.11L502.63 95.17L488.4 107.7Z" id="bCzqvHtgG"></path><path d="M454.25 17.81L501.74 42.93L471.09 101.04L423.6 75.91L454.25 17.81Z" id="g5S7TC7dc"></path><path d="M465.89 87.99L454.89 82.18L456.79 75.25L449.57 71.43L444.99 76.94L437.55 73.01L460.37 47.76L473.26 54.58L465.89 87.99ZM458.9 70.18L463.63 55.29L463 54.96L452.99 67.05L458.9 70.18Z" id="bckzRieZ"></path><path d="M551.92 82.38L581.56 118.3L530.94 160.12L501.3 124.2L551.92 82.38Z" id="f2nbmfjQB4"></path><path d="M550.68 130.11C550.22 128.85 549.71 127.82 549.6 127.57C548.99 126.28 548.39 125.28 548.25 125.03C547.52 123.79 546.88 123.05 546.73 122.83C545.33 121.13 544.37 120.77 544.11 120.54C542.9 119.94 542.1 120.76 541.87 120.79C541.39 121.19 541.34 121.73 541.28 121.83C541.2 122.46 541.37 123.18 541.38 123.33C541.57 124.21 541.91 125.11 541.97 125.3C542.26 126.04 542.57 126.84 542.92 127.71C543.32 128.71 543.54 129.26 543.59 129.37C544.45 131.44 544.7 132.94 544.82 133.33C545.21 135.24 544.98 136.58 545 136.94C544.78 138.64 544.04 139.84 543.93 140.17C543.1 141.68 541.76 142.7 541.52 142.98C539.68 144.51 538.05 144.96 537.66 145.18C535.65 145.84 533.96 145.47 533.55 145.5C531.45 145.15 529.69 143.88 529.26 143.7C527.08 142.26 525.28 139.95 524.84 139.54C522.85 137.13 521.64 134.92 521.28 134.41C520.24 132.61 519.38 130.63 518.7 128.46C522.25 125.53 524.23 123.89 524.62 123.57C525.36 126.86 526.4 128.92 526.6 129.51C527.86 132.15 529.3 133.79 529.6 134.26C531.05 136.02 532 136.14 532.27 136.35C533.49 136.69 534.26 135.92 534.49 135.87C535.08 135.38 535.17 134.85 535.24 134.74C535.44 134.09 535.25 133.29 535.25 133.13C535.06 132.17 534.62 131.04 534.55 130.81C534.05 129.45 533.39 127.89 533.27 127.56C532.48 125.67 532.2 124.19 532.09 123.82C531.72 121.97 531.92 120.6 531.9 120.25C532.09 118.51 532.83 117.26 532.93 116.92C533.77 115.33 535.16 114.27 535.41 113.98C537.09 112.59 538.62 112.22 538.98 112.03C540.88 111.47 542.49 111.89 542.89 111.87C544.9 112.26 546.58 113.5 546.99 113.68C549.11 115.1 550.82 117.29 551.25 117.69C552.09 118.71 552.78 119.71 552.95 119.94C553.82 121.16 554.45 122.25 554.61 122.51C555.44 123.86 555.96 124.99 556.11 125.26C556.56 126.2 556.94 127.13 557.25 128.05L551.46 132.37C550.99 131.02 550.73 130.26 550.68 130.11Z" id="eEuPrbohd"></path><path d="M71.84 365.62L88.28 425.34L30.66 441.18L14.23 381.46L71.84 365.62Z" id="g1rknS091r"></path><path d="M57.94 394.44L58.05 394.86L58.16 395.26L58.25 395.63L58.33 396L58.4 396.34L58.47 396.66L58.53 396.96L58.58 397.25L58.63 397.51L58.67 397.76L58.7 397.98L58.73 398.19L58.76 398.38L58.78 398.54L58.8 398.69L58.82 398.82L58.84 398.92L58.85 399.01L58.89 399.34L58.91 399.65L58.93 399.96L58.95 400.24L58.96 400.51L58.96 400.76L58.97 401L58.96 401.23L58.96 401.44L58.95 401.63L58.94 401.81L58.93 401.97L58.92 402.12L58.92 402.25L58.91 402.36L58.9 402.46L58.9 402.55L58.9 402.62L58.86 402.87L58.82 403.12L58.78 403.35L58.74 403.57L58.69 403.77L58.64 403.97L58.59 404.15L58.54 404.32L58.49 404.47L58.44 404.62L58.39 404.75L58.34 404.87L58.3 404.98L58.26 405.08L58.23 405.16L58.2 405.24L58.18 405.3L58.16 405.35L58.07 405.54L57.97 405.72L57.88 405.89L57.78 406.06L57.69 406.21L57.59 406.35L57.5 406.48L57.41 406.6L57.32 406.72L57.24 406.82L57.16 406.92L57.09 407.01L57.02 407.09L56.9 407.22L56.86 407.27L56.82 407.32L56.79 407.35L56.66 407.49L56.53 407.62L56.4 407.74L56.26 407.85L56.13 407.95L56.01 408.05L55.88 408.14L55.76 408.22L55.65 408.3L55.54 408.37L55.44 408.44L55.34 408.49L55.26 408.55L55.18 408.59L55.11 408.63L55.05 408.67L55 408.7L54.97 408.73L54.79 408.81L54.63 408.89L54.46 408.97L54.3 409.04L54.14 409.11L53.98 409.17L53.84 409.22L53.69 409.28L53.56 409.32L53.43 409.37L53.31 409.41L53.2 409.44L53.1 409.47L53.01 409.5L52.93 409.53L52.86 409.55L52.81 409.57L52.76 409.58L52.6 409.63L52.44 409.66L52.28 409.7L52.13 409.73L51.98 409.75L51.84 409.78L51.7 409.8L51.57 409.81L51.45 409.83L51.33 409.84L51.22 409.85L51.12 409.86L51.03 409.87L50.95 409.87L50.87 409.88L50.81 409.88L50.76 409.89L50.72 409.89L50.55 409.9L50.38 409.9L50.22 409.9L50.06 409.89L49.9 409.88L49.76 409.86L49.62 409.84L49.48 409.82L49.36 409.8L49.24 409.78L49.13 409.76L49.03 409.74L48.93 409.72L48.85 409.7L48.78 409.69L48.72 409.67L48.66 409.66L48.62 409.66L48.45 409.61L48.29 409.55L48.12 409.5L47.97 409.44L47.82 409.37L47.67 409.31L47.53 409.25L47.4 409.18L47.28 409.12L47.16 409.05L47.06 408.99L46.96 408.94L46.87 408.89L46.72 408.8L46.65 408.76L46.6 408.73L46.56 408.71L46.4 408.6L46.24 408.48L46.08 408.36L45.93 408.24L45.79 408.11L45.65 407.99L45.52 407.86L45.4 407.74L45.28 407.63L45.17 407.51L45.07 407.41L44.98 407.31L44.9 407.21L44.82 407.13L44.76 407.06L44.7 406.99L44.65 406.94L44.62 406.91L44.46 406.72L44.32 406.53L44.18 406.33L44.04 406.14L43.91 405.94L43.79 405.75L43.68 405.56L43.57 405.37L43.47 405.2L43.37 405.03L43.28 404.86L43.2 404.71L43.13 404.58L43.06 404.45L43 404.34L42.95 404.25L42.91 404.17L42.88 404.11L42.75 403.84L42.62 403.56L42.5 403.27L42.39 402.99L42.28 402.72L42.18 402.44L42.09 402.18L42 401.92L41.92 401.67L41.84 401.43L41.77 401.21L41.7 401L41.65 400.81L41.59 400.64L41.55 400.49L41.51 400.36L41.47 400.25L41.45 400.17L41.27 399.54L41.22 399.36L41.21 399.31L41.2 399.26L41.19 399.2L41.17 399.15L41.16 399.09L41.15 399.04L41.14 398.98L41.13 398.93L41.11 398.88L41.1 398.82L41.09 398.77L41.08 398.72L41.07 398.66L41.06 398.61L41.05 398.56L41.04 398.5L41.03 398.45L41.02 398.4L40.78 397.26L32.02 399.67L29.8 391.61L55.24 384.62L57.91 394.31L57.94 394.44ZM45.2 398.04L45.42 398.74L45.64 399.28L45.84 399.68L46.01 399.96L46.1 400.13L46.44 400.55L46.75 400.86L47.02 401.08L47.23 401.23L47.35 401.32L47.76 401.51L48.13 401.62L48.45 401.69L48.7 401.72L48.84 401.74L49.31 401.73L49.72 401.69L50.07 401.63L50.33 401.57L50.49 401.54L51.21 401.31L51.77 401.07L52.17 400.85L52.45 400.68L52.63 400.58L53.04 400.23L53.34 399.89L53.54 399.6L53.68 399.36L53.76 399.23L53.94 398.78L54.04 398.36L54.09 398L54.1 397.73L54.12 397.56L54.1 397.2L54.06 396.83L54.01 396.45L53.93 396.06L53.83 395.67L53.32 393.82L44.69 396.19L45.2 398.04Z" id="b3Rmo6gwJ"></path><path d="M80.06 407.73L101.54 449.07L48.51 476.63L27.04 435.3L80.06 407.73Z" id="aqxyPtEdw"></path><path d="M76.35 446.23L72.01 448.49L67.33 439.48L62.38 442.05L66.51 450L62.27 452.2L58.14 444.26L53.03 446.92L57.71 455.92L52.94 458.4L44.41 441.98L67.81 429.81L76.35 446.23Z" id="b2Xl89QQOr"></path><path d="M93.35 441.18L123.43 478.82L63.75 526.51L33.67 488.86L93.35 441.18Z" id="b3U5rZYrTC"></path><path d="M82.71 471.31L78.98 466.65L83.73 462.85L96.49 478.81L91.73 482.61L87.93 477.84L72.07 490.51L66.85 483.99L82.71 471.31Z" id="h1t64Hday"></path><path d="M135.65 481.91L167.09 516.2L110.75 567.88L79.31 533.58L135.65 481.91Z" id="a5GY2PBl"></path><path d="M123.79 511.24C126.45 510.37 128.56 510.67 129.08 510.61C131.73 510.85 133.67 511.96 134.18 512.11C136.64 513.38 138.16 515.19 138.6 515.53C139.98 517.03 140.86 518.51 141.11 518.85C141.87 520.06 142.47 521.41 142.9 522.9C139.8 524.81 138.07 525.87 137.72 526.08C137.27 524.27 136.64 523.11 136.52 522.78C135.76 521.29 135.02 520.55 134.86 520.3C133.76 519.11 132.73 518.7 132.49 518.52C131.24 517.93 130.15 518.01 129.89 517.95C128.54 517.97 127.43 518.52 127.16 518.58C125.78 519.21 124.72 520.25 124.45 520.43C123.11 521.66 122.58 522.72 122.37 522.97C121.64 524.3 121.59 525.38 121.5 525.64C121.36 526.98 121.8 528.03 121.84 528.3C122.32 529.6 123.26 530.55 123.42 530.8C124.33 531.79 125.51 532.48 125.74 532.67C126.68 533.25 127.74 533.75 128.92 534.15C126.75 537.09 125.55 538.71 125.3 539.04C123.15 538.18 121.85 537.08 121.46 536.87C119.77 535.56 118.7 534.35 118.39 534.07C116.42 531.92 115.66 529.85 115.36 529.38C114.31 526.82 114.39 524.71 114.28 524.19C114.26 521.55 115.24 519.5 115.35 518.98C116.08 517.28 117.23 515.71 118.8 514.27C121.79 512.45 123.46 511.44 123.79 511.24Z" id="a6brtM90J"></path><path d="M160.24 510.63L199.61 538.42L161.18 592.88L121.8 565.09L160.24 510.63Z" id="b2UzvlGqBf"></path><path d="M162.78 570.48L154.64 564.73L156.87 559.43L151.52 555.66L147.32 559.57L141.82 555.69L162.52 538.01L172.06 544.74L162.78 570.48ZM159.06 555.63L164.35 544.32L163.87 543.98L154.7 552.55L159.06 555.63Z" id="d9Bxsagfm"></path><path d="M189.74 535.84L239.6 557.09L215.76 613.01L165.89 591.77L189.74 535.84Z" id="bj2YyqBd"></path><path d="M205.55 565.46L205.88 565.61L206.19 565.77L206.49 565.92L206.77 566.07L207.04 566.23L207.29 566.38L207.52 566.52L207.75 566.67L207.96 566.81L208.15 566.94L208.33 567.07L208.5 567.2L208.66 567.31L208.8 567.42L208.93 567.53L209.05 567.62L209.16 567.71L209.25 567.78L209.34 567.85L209.41 567.9L209.48 567.94L209.7 568.15L209.91 568.35L210.11 568.55L210.29 568.75L210.46 568.94L210.62 569.13L210.78 569.31L210.91 569.49L211.04 569.66L211.16 569.82L211.27 569.98L211.37 570.13L211.47 570.27L211.55 570.41L211.63 570.53L211.7 570.65L211.76 570.76L211.82 570.85L211.87 570.94L211.92 571.01L211.96 571.07L211.99 571.12L212.1 571.35L212.2 571.57L212.3 571.79L212.38 572L212.45 572.2L212.52 572.4L212.57 572.59L212.62 572.78L212.67 572.96L212.71 573.13L212.74 573.3L212.77 573.45L212.79 573.6L212.81 573.74L212.83 573.87L212.85 573.99L212.86 574.1L212.87 574.2L212.88 574.29L212.89 574.36L212.9 574.43L212.92 574.48L212.92 574.7L212.92 574.92L212.91 575.13L212.9 575.33L212.88 575.53L212.86 575.72L212.83 575.9L212.8 576.07L212.77 576.24L212.74 576.39L212.7 576.54L212.66 576.68L212.62 576.81L212.59 576.93L212.55 577.05L212.52 577.15L212.49 577.24L212.46 577.33L212.43 577.41L212.41 577.47L212.4 577.53L212.38 577.58L212.32 577.73L212.25 577.87L212.19 578.02L212.12 578.15L212.05 578.29L211.98 578.41L211.92 578.54L211.85 578.65L211.79 578.77L211.73 578.87L211.67 578.98L211.61 579.07L211.55 579.16L211.5 579.25L211.45 579.33L211.4 579.4L211.36 579.47L211.32 579.53L211.29 579.58L211.26 579.62L211.24 579.66L211.22 579.7L211.12 579.83L211.03 579.96L210.93 580.08L210.84 580.19L210.74 580.3L210.64 580.41L210.55 580.51L210.46 580.61L210.37 580.7L210.28 580.78L210.19 580.86L210.11 580.94L210.03 581.01L209.95 581.07L209.88 581.14L209.82 581.19L209.76 581.24L209.7 581.29L209.65 581.33L209.61 581.36L209.58 581.39L209.55 581.42L209.42 581.52L209.28 581.6L209.15 581.69L209.01 581.77L208.88 581.84L208.74 581.91L208.61 581.98L208.48 582.04L208.36 582.09L208.24 582.14L208.12 582.19L208 582.24L207.89 582.28L207.79 582.31L207.69 582.35L207.6 582.38L207.52 582.4L207.45 582.43L207.38 582.45L207.33 582.47L207.28 582.49L207.24 582.5L207.06 582.55L206.88 582.59L206.7 582.62L206.52 582.65L206.35 582.67L206.17 582.69L206 582.7L205.83 582.71L205.66 582.72L205.5 582.72L205.35 582.72L205.2 582.72L205.05 582.72L204.92 582.72L204.79 582.71L204.68 582.71L204.57 582.7L204.47 582.7L204.39 582.69L204.31 582.69L204.25 582.69L204.2 582.69L204.19 582.8L204.18 582.92L204.18 583.04L204.17 583.15L204.17 583.27L204.16 583.39L204.16 583.51L204.16 583.63L204.16 583.75L204.17 583.86L204.17 583.97L204.17 584.08L204.17 584.18L204.18 584.28L204.18 584.37L204.18 584.45L204.19 584.53L204.19 584.6L204.19 584.66L204.19 584.72L204.2 584.76L204.2 584.8L204.21 584.97L204.22 585.15L204.23 585.32L204.24 585.49L204.26 585.66L204.27 585.83L204.29 585.99L204.3 586.14L204.32 586.3L204.33 586.45L204.34 586.59L204.36 586.72L204.37 586.85L204.38 586.97L204.4 587.09L204.41 587.19L204.42 587.29L204.43 587.38L204.43 587.46L204.44 587.52L204.45 587.58L204.45 587.62L204.48 587.83L204.5 588.04L204.52 588.24L204.55 588.44L204.57 588.63L204.6 588.82L204.62 589L204.65 589.18L204.67 589.35L204.69 589.52L204.71 589.68L204.73 589.83L204.75 589.97L204.77 590.11L204.79 590.23L204.81 590.35L204.83 590.55L204.85 590.64L204.86 590.71L204.86 590.77L204.87 590.82L204.89 590.97L204.92 591.13L204.94 591.28L204.96 591.43L204.98 591.58L205 591.72L205.03 591.87L205.05 592.02L205.07 592.17L205.09 592.32L205.12 592.46L205.14 592.61L205.16 592.76L205.18 592.9L205.2 593.05L205.23 593.19L205.25 593.34L205.27 593.48L205.29 593.62L205.32 593.77L205.34 593.91L205.36 594.05L196.57 590.31L196.57 590.04L196.57 589.77L196.57 589.5L196.57 589.24L196.57 588.98L196.57 588.73L196.58 588.48L196.58 588.23L196.59 588L196.59 587.77L196.6 587.55L196.6 587.34L196.61 587.14L196.62 586.95L196.62 586.77L196.63 586.61L196.63 586.46L196.64 586.32L196.64 586.2L196.65 586.1L196.65 586.01L196.65 585.94L196.66 585.72L196.67 585.5L196.69 585.28L196.71 585.06L196.73 584.84L196.75 584.61L196.77 584.39L196.79 584.16L196.82 583.93L196.85 583.71L196.88 583.48L196.91 583.25L196.95 583.02L196.98 582.79L197.02 582.55L197.06 582.32L197.1 582.09L197.14 581.85L197.19 581.62L197.24 581.38L197.29 581.14L197.34 580.9L195.14 579.97L191.63 588.2L183.94 584.93L194.29 560.66L205.2 565.31L205.55 565.46ZM198.09 576.68L200.43 577.27L201.01 577.26L201.48 577.2L201.86 577.12L202.12 577.05L202.29 577.01L202.72 576.8L203.06 576.58L203.32 576.38L203.51 576.21L203.62 576.11L203.91 575.77L204.13 575.46L204.29 575.18L204.39 574.98L204.46 574.85L204.74 574.11L204.89 573.5L204.97 573.02L205 572.68L205.03 572.48L204.98 571.92L204.87 571.46L204.75 571.11L204.63 570.85L204.57 570.7L204.28 570.28L203.98 569.94L203.7 569.68L203.48 569.5L203.34 569.39L203.02 569.18L202.68 568.98L202.33 568.78L201.96 568.6L201.58 568.43L200.29 567.88L196.78 576.12L198.09 576.68Z" id="i916B2nsTC"></path><path d="M219.93 552.94L265.36 563.17L253.81 614.43L208.38 604.2L219.93 552.94Z" id="a3PBlc60QM"></path><path d="M246.95 580.6L245.88 585.37L235.98 583.14L234.75 588.58L243.49 590.54L242.44 595.2L233.7 593.24L232.44 598.86L242.34 601.09L241.16 606.33L223.1 602.27L228.9 576.53L246.95 580.6Z" id="cScI0SZXr"></path><path d="M365.83 568.5L420.03 550.87L437.4 604.23L383.21 621.87L365.83 568.5Z" id="l11wa8C7yl"></path><path d="M403.69 584.81C402.63 584.78 401.7 584.86 401.48 584.87C400.34 584.94 399.43 585.11 399.21 585.13C398.07 585.31 397.32 585.57 397.11 585.62C395.44 586.16 394.89 586.77 394.64 586.89C393.84 587.63 394.22 588.46 394.17 588.64C394.32 589.12 394.7 589.31 394.76 589.38C395.22 589.63 395.81 589.72 395.92 589.75C396.63 589.86 397.39 589.87 397.56 589.89C398.19 589.89 398.88 589.89 399.63 589.88C400.49 589.87 400.97 589.87 401.06 589.87C402.86 589.83 404.05 590.09 404.38 590.12C405.9 590.39 406.83 590.96 407.1 591.06C408.31 591.7 408.98 592.6 409.19 592.77C410.07 593.84 410.44 595.14 410.58 595.4C411.17 597.23 411.03 598.57 411.08 598.93C410.99 600.6 410.21 601.75 410.12 602.07C409.24 603.53 407.77 604.47 407.51 604.74C405.81 605.94 403.57 606.6 403.13 606.81C400.75 607.59 398.75 607.85 398.26 607.96C396.62 608.21 394.89 608.27 393.08 608.14C391.94 604.63 391.3 602.68 391.18 602.28C393.85 602.71 395.67 602.53 396.17 602.56C398.51 602.39 400.16 601.79 400.6 601.71C402.32 601.15 402.69 600.48 402.92 600.34C403.54 599.53 403.2 598.74 403.23 598.56C403.04 597.97 402.66 597.75 402.6 597.66C402.18 597.33 401.53 597.24 401.41 597.19C400.65 597.04 399.68 597.04 399.49 597.03C398.32 597 396.96 597.02 396.68 597.02C395.05 597.06 393.86 596.82 393.55 596.8C392.07 596.54 391.11 595.99 390.84 595.9C389.61 595.24 388.88 594.33 388.67 594.15C387.74 593.06 387.36 591.72 387.22 591.45C386.67 589.78 386.85 588.53 386.81 588.21C386.94 586.63 387.73 585.56 387.83 585.26C388.71 583.88 390.13 582.98 390.38 582.73C392.06 581.57 394.19 580.94 394.62 580.74C395.63 580.41 396.58 580.19 396.79 580.13C397.96 579.85 398.95 579.69 399.19 579.65C400.43 579.44 401.43 579.37 401.68 579.34C402.51 579.28 403.31 579.27 404.08 579.31L405.6 584.89C404.46 584.84 403.82 584.82 403.69 584.81Z" id="aZphMlmdX"></path><path d="M408.4 558.47L453.07 535.79L475.15 579.23L430.47 601.91L408.4 558.47Z" id="aetgUas1d"></path><path d="M446.86 562.55L449.08 566.91L440.03 571.5L442.56 576.47L450.54 572.42L452.7 576.68L444.72 580.73L447.33 585.87L456.38 581.28L458.82 586.07L442.31 594.44L430.36 570.93L446.86 562.55Z" id="a1ItkLZSL0"></path><path d="M443.26 542.06L488.36 507.2L525.96 555.86L480.87 590.72L443.26 542.06Z" id="a26HTmMQU"></path><path d="M485.41 539.88L485.64 539.91L485.87 539.94L486.08 539.98L486.29 540.02L486.49 540.06L486.67 540.11L486.85 540.16L487.02 540.21L487.18 540.26L487.33 540.31L487.47 540.36L487.6 540.41L487.73 540.46L487.84 540.51L487.94 540.55L488.03 540.58L488.11 540.62L488.19 540.65L488.25 540.67L488.3 540.68L488.5 540.79L488.69 540.89L488.87 541L489.04 541.11L489.2 541.22L489.35 541.34L489.5 541.45L489.63 541.56L489.76 541.67L489.88 541.77L489.99 541.88L490.1 541.98L490.19 542.07L490.28 542.17L490.36 542.25L490.44 542.33L490.5 542.41L490.56 542.47L490.62 542.53L490.67 542.58L490.71 542.63L490.74 542.66L490.84 542.79L490.94 542.92L491.03 543.05L491.12 543.17L491.2 543.29L491.28 543.41L491.35 543.53L491.42 543.65L491.49 543.76L491.55 543.86L491.61 543.97L491.67 544.07L491.72 544.16L491.77 544.25L491.81 544.33L491.86 544.4L491.89 544.47L491.93 544.53L491.96 544.59L491.98 544.64L492.01 544.68L492.02 544.71L492.09 544.86L492.16 545L492.22 545.15L492.27 545.29L492.32 545.42L492.37 545.56L492.41 545.69L492.45 545.82L492.48 545.94L492.51 546.06L492.54 546.18L492.57 546.29L492.59 546.39L492.61 546.49L492.63 546.58L492.64 546.66L492.66 546.74L492.67 546.81L492.68 546.87L492.69 546.93L492.7 546.97L492.71 547.01L492.73 547.17L492.74 547.33L492.75 547.49L492.76 547.65L492.75 547.8L492.75 547.95L492.74 548.1L492.73 548.24L492.72 548.38L492.7 548.51L492.69 548.64L492.67 548.76L492.65 548.87L492.63 548.98L492.62 549.08L492.6 549.17L492.58 549.26L492.57 549.33L492.56 549.4L492.55 549.46L492.54 549.51L492.53 549.55L492.49 549.73L492.43 549.91L492.37 550.08L492.31 550.25L492.24 550.41L492.17 550.58L492.1 550.73L492.03 550.89L491.95 551.04L491.88 551.18L491.8 551.31L491.73 551.44L491.65 551.57L491.59 551.68L491.52 551.79L491.46 551.89L491.4 551.98L491.35 552.06L491.3 552.14L491.27 552.2L491.24 552.25L491.21 552.3L491.31 552.36L491.4 552.42L491.5 552.49L491.6 552.55L491.71 552.61L491.81 552.67L491.91 552.73L492.01 552.79L492.12 552.84L492.22 552.9L492.31 552.95L492.41 553L492.5 553.05L492.59 553.09L492.67 553.13L492.74 553.17L492.81 553.21L492.88 553.24L492.93 553.27L492.98 553.29L493.02 553.31L493.05 553.33L493.21 553.4L493.37 553.48L493.52 553.55L493.68 553.62L493.83 553.7L493.98 553.76L494.13 553.83L494.28 553.89L494.42 553.96L494.55 554.02L494.68 554.07L494.81 554.13L494.93 554.18L495.04 554.23L495.15 554.27L495.24 554.31L495.33 554.35L495.41 554.39L495.49 554.42L495.55 554.44L495.6 554.47L495.64 554.48L495.83 554.57L496.02 554.64L496.21 554.72L496.4 554.8L496.58 554.87L496.76 554.94L496.93 555.01L497.1 555.08L497.26 555.14L497.41 555.2L497.56 555.26L497.7 555.32L497.84 555.37L497.97 555.42L498.08 555.46L498.19 555.51L498.29 555.55L498.38 555.58L498.46 555.61L498.53 555.64L498.59 555.66L498.64 555.68L498.78 555.73L498.92 555.79L499.07 555.84L499.21 555.9L499.35 555.95L499.49 556L499.63 556.06L499.77 556.11L499.91 556.16L500.05 556.22L500.19 556.27L500.33 556.32L500.47 556.37L500.6 556.42L500.74 556.48L500.88 556.53L501.02 556.58L501.15 556.63L501.29 556.68L501.43 556.73L501.56 556.78L501.7 556.83L494.14 562.67L493.9 562.54L493.67 562.41L493.43 562.28L493.21 562.16L492.98 562.03L492.76 561.9L492.54 561.77L492.33 561.65L492.13 561.53L491.93 561.41L491.74 561.3L491.56 561.19L491.39 561.09L491.23 560.99L491.08 560.9L490.93 560.82L490.81 560.74L490.69 560.67L490.59 560.61L490.5 560.55L490.42 560.51L490.36 560.47L490.18 560.36L489.99 560.24L489.81 560.12L489.62 559.99L489.44 559.87L489.25 559.74L489.07 559.61L488.88 559.48L488.7 559.35L488.51 559.21L488.33 559.07L488.14 558.93L487.96 558.79L487.77 558.64L487.59 558.5L487.4 558.35L487.22 558.2L487.04 558.05L486.85 557.89L486.67 557.73L486.49 557.57L486.3 557.41L484.41 558.87L489.89 565.96L483.28 571.07L467.14 550.2L476.53 542.94L476.83 542.71L477.13 542.5L477.41 542.3L477.69 542.12L477.96 541.95L478.23 541.79L478.48 541.64L478.72 541.51L478.96 541.38L479.18 541.27L479.39 541.16L479.6 541.07L479.79 540.98L479.97 540.9L480.13 540.83L480.29 540.77L480.43 540.71L480.55 540.66L480.67 540.61L480.76 540.57L480.85 540.53L480.91 540.49L481.2 540.4L481.48 540.32L481.75 540.24L482.01 540.18L482.27 540.12L482.51 540.07L482.74 540.03L482.96 539.99L483.18 539.96L483.38 539.94L483.57 539.92L483.75 539.91L483.92 539.89L484.08 539.89L484.23 539.88L484.36 539.88L484.49 539.87L484.6 539.87L484.7 539.87L484.78 539.86L484.86 539.86L484.92 539.85L485.17 539.86L485.41 539.88ZM479.98 546.26L479.61 546.38L479.34 546.49L479.18 546.55L478.84 546.73L478.5 546.93L478.16 547.14L477.83 547.37L477.49 547.62L476.38 548.48L481.86 555.57L482.98 554.7L484.64 552.94L484.92 552.43L485.1 551.99L485.21 551.63L485.27 551.36L485.32 551.19L485.35 550.72L485.33 550.31L485.27 549.98L485.22 549.74L485.19 549.59L485.03 549.17L484.86 548.83L484.7 548.56L484.57 548.36L484.5 548.24L483.98 547.64L483.53 547.2L483.15 546.91L482.87 546.71L482.7 546.59L482.19 546.36L481.74 546.23L481.37 546.17L481.09 546.14L480.93 546.12L480.42 546.17L479.98 546.26Z" id="f1cgGEPzlQ"></path><path d="M478.04 513.65L522.84 468.89L571.54 517.6L526.75 562.35L478.04 513.65Z" id="g4o2wXPAlv"></path><path d="M507.84 513.63L524.48 524.83L513.75 507.72L518.4 503.08L532 526.78L523.96 534.81L500.66 520.8L507.84 513.63Z" id="b88lV6u0II"></path><path d="M506.67 486.19L549.81 429.7L605.62 472.35L562.48 528.84L506.67 486.19Z" id="b4mF6Jx0H"></path><path d="M536.93 481.25L557.89 497.27L552.81 503.91L531.85 487.89L536.93 481.25Z" id="agEQBNya8"></path><path d="M522.37 473.64L550.47 413.1L618.99 444.91L590.89 505.46L522.37 473.64Z" id="a2ERDnKsWX"></path><path d="M554.01 473.34C552.18 471.21 551.65 469.15 551.39 468.69C550.59 466.16 550.88 463.93 550.82 463.4C551.05 460.65 552.13 458.55 552.27 458.01C553.13 456.16 554.16 454.78 554.37 454.42C555.2 453.25 556.22 452.18 557.43 451.21C560.38 453.34 562.02 454.53 562.35 454.77C560.85 455.88 560.03 456.91 559.77 457.15C558.69 458.42 558.29 459.39 558.12 459.63C557.44 461.11 557.46 462.22 557.39 462.5C557.32 463.89 557.81 464.86 557.86 465.13C558.39 466.36 559.33 467.18 559.49 467.41C560.6 468.44 561.97 469.02 562.24 469.2C563.88 469.96 565.07 470.05 565.38 470.14C566.89 470.31 567.9 469.94 568.18 469.92C569.47 469.53 570.27 468.72 570.5 468.59C571.52 467.64 572.03 466.41 572.2 466.17C572.77 464.95 572.95 463.59 573.04 463.31C573.21 462.21 573.26 461.04 573.18 459.8C576.72 460.68 578.69 461.17 579.08 461.26C579.12 463.58 578.61 465.21 578.55 465.64C578 467.71 577.29 469.17 577.15 469.56C575.92 472.2 574.3 473.7 573.99 474.16C572.03 476.11 570.05 476.85 569.62 477.15C567.18 478.18 564.92 478.06 564.4 478.16C562.54 478.14 560.65 477.68 558.72 476.78C555.89 474.71 554.32 473.57 554.01 473.34Z" id="d4eZNOin10"></path><path d="M542.56 442.27L562.04 383.49L627.44 405.15L607.96 463.93L542.56 442.27Z" id="gCFknm2wt"></path><path d="M572.75 418.09L577.39 419.63L574.19 429.26L579.49 431.02L582.31 422.52L586.84 424.02L584.02 432.52L589.5 434.33L592.69 424.7L597.79 426.39L591.97 443.95L566.92 435.66L572.75 418.09Z" id="hEcgF8uCB"></path><path d="M557.25 410.51L568.2 344.66L620.39 353.31L609.45 419.16L557.25 410.51Z" id="b6Lp9ZcuW"></path><path d="M590.4 384.79C589.89 385.73 589.53 386.58 589.43 386.78C588.97 387.82 588.7 388.71 588.62 388.92C588.25 390.01 588.14 390.8 588.09 391.01C587.8 392.74 588.08 393.51 588.08 393.78C588.36 394.83 589.27 394.88 589.41 395.01C589.9 395.09 590.25 394.84 590.35 394.82C590.77 394.53 591.12 394.05 591.21 393.96C591.62 393.39 591.99 392.71 592.08 392.58C592.37 392.02 592.69 391.4 593.03 390.73C593.42 389.96 593.63 389.54 593.68 389.45C594.47 387.85 595.26 386.91 595.43 386.63C596.37 385.4 597.31 384.84 597.52 384.65C598.65 383.87 599.76 383.69 600.01 383.58C601.36 383.3 602.68 383.57 602.98 383.56C604.87 383.88 606 384.63 606.34 384.74C607.78 385.59 608.44 386.81 608.68 387.04C609.57 388.5 609.73 390.23 609.85 390.58C610.13 392.65 609.68 394.95 609.67 395.43C609.26 397.9 608.57 399.79 608.45 400.28C607.91 401.85 607.16 403.41 606.21 404.96C602.57 404.35 600.54 404.02 600.14 403.95C601.75 401.78 602.43 400.08 602.69 399.65C603.61 397.49 603.85 395.75 603.97 395.32C604.27 393.54 603.85 392.9 603.83 392.63C603.4 391.71 602.53 391.65 602.39 391.54C601.78 391.44 601.41 391.67 601.31 391.68C600.82 391.9 600.43 392.44 600.33 392.52C599.86 393.13 599.41 393.99 599.31 394.15C598.74 395.17 598.14 396.39 598.01 396.64C597.29 398.11 596.53 399.05 596.37 399.32C595.45 400.51 594.52 401.11 594.32 401.3C593.16 402.1 592.02 402.32 591.77 402.43C590.37 402.75 589 402.47 588.7 402.47C586.97 402.19 585.94 401.45 585.63 401.34C584.3 400.49 583.71 399.3 583.49 399.08C582.67 397.65 582.52 395.99 582.42 395.64C582.17 393.62 582.59 391.44 582.61 390.97C582.78 389.92 583.02 388.98 583.07 388.76C583.36 387.59 583.68 386.64 583.74 386.41C584.13 385.21 584.54 384.29 584.63 384.06C584.95 383.29 585.31 382.58 585.7 381.91L591.36 383.13C590.79 384.13 590.47 384.68 590.4 384.79Z" id="f5KCTmSzBa"></path><path d="M175.36 26.13L228.95 6.88L254.08 77.01L200.49 96.27L175.36 26.13Z" id="bevpunB74"></path><path d="M235.57 64.64L223.63 68.93L215.49 58.65L214.38 72.25L205.37 75.49L207.56 57.26L194.25 44.44L206.19 40.15L214.87 49.46L216.02 36.61L224.45 33.59L222.31 51.96L235.57 64.64Z" id="bChT3Nxro"></path></defs><g><g><g><use xlink:href="#a8ischG0hm" opacity="1" fill="#000000" fill-opacity="0"></use><g><use xlink:href="#a8ischG0hm" opacity="1" fill-opacity="0" stroke="#000000" stroke-width="1" stroke-opacity="0"></use></g></g><g><use xlink:href="#a8156Dcvf" opacity="1" fill="url(#gradientf2oOBtYjzw)"></use><g><use xlink:href="#a8156Dcvf" opacity="1" fill-opacity="0" stroke="#000000" stroke-width="1" stroke-opacity="0"></use></g></g><g><use xlink:href="#j4hg4kXZ4V" opacity="1" fill="url(#gradienta1rwR1OoSB)"></use><g><use xlink:href="#j4hg4kXZ4V" opacity="1" fill-opacity="0" stroke="#000000" stroke-width="1" stroke-opacity="0"></use></g></g><g><use xlink:href="#dADhsv5VY" opacity="1" fill="#000000" fill-opacity="0"></use><g><use xlink:href="#dADhsv5VY" opacity="1" fill-opacity="0" stroke="#000000" stroke-width="8" stroke-opacity="1"></use></g></g><g><use xlink:href="#i45I39zEcY" opacity="1" fill="#000000" fill-opacity="0"></use><g><use xlink:href="#i45I39zEcY" opacity="1" fill-opacity="0" stroke="#000000" stroke-width="1" stroke-opacity="0"></use></g></g><g><use xlink:href="#b1t5I1hTOM" opacity="1" fill="#000000" fill-opacity="0"></use><g><use xlink:href="#b1t5I1hTOM" opacity="1" fill-opacity="0" stroke="#000000" stroke-width="8" stroke-opacity="1"></use></g></g><g><use xlink:href="#e1DYSD5Hsu" opacity="1" fill="#000000" fill-opacity="0"></use><g><use xlink:href="#e1DYSD5Hsu" opacity="1" fill-opacity="0" stroke="#000000" stroke-width="1" stroke-opacity="0"></use></g></g><g><use xlink:href="#baG871axp" opacity="1" fill="#000000" fill-opacity="0"></use><g><use xlink:href="#baG871axp" opacity="1" fill-opacity="0" stroke="#000000" stroke-width="8" stroke-opacity="1"></use></g></g><g><use xlink:href="#g6S7Wy0l" opacity="1" fill="url(#gradientbgeQlUn3U)"></use><g><use xlink:href="#g6S7Wy0l" opacity="1" fill-opacity="0" stroke="#000000" stroke-width="1" stroke-opacity="0"></use></g></g><g><use xlink:href="#c14InBjS2a" opacity="1" fill="#000000" fill-opacity="0"></use><g><use xlink:href="#c14InBjS2a" opacity="1" fill-opacity="0" stroke="#000000" stroke-width="4" stroke-opacity="1"></use></g></g><g><use xlink:href="#c2V5oizmJd" opacity="1" fill="url(#gradienthhOPw5bvp)"></use><g><use xlink:href="#c2V5oizmJd" opacity="1" fill-opacity="0" stroke="#000000" stroke-width="1" stroke-opacity="0"></use></g></g><g><use xlink:href="#aJhOZPT4" opacity="1" fill="#000000" fill-opacity="0"></use><g><use xlink:href="#aJhOZPT4" opacity="1" fill-opacity="0" stroke="#000000" stroke-width="4" stroke-opacity="1"></use></g></g><g><use xlink:href="#aEjsVerB" opacity="1" fill="url(#gradientcnHxYcNb3)"></use><g><use xlink:href="#aEjsVerB" opacity="1" fill-opacity="0" stroke="#000000" stroke-width="1" stroke-opacity="0"></use></g></g><g><use xlink:href="#a1skqpo7HH" opacity="1" fill="#000000" fill-opacity="0"></use><g><use xlink:href="#a1skqpo7HH" opacity="1" fill-opacity="0" stroke="#000000" stroke-width="4" stroke-opacity="1"></use></g></g><g><use xlink:href="#b14mMsklZ9" opacity="1" fill="url(#gradientb9rBtvHvi)"></use><g><use xlink:href="#b14mMsklZ9" opacity="1" fill-opacity="0" stroke="#000000" stroke-width="1" stroke-opacity="0"></use></g></g><g><use xlink:href="#b21e1oTyEJ" opacity="1" fill="#000000" fill-opacity="0"></use><g><use xlink:href="#b21e1oTyEJ" opacity="1" fill-opacity="0" stroke="#000000" stroke-width="4" stroke-opacity="1"></use></g></g><g><use xlink:href="#h8MK0q2YQ" opacity="1" fill="url(#gradientbHyqMxR3h)"></use><g><use xlink:href="#h8MK0q2YQ" opacity="1" fill-opacity="0" stroke="#000000" stroke-width="1" stroke-opacity="0"></use></g></g><g><use xlink:href="#iye00tmpa" opacity="1" fill="#000000" fill-opacity="0"></use><g><use xlink:href="#iye00tmpa" opacity="1" fill-opacity="0" stroke="#000000" stroke-width="3" stroke-opacity="1"></use></g></g><g><use xlink:href="#b1BcyFvQJ0" opacity="1" fill="#000000" fill-opacity="0"></use><g><use xlink:href="#b1BcyFvQJ0" opacity="1" fill-opacity="0" stroke="#000000" stroke-width="1" stroke-opacity="0"></use></g></g><g><use xlink:href="#a4rIzPesNW" opacity="1" fill="#000000" fill-opacity="1"></use><g><use xlink:href="#a4rIzPesNW" opacity="1" fill-opacity="0" stroke="#000000" stroke-width="1" stroke-opacity="0"></use></g></g><g><use xlink:href="#b3wL1GolF" opacity="1" fill="#000000" fill-opacity="0"></use><g><use xlink:href="#b3wL1GolF" opacity="1" fill-opacity="0" stroke="#000000" stroke-width="1" stroke-opacity="0"></use></g></g><g><use xlink:href="#afH9tuFHJ" opacity="1" fill="#000000" fill-opacity="1"></use><g><use xlink:href="#afH9tuFHJ" opacity="1" fill-opacity="0" stroke="#000000" stroke-width="1" stroke-opacity="0"></use></g></g><g><use xlink:href="#b3BLr1uo" opacity="1" fill="#000000" fill-opacity="0"></use><g><use xlink:href="#b3BLr1uo" opacity="1" fill-opacity="0" stroke="#000000" stroke-width="1" stroke-opacity="0"></use></g></g><g><use xlink:href="#be1Ifm3rG" opacity="1" fill="#222222" fill-opacity="1"></use><g><use xlink:href="#be1Ifm3rG" opacity="1" fill-opacity="0" stroke="#000000" stroke-width="1" stroke-opacity="0"></use></g></g><g><use xlink:href="#a8eUUKUfgA" opacity="1" fill="#000000" fill-opacity="0"></use><g><use xlink:href="#a8eUUKUfgA" opacity="1" fill-opacity="0" stroke="#000000" stroke-width="1" stroke-opacity="0"></use></g></g><g><use xlink:href="#c5YlSSZdbV" opacity="1" fill="#222222" fill-opacity="1"></use><g><use xlink:href="#c5YlSSZdbV" opacity="1" fill-opacity="0" stroke="#000000" stroke-width="1" stroke-opacity="0"></use></g></g><g><use xlink:href="#h1gLARmq7" opacity="1" fill="#000000" fill-opacity="0"></use><g><use xlink:href="#h1gLARmq7" opacity="1" fill-opacity="0" stroke="#000000" stroke-width="1" stroke-opacity="0"></use></g></g><g><use xlink:href="#cq852ToF9" opacity="1" fill="#000000" fill-opacity="1"></use><g><use xlink:href="#cq852ToF9" opacity="1" fill-opacity="0" stroke="#000000" stroke-width="1" stroke-opacity="0"></use></g></g><g><use xlink:href="#aqDx2oHCj" opacity="1" fill="#000000" fill-opacity="0"></use><g><use xlink:href="#aqDx2oHCj" opacity="1" fill-opacity="0" stroke="#000000" stroke-width="1" stroke-opacity="0"></use></g></g><g><use xlink:href="#bCzqvHtgG" opacity="1" fill="#000000" fill-opacity="1"></use><g><use xlink:href="#bCzqvHtgG" opacity="1" fill-opacity="0" stroke="#000000" stroke-width="1" stroke-opacity="0"></use></g></g><g><use xlink:href="#g5S7TC7dc" opacity="1" fill="#000000" fill-opacity="0"></use><g><use xlink:href="#g5S7TC7dc" opacity="1" fill-opacity="0" stroke="#000000" stroke-width="1" stroke-opacity="0"></use></g></g><g><use xlink:href="#bckzRieZ" opacity="1" fill="#000000" fill-opacity="1"></use><g><use xlink:href="#bckzRieZ" opacity="1" fill-opacity="0" stroke="#000000" stroke-width="1" stroke-opacity="0"></use></g></g><g><use xlink:href="#f2nbmfjQB4" opacity="1" fill="#000000" fill-opacity="0"></use><g><use xlink:href="#f2nbmfjQB4" opacity="1" fill-opacity="0" stroke="#000000" stroke-width="1" stroke-opacity="0"></use></g></g><g><use xlink:href="#eEuPrbohd" opacity="1" fill="#000000" fill-opacity="1"></use><g><use xlink:href="#eEuPrbohd" opacity="1" fill-opacity="0" stroke="#000000" stroke-width="1" stroke-opacity="0"></use></g></g><g><use xlink:href="#g1rknS091r" opacity="1" fill="#000000" fill-opacity="0"></use><g><use xlink:href="#g1rknS091r" opacity="1" fill-opacity="0" stroke="#000000" stroke-width="1" stroke-opacity="0"></use></g></g><g><use xlink:href="#b3Rmo6gwJ" opacity="1" fill="#000000" fill-opacity="1"></use><g><use xlink:href="#b3Rmo6gwJ" opacity="1" fill-opacity="0" stroke="#000000" stroke-width="1" stroke-opacity="0"></use></g></g><g><use xlink:href="#aqxyPtEdw" opacity="1" fill="#000000" fill-opacity="0"></use><g><use xlink:href="#aqxyPtEdw" opacity="1" fill-opacity="0" stroke="#000000" stroke-width="1" stroke-opacity="0"></use></g></g><g><use xlink:href="#b2Xl89QQOr" opacity="1" fill="#000000" fill-opacity="1"></use><g><use xlink:href="#b2Xl89QQOr" opacity="1" fill-opacity="0" stroke="#000000" stroke-width="1" stroke-opacity="0"></use></g></g><g><use xlink:href="#b3U5rZYrTC" opacity="1" fill="#000000" fill-opacity="0"></use><g><use xlink:href="#b3U5rZYrTC" opacity="1" fill-opacity="0" stroke="#000000" stroke-width="1" stroke-opacity="0"></use></g></g><g><use xlink:href="#h1t64Hday" opacity="1" fill="#000000" fill-opacity="1"></use><g><use xlink:href="#h1t64Hday" opacity="1" fill-opacity="0" stroke="#000000" stroke-width="1" stroke-opacity="0"></use></g></g><g><use xlink:href="#a5GY2PBl" opacity="1" fill="#000000" fill-opacity="0"></use><g><use xlink:href="#a5GY2PBl" opacity="1" fill-opacity="0" stroke="#000000" stroke-width="1" stroke-opacity="0"></use></g></g><g><use xlink:href="#a6brtM90J" opacity="1" fill="#000000" fill-opacity="1"></use><g><use xlink:href="#a6brtM90J" opacity="1" fill-opacity="0" stroke="#000000" stroke-width="1" stroke-opacity="0"></use></g></g><g><use xlink:href="#b2UzvlGqBf" opacity="1" fill="#000000" fill-opacity="0"></use><g><use xlink:href="#b2UzvlGqBf" opacity="1" fill-opacity="0" stroke="#000000" stroke-width="1" stroke-opacity="0"></use></g></g><g><use xlink:href="#d9Bxsagfm" opacity="1" fill="#000000" fill-opacity="1"></use><g><use xlink:href="#d9Bxsagfm" opacity="1" fill-opacity="0" stroke="#000000" stroke-width="1" stroke-opacity="0"></use></g></g><g><use xlink:href="#bj2YyqBd" opacity="1" fill="#000000" fill-opacity="0"></use><g><use xlink:href="#bj2YyqBd" opacity="1" fill-opacity="0" stroke="#000000" stroke-width="1" stroke-opacity="0"></use></g></g><g><use xlink:href="#i916B2nsTC" opacity="1" fill="#000000" fill-opacity="1"></use><g><use xlink:href="#i916B2nsTC" opacity="1" fill-opacity="0" stroke="#000000" stroke-width="1" stroke-opacity="0"></use></g></g><g><use xlink:href="#a3PBlc60QM" opacity="1" fill="#000000" fill-opacity="0"></use><g><use xlink:href="#a3PBlc60QM" opacity="1" fill-opacity="0" stroke="#000000" stroke-width="1" stroke-opacity="0"></use></g></g><g><use xlink:href="#cScI0SZXr" opacity="1" fill="#000000" fill-opacity="1"></use><g><use xlink:href="#cScI0SZXr" opacity="1" fill-opacity="0" stroke="#000000" stroke-width="1" stroke-opacity="0"></use></g></g><g><use xlink:href="#l11wa8C7yl" opacity="1" fill="#000000" fill-opacity="0"></use><g><use xlink:href="#l11wa8C7yl" opacity="1" fill-opacity="0" stroke="#000000" stroke-width="1" stroke-opacity="0"></use></g></g><g><use xlink:href="#aZphMlmdX" opacity="1" fill="#000000" fill-opacity="1"></use><g><use xlink:href="#aZphMlmdX" opacity="1" fill-opacity="0" stroke="#000000" stroke-width="1" stroke-opacity="0"></use></g></g><g><use xlink:href="#aetgUas1d" opacity="1" fill="#000000" fill-opacity="0"></use><g><use xlink:href="#aetgUas1d" opacity="1" fill-opacity="0" stroke="#000000" stroke-width="1" stroke-opacity="0"></use></g></g><g><use xlink:href="#a1ItkLZSL0" opacity="1" fill="#000000" fill-opacity="1"></use><g><use xlink:href="#a1ItkLZSL0" opacity="1" fill-opacity="0" stroke="#000000" stroke-width="1" stroke-opacity="0"></use></g></g><g><use xlink:href="#a26HTmMQU" opacity="1" fill="#000000" fill-opacity="0"></use><g><use xlink:href="#a26HTmMQU" opacity="1" fill-opacity="0" stroke="#000000" stroke-width="1" stroke-opacity="0"></use></g></g><g><use xlink:href="#f1cgGEPzlQ" opacity="1" fill="#000000" fill-opacity="1"></use><g><use xlink:href="#f1cgGEPzlQ" opacity="1" fill-opacity="0" stroke="#000000" stroke-width="1" stroke-opacity="0"></use></g></g><g><use xlink:href="#g4o2wXPAlv" opacity="1" fill="#000000" fill-opacity="0"></use><g><use xlink:href="#g4o2wXPAlv" opacity="1" fill-opacity="0" stroke="#000000" stroke-width="1" stroke-opacity="0"></use></g></g><g><use xlink:href="#b88lV6u0II" opacity="1" fill="#000000" fill-opacity="1"></use><g><use xlink:href="#b88lV6u0II" opacity="1" fill-opacity="0" stroke="#000000" stroke-width="1" stroke-opacity="0"></use></g></g><g><use xlink:href="#b4mF6Jx0H" opacity="1" fill="#000000" fill-opacity="0"></use><g><use xlink:href="#b4mF6Jx0H" opacity="1" fill-opacity="0" stroke="#000000" stroke-width="1" stroke-opacity="0"></use></g></g><g><use xlink:href="#agEQBNya8" opacity="1" fill="#000000" fill-opacity="1"></use><g><use xlink:href="#agEQBNya8" opacity="1" fill-opacity="0" stroke="#000000" stroke-width="1" stroke-opacity="0"></use></g></g><g><use xlink:href="#a2ERDnKsWX" opacity="1" fill="#000000" fill-opacity="0"></use><g><use xlink:href="#a2ERDnKsWX" opacity="1" fill-opacity="0" stroke="#000000" stroke-width="1" stroke-opacity="0"></use></g></g><g><use xlink:href="#d4eZNOin10" opacity="1" fill="#000000" fill-opacity="1"></use><g><use xlink:href="#d4eZNOin10" opacity="1" fill-opacity="0" stroke="#000000" stroke-width="1" stroke-opacity="0"></use></g></g><g><use xlink:href="#gCFknm2wt" opacity="1" fill="#000000" fill-opacity="0"></use><g><use xlink:href="#gCFknm2wt" opacity="1" fill-opacity="0" stroke="#000000" stroke-width="1" stroke-opacity="0"></use></g></g><g><use xlink:href="#hEcgF8uCB" opacity="1" fill="#000000" fill-opacity="1"></use><g><use xlink:href="#hEcgF8uCB" opacity="1" fill-opacity="0" stroke="#000000" stroke-width="1" stroke-opacity="0"></use></g></g><g><use xlink:href="#b6Lp9ZcuW" opacity="1" fill="#000000" fill-opacity="0"></use><g><use xlink:href="#b6Lp9ZcuW" opacity="1" fill-opacity="0" stroke="#000000" stroke-width="1" stroke-opacity="0"></use></g></g><g><use xlink:href="#f5KCTmSzBa" opacity="1" fill="#000000" fill-opacity="1"></use><g><use xlink:href="#f5KCTmSzBa" opacity="1" fill-opacity="0" stroke="#000000" stroke-width="1" stroke-opacity="0"></use></g></g><g><use xlink:href="#bevpunB74" opacity="1" fill="#000000" fill-opacity="0"></use><g><use xlink:href="#bevpunB74" opacity="1" fill-opacity="0" stroke="#000000" stroke-width="1" stroke-opacity="0"></use></g></g><g><use xlink:href="#bChT3Nxro" opacity="1" fill="#000000" fill-opacity="1"></use><g><use xlink:href="#bChT3Nxro" opacity="1" fill-opacity="0" stroke="#000000" stroke-width="1" stroke-opacity="0"></use></g></g></g></g></svg>