<svg xmlns="http://www.w3.org/2000/svg" xmlns:xlink="http://www.w3.org/1999/xlink" viewBox="0 0 640 640" width="500" height="500"><defs><path d="M0 80h640v480H0V80z" id="a"/><path d="M69.25 321.7c0-140.18 112.44-253.82 251.14-253.82 66.61 0 130.49 26.74 177.59 74.34 47.1 47.6 73.56 112.16 73.56 179.48 0 140.17-112.44 253.81-251.15 253.81-138.7 0-251.14-113.64-251.14-253.81z" id="b"/><radialGradient id="c" gradientUnits="userSpaceOnUse" cx="320.39" cy="321.7" r="8752.96"><stop offset="0%" stop-color="#fff6db"/><stop offset="100%" stop-color="#fad25c"/></radialGradient><path d="M318.51 357.4c-242.75-180.29-49.54-320.51 0-180.29 49.54-140.22 242.74 0 0 180.29z" id="d"/><radialGradient id="e" gradientUnits="userSpaceOnUse" cx="318.51" cy="238.7" r="5898.26"><stop offset="0%" stop-color="#f5d0d0"/><stop offset="100%" stop-color="#d96868"/></radialGradient><path d="M318.51 357.4c-242.75-180.29-49.54-320.51 0-180.29 49.54-140.22 242.74 0 0 180.29z" id="f"/><path d="M318.51 177.11l.3 181.12" id="g"/><path d="M318.51 177.11l.3 181.12" id="h"/><path d="M318.8 248.36l55.25 55.24-56.71 56.71-55.25-55.24 56.71-56.71z" id="i"/><path d="M318.8 248.36l55.25 55.24-56.71 56.71-55.25-55.24 56.71-56.71z" id="j"/><path d="M104.2 322.54c13.51-47.44 48.69-79 78.58-70.5 14.36 4.09 25.54 17.06 31.1 36.05 5.56 19 5.04 42.47-1.44 65.25-13.52 47.44-48.7 79-78.58 70.49-29.89-8.5-43.17-53.85-29.66-101.29z" id="k"/><linearGradient id="l" gradientUnits="userSpaceOnUse" x1="128.65" y1="236.64" x2="79.76" y2="408.44"><stop offset="0%" stop-color="#3177ee"/><stop offset="100%" stop-color="#113d8a"/></linearGradient><path d="M104.2 322.54c13.51-47.44 48.69-79 78.58-70.5 14.36 4.09 25.54 17.06 31.1 36.05 5.56 19 5.04 42.47-1.44 65.25-13.52 47.44-48.7 79-78.58 70.49-29.89-8.5-43.17-53.85-29.66-101.29z" id="m"/><path d="M197.38 428.74c10.92-42.99 43.47-71.81 72.72-64.39 14.04 3.57 25.43 15.19 31.65 32.31 6.23 17.11 6.78 38.33 1.54 58.97-10.92 42.98-43.47 71.81-72.72 64.38-29.24-7.42-44.1-48.29-33.19-91.27z" id="n"/><linearGradient id="o" gradientUnits="userSpaceOnUse" x1="217.15" y1="350.91" x2="177.62" y2="506.57"><stop offset="0%" stop-color="#3177ee"/><stop offset="100%" stop-color="#113d8a"/></linearGradient><path d="M197.38 428.74c10.92-42.99 43.47-71.81 72.72-64.39 14.04 3.57 25.43 15.19 31.65 32.31 6.23 17.11 6.78 38.33 1.54 58.97-10.92 42.98-43.47 71.81-72.72 64.38-29.24-7.42-44.1-48.29-33.19-91.27z" id="p"/><path d="M324.7 449.13c-4.8-44.29 15.11-82.78 44.47-85.97 14.1-1.53 28.53 5.45 40.13 19.41 11.6 13.96 19.41 33.75 21.71 55.02 4.8 44.29-15.11 82.78-44.47 85.97-29.36 3.18-57.04-30.14-61.84-74.43z" id="q"/><linearGradient id="r" gradientUnits="userSpaceOnUse" x1="315.99" y1="368.94" x2="333.41" y2="529.33"><stop offset="0%" stop-color="#3177ee"/><stop offset="100%" stop-color="#113d8a"/></linearGradient><path d="M324.7 449.13c-4.8-44.29 15.11-82.78 44.47-85.97 14.1-1.53 28.53 5.45 40.13 19.41 11.6 13.96 19.41 33.75 21.71 55.02 4.8 44.29-15.11 82.78-44.47 85.97-29.36 3.18-57.04-30.14-61.84-74.43z" id="s"/><path d="M417.1 357.71c-15.86-43.16-4.59-87 25.16-97.93 14.29-5.24 31.02-2.04 46.5 8.91 15.49 10.94 28.47 28.73 36.09 49.46 15.85 43.16 4.59 87-25.16 97.93-29.76 10.92-66.73-15.21-82.59-58.37z" id="t"/><linearGradient id="u" gradientUnits="userSpaceOnUse" x1="388.4" y1="279.56" x2="445.8" y2="435.87"><stop offset="0%" stop-color="#3177ee"/><stop offset="100%" stop-color="#113d8a"/></linearGradient><path d="M417.1 357.71c-15.86-43.16-4.59-87 25.16-97.93 14.29-5.24 31.02-2.04 46.5 8.91 15.49 10.94 28.47 28.73 36.09 49.46 15.85 43.16 4.59 87-25.16 97.93-29.76 10.92-66.73-15.21-82.59-58.37z" id="v"/><path d="M332.7.25l6.33.32 6.31.43 6.29.57 6.27.68 6.24.81 6.22.93 6.19 1.05 6.17 1.17 6.14 1.28 6.1 1.41 6.07 1.53 6.04 1.64 6 1.76 5.96 1.88 5.92 1.99 5.88 2.11 5.84 2.22 5.79 2.33 5.74 2.44 5.7 2.56 5.65 2.67 5.59 2.78 5.54 2.89 5.49 3 5.43 3.1 5.37 3.22 5.32 3.32 5.25 3.42 5.18 3.54 5.12 3.63 5.06 3.75 4.99 3.84 4.91 3.95 4.85 4.05 4.77 4.15 4.69 4.25 4.62 4.35 4.54 4.46 4.46 4.54 4.35 4.62 4.25 4.69 4.15 4.77 4.05 4.85 3.95 4.91 3.84 4.99 3.75 5.06 3.63 5.12 3.54 5.18 3.42 5.25 3.32 5.32 3.22 5.37 3.1 5.43 3 5.49 2.89 5.54 2.78 5.59 2.67 5.65 2.56 5.7 2.44 5.74 2.33 5.79 2.22 5.84 2.11 5.88 1.99 5.92 1.88 5.96 1.76 6 1.64 6.04 1.53 6.07 1.41 6.1 1.28 6.14 1.17 6.17 1.05 6.19.93 6.22.81 6.24.68 6.27.57 6.29.43 6.31.32 6.33.19 6.34.06 6.36-.27 13.19-.79 13.05-1.31 12.91-1.82 12.76-2.31 12.58-2.8 12.41-3.27 12.22-3.74 12.02-4.2 11.82-4.64 11.6-5.07 11.37-5.5 11.13-5.91 10.88-6.31 10.62-6.71 10.36-7.09 10.07-7.46 9.78-7.83 9.48-8.18 9.17-8.52 8.85-8.85 8.52-9.17 8.18-9.48 7.83-9.78 7.46-10.07 7.09-10.36 6.71-10.62 6.31-10.88 5.91-11.13 5.5-11.37 5.07-11.6 4.64-11.82 4.2-12.02 3.74-12.22 3.27-12.41 2.8-12.58 2.31-12.76 1.82-12.91 1.31-13.05.79L320 640l-13.19-.27-13.05-.79-12.91-1.31-12.76-1.82-12.58-2.31-12.41-2.8-12.22-3.27-12.02-3.74-11.82-4.2-11.6-4.64-11.37-5.07-11.13-5.5-10.88-5.91-10.62-6.31-10.36-6.71-10.07-7.09-9.78-7.46-9.48-7.83-9.17-8.18-8.85-8.52-8.52-8.85-8.18-9.17-7.83-9.48-7.46-9.78-7.09-10.07-6.71-10.36-6.31-10.62-5.91-10.88-5.5-11.13-5.07-11.37-4.64-11.6-4.2-11.82-3.74-12.02L9.3 396.9l-2.8-12.41-2.31-12.58-1.82-12.76-1.31-12.91-.79-13.05L0 320l.27-13.19.79-13.05 1.31-12.91 1.82-12.76 2.31-12.58 2.8-12.41 3.27-12.22 3.74-12.02 4.2-11.82 4.64-11.6 5.07-11.37 5.5-11.13 5.91-10.88 6.31-10.62 6.71-10.36 7.09-10.07 7.46-9.78 7.83-9.48 8.18-9.17 8.52-8.85 8.85-8.52 9.17-8.18 9.48-7.83 9.78-7.46 10.07-7.09 10.36-6.71 10.62-6.31 10.88-5.91 11.13-5.5 11.37-5.07 11.6-4.64 11.82-4.2 12.02-3.74L243.1 9.3l12.41-2.8 12.58-2.31 12.76-1.82 12.91-1.31 13.05-.79L320 0l6.36.06 6.34.19zM299.27 68.1l-10.19 1.04L279 70.57l-9.94 1.83-9.8 2.21-9.65 2.59-9.49 2.95-9.34 3.31-9.16 3.67-8.98 4-8.79 4.34-8.59 4.67-8.39 4.99-8.18 5.3-7.95 5.6-7.73 5.89-7.49 6.18-7.24 6.46-6.99 6.73-6.73 6.99-6.46 7.24-6.18 7.49-5.89 7.73-5.6 7.95-5.3 8.18-4.99 8.39-4.67 8.59-4.34 8.79-4 8.98-3.67 9.16-3.31 9.34-2.95 9.49-2.59 9.65-2.21 9.8-1.83 9.94-1.43 10.08-1.04 10.19-.63 10.31-.21 10.42.21 10.42.63 10.31 1.04 10.19L70.57 361l1.83 9.94 2.21 9.8 2.59 9.65 2.95 9.49 3.31 9.34 3.67 9.16 4 8.98 4.34 8.79 4.67 8.59 4.99 8.39 5.3 8.18 5.6 7.95 5.89 7.73 6.18 7.49 6.46 7.24 6.73 6.99 6.99 6.73 7.24 6.46 7.49 6.18 7.73 5.89 7.95 5.6 8.18 5.3 8.39 4.99 8.59 4.67 8.79 4.34 8.98 4 9.16 3.67 9.34 3.31 9.49 2.95 9.65 2.59 9.8 2.21 9.94 1.83 10.08 1.43 10.19 1.04 10.31.63 10.42.21 10.42-.21 10.31-.63 10.19-1.04 10.08-1.43 9.94-1.83 9.8-2.21 9.65-2.59 9.49-2.95 9.34-3.31 9.16-3.67 8.98-4 8.79-4.34 8.59-4.67 8.39-4.99 8.18-5.3 7.95-5.6 7.73-5.89 7.49-6.18 7.24-6.46 6.99-6.73 6.73-6.99 6.46-7.24 6.18-7.49 5.89-7.73 5.6-7.95 5.3-8.18 4.99-8.39 4.67-8.59 4.34-8.79 4-8.98 3.67-9.16 3.31-9.34 2.95-9.49 2.59-9.65 2.21-9.8 1.83-9.94 1.43-10.08 1.04-10.19.63-10.31.21-10.42-.21-10.42-.63-10.31-1.04-10.19-1.43-10.08-1.83-9.94-2.21-9.8-2.59-9.65-2.95-9.49-3.31-9.34-3.67-9.16-4-8.98-4.34-8.79-4.67-8.59-4.99-8.39-5.3-8.18-5.6-7.95-5.89-7.73-6.18-7.49-6.46-7.24-6.73-6.99-6.99-6.73-7.24-6.46-7.49-6.18-7.73-5.89-7.95-5.6-8.18-5.3-8.39-4.99-8.59-4.67-8.79-4.34-8.98-4-9.16-3.67-9.34-3.31-9.49-2.95-9.65-2.59-9.8-2.21-9.94-1.83-10.08-1.43-10.19-1.04-10.31-.63-10.42-.21-10.42.21-10.31.63z" id="w"/><radialGradient id="x" gradientUnits="userSpaceOnUse" cx="320" cy="320" r="9923.19"><stop offset="0%" stop-color="#dcecd5"/><stop offset="100%" stop-color="#93bc81"/></radialGradient><path d="M332.7.25l6.33.32 6.31.43 6.29.57 6.27.68 6.24.81 6.22.93 6.19 1.05 6.17 1.17 6.14 1.28 6.1 1.41 6.07 1.53 6.04 1.64 6 1.76 5.96 1.88 5.92 1.99 5.88 2.11 5.84 2.22 5.79 2.33 5.74 2.44 5.7 2.56 5.65 2.67 5.59 2.78 5.54 2.89 5.49 3 5.43 3.1 5.37 3.22 5.32 3.32 5.25 3.42 5.18 3.54 5.12 3.63 5.06 3.75 4.99 3.84 4.91 3.95 4.85 4.05 4.77 4.15 4.69 4.25 4.62 4.35 4.54 4.46 4.46 4.54 4.35 4.62 4.25 4.69 4.15 4.77 4.05 4.85 3.95 4.91 3.84 4.99 3.75 5.06 3.63 5.12 3.54 5.18 3.42 5.25 3.32 5.32 3.22 5.37 3.1 5.43 3 5.49 2.89 5.54 2.78 5.59 2.67 5.65 2.56 5.7 2.44 5.74 2.33 5.79 2.22 5.84 2.11 5.88 1.99 5.92 1.88 5.96 1.76 6 1.64 6.04 1.53 6.07 1.41 6.1 1.28 6.14 1.17 6.17 1.05 6.19.93 6.22.81 6.24.68 6.27.57 6.29.43 6.31.32 6.33.19 6.34.06 6.36-.27 13.19-.79 13.05-1.31 12.91-1.82 12.76-2.31 12.58-2.8 12.41-3.27 12.22-3.74 12.02-4.2 11.82-4.64 11.6-5.07 11.37-5.5 11.13-5.91 10.88-6.31 10.62-6.71 10.36-7.09 10.07-7.46 9.78-7.83 9.48-8.18 9.17-8.52 8.85-8.85 8.52-9.17 8.18-9.48 7.83-9.78 7.46-10.07 7.09-10.36 6.71-10.62 6.31-10.88 5.91-11.13 5.5-11.37 5.07-11.6 4.64-11.82 4.2-12.02 3.74-12.22 3.27-12.41 2.8-12.58 2.31-12.76 1.82-12.91 1.31-13.05.79L320 640l-13.19-.27-13.05-.79-12.91-1.31-12.76-1.82-12.58-2.31-12.41-2.8-12.22-3.27-12.02-3.74-11.82-4.2-11.6-4.64-11.37-5.07-11.13-5.5-10.88-5.91-10.62-6.31-10.36-6.71-10.07-7.09-9.78-7.46-9.48-7.83-9.17-8.18-8.85-8.52-8.52-8.85-8.18-9.17-7.83-9.48-7.46-9.78-7.09-10.07-6.71-10.36-6.31-10.62-5.91-10.88-5.5-11.13-5.07-11.37-4.64-11.6-4.2-11.82-3.74-12.02L9.3 396.9l-2.8-12.41-2.31-12.58-1.82-12.76-1.31-12.91-.79-13.05L0 320l.27-13.19.79-13.05 1.31-12.91 1.82-12.76 2.31-12.58 2.8-12.41 3.27-12.22 3.74-12.02 4.2-11.82 4.64-11.6 5.07-11.37 5.5-11.13 5.91-10.88 6.31-10.62 6.71-10.36 7.09-10.07 7.46-9.78 7.83-9.48 8.18-9.17 8.52-8.85 8.85-8.52 9.17-8.18 9.48-7.83 9.78-7.46 10.07-7.09 10.36-6.71 10.62-6.31 10.88-5.91 11.13-5.5 11.37-5.07 11.6-4.64 11.82-4.2 12.02-3.74L243.1 9.3l12.41-2.8 12.58-2.31 12.76-1.82 12.91-1.31 13.05-.79L320 0l6.36.06 6.34.19zM299.27 68.1l-10.19 1.04L279 70.57l-9.94 1.83-9.8 2.21-9.65 2.59-9.49 2.95-9.34 3.31-9.16 3.67-8.98 4-8.79 4.34-8.59 4.67-8.39 4.99-8.18 5.3-7.95 5.6-7.73 5.89-7.49 6.18-7.24 6.46-6.99 6.73-6.73 6.99-6.46 7.24-6.18 7.49-5.89 7.73-5.6 7.95-5.3 8.18-4.99 8.39-4.67 8.59-4.34 8.79-4 8.98-3.67 9.16-3.31 9.34-2.95 9.49-2.59 9.65-2.21 9.8-1.83 9.94-1.43 10.08-1.04 10.19-.63 10.31-.21 10.42.21 10.42.63 10.31 1.04 10.19L70.57 361l1.83 9.94 2.21 9.8 2.59 9.65 2.95 9.49 3.31 9.34 3.67 9.16 4 8.98 4.34 8.79 4.67 8.59 4.99 8.39 5.3 8.18 5.6 7.95 5.89 7.73 6.18 7.49 6.46 7.24 6.73 6.99 6.99 6.73 7.24 6.46 7.49 6.18 7.73 5.89 7.95 5.6 8.18 5.3 8.39 4.99 8.59 4.67 8.79 4.34 8.98 4 9.16 3.67 9.34 3.31 9.49 2.95 9.65 2.59 9.8 2.21 9.94 1.83 10.08 1.43 10.19 1.04 10.31.63 10.42.21 10.42-.21 10.31-.63 10.19-1.04 10.08-1.43 9.94-1.83 9.8-2.21 9.65-2.59 9.49-2.95 9.34-3.31 9.16-3.67 8.98-4 8.79-4.34 8.59-4.67 8.39-4.99 8.18-5.3 7.95-5.6 7.73-5.89 7.49-6.18 7.24-6.46 6.99-6.73 6.73-6.99 6.46-7.24 6.18-7.49 5.89-7.73 5.6-7.95 5.3-8.18 4.99-8.39 4.67-8.59 4.34-8.79 4-8.98 3.67-9.16 3.31-9.34 2.95-9.49 2.59-9.65 2.21-9.8 1.83-9.94 1.43-10.08 1.04-10.19.63-10.31.21-10.42-.21-10.42-.63-10.31-1.04-10.19-1.43-10.08-1.83-9.94-2.21-9.8-2.59-9.65-2.95-9.49-3.31-9.34-3.67-9.16-4-8.98-4.34-8.79-4.67-8.59-4.99-8.39-5.3-8.18-5.6-7.95-5.89-7.73-6.18-7.49-6.46-7.24-6.73-6.99-6.99-6.73-7.24-6.46-7.49-6.18-7.73-5.89-7.95-5.6-8.18-5.3-8.39-4.99-8.59-4.67-8.79-4.34-8.98-4-9.16-3.67-9.34-3.31-9.49-2.95-9.65-2.59-9.8-2.21-9.94-1.83-10.08-1.43-10.19-1.04-10.31-.63-10.42-.21-10.42.21-10.31.63z" id="y"/><path d="M68.19 110.76l32.9-32.94 37.99 37.98-32.91 32.95-37.98-37.99z" id="z"/><path d="M117.21 101.05l.17.01.17.02.16.01.15.02.15.02.13.02.13.02.12.02.11.02.1.02.09.02.09.02.07.01.07.01.05.01.05.01.19.05.18.05.18.05.17.06.16.06.16.07.15.06.15.06.14.07.13.06.13.07.12.06.11.06.1.06.1.05.09.05.08.05.07.04.07.04.06.03.04.03.04.01.17.11.16.11.15.11.15.11.14.11.14.11.13.1.13.11.12.1.12.1.11.09.1.09.1.09.09.08.08.08.08.07.07.07.06.06.06.05.05.05.04.04.04.02.12.13.12.12.11.13.11.12.1.12.1.12.09.11.09.12.09.11.08.1.07.11.07.09.07.1.06.09.06.08.05.08.05.07.04.06.04.06.03.04.03.04.03.04.09.15.09.14.08.15.07.15.08.14.06.14.06.14.06.14.06.13.05.12.04.12.04.12.04.11.04.11.03.09.03.09.02.09.03.07.02.07.02.06.01.04.02.04.04.18.04.17.03.18.03.17.02.17.02.17.02.16.01.16.01.15.01.15v.14l.01.13v.57l-.01.08v.2l.01.05-.02.2-.02.21-.03.2-.03.19-.03.2-.04.19-.04.19-.04.18-.04.17-.05.17-.04.16-.05.15-.04.15-.05.14-.04.13-.04.11-.04.11-.03.1-.03.09-.02.07-.02.07-.01.05-.09.23-.1.23-.1.22-.1.23-.11.21-.11.22-.11.2-.11.21-.11.19-.1.19-.11.18-.1.17-.1.16-.1.16-.09.14-.08.13-.08.13-.07.11-.06.09-.05.09-.04.07-.03.05-.19.26-.18.26-.19.25-.19.24-.2.24-.19.24-.19.23-.19.22-.19.22-.18.2-.18.2-.17.19-.17.18-.16.17-.14.15-.14.15-.13.13-.11.12-.1.11-.09.09-.07.08-.06.06-.5.5-.25.25-.04.04-.04.04-.04.04-.04.04-.04.03-.04.04-.05.04-.04.04-.04.03-.04.04-.04.04-.04.04-.05.03-.04.04-.04.04-.04.03-.05.04-.04.04-.04.03-.04.04-.05.04-.04.03-1.08.95 8.03 8.04-7.38 7.39-23.33-23.33 9-9 .31-.31.31-.3.3-.28.28-.27.28-.25.26-.24.26-.23.25-.21.23-.2.22-.19.21-.17.2-.16.19-.15.18-.14.16-.13.15-.11.13-.11.13-.09.11-.09.09-.07.08-.07.07-.06.28-.19.27-.19.26-.17.25-.16.24-.16.24-.14.22-.14.22-.12.21-.12.19-.11.19-.09.18-.1.16-.08.16-.08.14-.07.14-.06.12-.06.11-.05.09-.05.09-.04.07-.04.06-.03.25-.11.24-.09.23-.08.22-.08.22-.07.21-.06.2-.05.19-.05.18-.04.17-.04.17-.04.16-.02.14-.03.14-.02.13-.02.11-.02.11-.01.1-.01.08-.01.08-.02.06-.01.05-.01.22-.01.21-.01.2-.01h.2l.19.01h.18zm-6.09 8.75l-.38.15-.32.14-.23.11-.15.07-.32.2-.32.22-.32.24-.31.26-.31.28-.3.29-1.69 1.69 7.91 7.92 1.69-1.69.53-.57.4-.5.3-.43.22-.36.15-.26.1-.17.22-.52.14-.46.08-.4.05-.31.02-.24.02-.15-.03-.48-.08-.41-.11-.36-.1-.29-.09-.21-.05-.14-.25-.42-.25-.37-.25-.31-.22-.25-.17-.19-.1-.12-.59-.55-.52-.41-.45-.3-.36-.22-.27-.15-.18-.1-.53-.2-.47-.12-.41-.06-.34-.02-.25-.01-.16-.01-.5.07-.45.12z" id="A"/><path d="M118.29 63.27l38.17-24.71 29.3 45.09-38.17 24.71-29.3-45.09z" id="B"/><path d="M174.81 94.1l-5.12-5.04-6.86 4.44 2.59 6.68-7.07 4.57-10.92-32.22 12.25-7.93 25.58 22.74-10.45 6.76zm-14.13-5.72l5.61-3.63-10.69-11.39-.6.38 5.68 14.64z" id="C"/><path d="M0 275.81h76.42v88.38H0v-88.38z" id="D"/><path d="M33.75 315.72l6.21-19.78 6.22 19.78h20.01l-16.34 11.29 5.99 19.08-15.88-11.73-15.87 11.73 5.98-19.08-16.34-11.29h20.02z" id="E"/><path d="M567.9 274.08h63.29v87.36H567.9v-87.36z" id="F"/><path d="M601.65 313.99l6.21-19.78 6.21 19.78h20.02l-16.34 11.28 5.99 19.09-15.88-11.73-15.88 11.73 5.99-19.09-16.34-11.28h20.02z" id="G"/><path d="M394.66 3.24l61.97 12.79-13.27 64.31-61.98-12.79 13.28-64.31z" id="H"/><path d="M417.2 32l.41.1.4.09.38.09.37.09.34.1.33.09.31.08.3.09.28.08.26.08.24.08.23.08.21.07.2.06.18.06.16.06.15.05.13.04.11.04.1.04.09.02.31.12.31.13.29.12.27.12.26.12.25.12.24.11.22.11.21.11.2.11.19.1.17.1.16.09.15.09.14.08.13.07.11.07.11.07.09.05.08.05.07.04.06.03.22.15.21.15.2.15.19.14.17.15.17.14.15.13.15.14.14.13.12.12.12.12.11.12.1.1.09.11.09.09.08.09.07.08.06.08.06.06.05.06.04.04.04.04.13.17.13.17.11.17.11.17.1.16.1.15.08.15.08.15.08.14.07.14.06.13.06.13.05.11.05.12.04.1.04.09.04.09.03.08.03.07.02.06.03.05.02.05.06.18.06.18.05.18.04.17.04.18.04.16.03.16.02.16.03.15.02.15.01.14.02.13.01.13.01.12v.11l.01.1.01.1v.08l.01.08v.06l.01.06v.43l-.01.19-.01.18-.01.18-.02.17-.01.17-.02.17-.02.15-.02.15-.02.15-.01.13-.02.13-.02.12-.02.12-.02.1-.02.1-.01.08-.01.08-.01.07-.01.05-.01.05-.04.17-.03.16-.05.17-.04.15-.04.16-.05.14-.04.15-.05.13-.04.13-.05.13-.04.12-.05.11-.04.11-.04.1-.03.09-.04.09-.03.08-.03.07-.03.06-.02.05-.02.05-.01.04-.07.16-.08.15-.08.15-.08.15-.08.13-.08.14-.08.13-.08.12-.08.11-.08.12-.08.1-.07.1-.07.09-.07.09-.07.08-.06.07-.05.07-.05.06-.04.06-.04.04-.03.04-.03.04-.12.13-.13.13-.13.12-.12.12-.13.11-.13.11-.13.1-.12.1-.12.09-.12.09-.12.08-.11.08-.1.07-.11.06-.09.07-.09.05-.08.05-.07.05-.07.04-.05.04-.05.03-.03.03-.18.1-.19.09-.18.09-.18.08-.18.08-.18.08-.18.06-.17.07-.17.06-.17.05-.16.05-.15.05-.15.04-.14.04-.13.04-.12.03-.11.03-.1.02-.09.03-.07.02-.07.02-.05.02-.24.05-.24.04-.25.04-.24.04-.24.03-.24.03-.23.02-.23.02-.22.01-.22.02-.21.01-.2.01h-.19l-.18.01h-.32l-.15.01h-.34l-.09.01h-.06l-.32-.01-.31-.02-.31-.02-.32-.02-.3-.03-.31-.03-.29-.04-.29-.03-.29-.04-.27-.04-.26-.04-.25-.04-.24-.04-.23-.04-.21-.04-.2-.03-.18-.04-.16-.03-.15-.02-.12-.02-.11-.02-.08-.01-1.04-.22-.06-.01-.05-.01-.05-.02-.06-.01-.05-.01-.06-.02-.05-.01-.06-.02-.05-.01-.05-.01-.06-.02-.05-.01-.06-.02-.05-.01-.05-.02-.06-.01-.05-.02-.06-.02-.05-.01-.05-.02-.06-.01-.05-.02-1.39-.38-2.3 11.13-10.23-2.11 6.67-32.31 12.46 2.57.44.09zm-3.68 16.16l.76.13.65.06.52.01.42-.01.3-.02h.19l.56-.11.47-.13.37-.15.29-.14.21-.11.13-.07.38-.28.31-.3.24-.28.18-.25.13-.19.09-.12.21-.43.17-.42.13-.38.09-.32.06-.25.04-.15.14-.79.06-.67v-.54l-.02-.42-.02-.3-.01-.2-.12-.56-.16-.46-.18-.38-.16-.29-.14-.21-.08-.14-.33-.38-.35-.31-.33-.24-.29-.19-.23-.13-.13-.09-.35-.16-.36-.14-.37-.13-.39-.12-.4-.11-.42-.09-2.33-.49-2.27 10.97 2.34.48z" id="I"/><path d="M498.29 43.37l49.65 39.26-54.2 68.48-49.64-39.26 54.19-68.48z" id="J"/><path d="M488.4 107.7l-10.81-8.55 15.78-29.57 9.25 7.32-13.83 22.79 19.61-18.22 7.8 6.17-13.29 23.26 19.14-18.63 6.44 5.09-24.56 22.62-9.95-7.87 8.65-16.94-14.23 12.53z" id="K"/><path d="M454.25 17.81l47.49 25.12-30.65 58.11-47.49-25.13 30.65-58.1z" id="L"/><path d="M465.89 87.99l-11-5.81 1.9-6.93-7.22-3.82-4.58 5.51-7.44-3.93 22.82-25.25 12.89 6.82-7.37 33.41zm-6.99-17.81l4.73-14.89-.63-.33-10.01 12.09 5.91 3.13z" id="M"/><path d="M551.92 82.38l29.64 35.92-50.62 41.82-29.64-35.92 50.62-41.82z" id="N"/><path d="M550.68 130.11c-.46-1.26-.97-2.29-1.08-2.54-.61-1.29-1.21-2.29-1.35-2.54-.73-1.24-1.37-1.98-1.52-2.2-1.4-1.7-2.36-2.06-2.62-2.29-1.21-.6-2.01.22-2.24.25-.48.4-.53.94-.59 1.04-.08.63.09 1.35.1 1.5.19.88.53 1.78.59 1.97.29.74.6 1.54.95 2.41.4 1 .62 1.55.67 1.66.86 2.07 1.11 3.57 1.23 3.96.39 1.91.16 3.25.18 3.61-.22 1.7-.96 2.9-1.07 3.23-.83 1.51-2.17 2.53-2.41 2.81-1.84 1.53-3.47 1.98-3.86 2.2-2.01.66-3.7.29-4.11.32-2.1-.35-3.86-1.62-4.29-1.8-2.18-1.44-3.98-3.75-4.42-4.16-1.99-2.41-3.2-4.62-3.56-5.13-1.04-1.8-1.9-3.78-2.58-5.95 3.55-2.93 5.53-4.57 5.92-4.89.74 3.29 1.78 5.35 1.98 5.94 1.26 2.64 2.7 4.28 3 4.75 1.45 1.76 2.4 1.88 2.67 2.09 1.22.34 1.99-.43 2.22-.48.59-.49.68-1.02.75-1.13.2-.65.01-1.45.01-1.61-.19-.96-.63-2.09-.7-2.32-.5-1.36-1.16-2.92-1.28-3.25-.79-1.89-1.07-3.37-1.18-3.74-.37-1.85-.17-3.22-.19-3.57.19-1.74.93-2.99 1.03-3.33.84-1.59 2.23-2.65 2.48-2.94 1.68-1.39 3.21-1.76 3.57-1.95 1.9-.56 3.51-.14 3.91-.16 2.01.39 3.69 1.63 4.1 1.81 2.12 1.42 3.83 3.61 4.26 4.01.84 1.02 1.53 2.02 1.7 2.25.87 1.22 1.5 2.31 1.66 2.57.83 1.35 1.35 2.48 1.5 2.75.45.94.83 1.87 1.14 2.79l-5.79 4.32c-.47-1.35-.73-2.11-.78-2.26z" id="O"/><path d="M71.84 365.62l16.44 59.72-57.62 15.84-16.43-59.72 57.61-15.84z" id="P"/><path d="M57.94 394.44l.11.42.11.4.09.37.08.37.07.34.07.32.06.3.05.29.05.26.04.25.03.22.03.21.03.19.02.16.02.15.02.13.02.1.01.09.04.33.02.31.02.31.02.28.01.27v.25l.01.24-.01.23v.21l-.01.19-.01.18-.01.16-.01.15v.13l-.01.11-.01.1v.16l-.04.25-.04.25-.04.23-.04.22-.05.2-.05.2-.05.18-.05.17-.05.15-.05.15-.05.13-.05.12-.04.11-.04.1-.03.08-.03.08-.02.06-.02.05-.09.19-.1.18-.09.17-.1.17-.09.15-.1.14-.09.13-.09.12-.09.12-.08.1-.08.1-.07.09-.07.08-.12.13-.04.05-.04.05-.03.03-.13.14-.13.13-.13.12-.14.11-.13.1-.12.1-.13.09-.12.08-.11.08-.11.07-.1.07-.1.05-.08.06-.08.04-.07.04-.06.04-.05.03-.03.03-.18.08-.16.08-.17.08-.16.07-.16.07-.16.06-.14.05-.15.06-.13.04-.13.05-.12.04-.11.03-.1.03-.09.03-.08.03-.07.02-.05.02-.05.01-.16.05-.16.03-.16.04-.15.03-.15.02-.14.03-.14.02-.13.01-.12.02-.12.01-.11.01-.1.01-.09.01h-.08l-.08.01h-.06l-.05.01h-.04l-.17.01h-.33l-.16-.01-.16-.01-.14-.02-.14-.02-.14-.02-.12-.02-.12-.02-.11-.02-.1-.02-.1-.02-.08-.02-.07-.01-.06-.02-.06-.01h-.04l-.17-.05-.16-.06-.17-.05-.15-.06-.15-.07-.15-.06-.14-.06-.13-.07-.12-.06-.12-.07-.1-.06-.1-.05-.09-.05-.15-.09-.07-.04-.05-.03-.04-.02-.16-.11-.16-.12-.16-.12-.15-.12-.14-.13-.14-.12-.13-.13-.12-.12-.12-.11-.11-.12-.1-.1-.09-.1-.08-.1-.08-.08-.06-.07-.06-.07-.05-.05-.03-.03-.16-.19-.14-.19-.14-.2-.14-.19-.13-.2-.12-.19-.11-.19-.11-.19-.1-.17-.1-.17-.09-.17-.08-.15-.07-.13-.07-.13-.06-.11-.05-.09-.04-.08-.03-.06-.13-.27-.13-.28-.12-.29-.11-.28-.11-.27-.1-.28-.09-.26-.09-.26-.08-.25-.08-.24-.07-.22-.07-.21-.05-.19-.06-.17-.04-.15-.04-.13-.04-.11-.02-.08-.18-.63-.05-.18-.01-.05-.01-.05-.01-.06-.02-.05-.01-.06-.01-.05-.01-.06-.01-.05-.02-.05-.01-.06-.01-.05-.01-.05-.01-.06-.01-.05-.01-.05-.01-.06-.01-.05-.01-.05-.24-1.14-8.76 2.41-2.22-8.06 25.44-6.99 2.67 9.69.03.13zm-12.74 3.6l.22.7.22.54.2.4.17.28.09.17.34.42.31.31.27.22.21.15.12.09.41.19.37.11.32.07.25.03.14.02.47-.01.41-.04.35-.06.26-.06.16-.03.72-.23.56-.24.4-.22.28-.17.18-.1.41-.35.3-.34.2-.29.14-.24.08-.13.18-.45.1-.42.05-.36.01-.27.02-.17-.02-.36-.04-.37-.05-.38-.08-.39-.1-.39-.51-1.85-8.63 2.37.51 1.85z" id="Q"/><path d="M80.06 407.73l21.48 41.34-53.03 27.56-21.47-41.33 53.02-27.57z" id="R"/><path d="M76.35 446.23l-4.34 2.26-4.68-9.01-4.95 2.57 4.13 7.95-4.24 2.2-4.13-7.94-5.11 2.66 4.68 9-4.77 2.48-8.53-16.42 23.4-12.17 8.54 16.42z" id="S"/><path d="M93.35 441.18l30.08 37.64-59.68 47.69-30.08-37.65 59.68-47.68z" id="T"/><path d="M82.71 471.31l-3.73-4.66 4.75-3.8 12.76 15.96-4.76 3.8-3.8-4.77-15.86 12.67-5.22-6.52 15.86-12.68z" id="U"/><path d="M135.65 481.91l31.44 34.29-56.34 51.68-31.44-34.3 56.34-51.67z" id="V"/><path d="M123.79 511.24c2.66-.87 4.77-.57 5.29-.63 2.65.24 4.59 1.35 5.1 1.5 2.46 1.27 3.98 3.08 4.42 3.42 1.38 1.5 2.26 2.98 2.51 3.32.76 1.21 1.36 2.56 1.79 4.05-3.1 1.91-4.83 2.97-5.18 3.18-.45-1.81-1.08-2.97-1.2-3.3-.76-1.49-1.5-2.23-1.66-2.48-1.1-1.19-2.13-1.6-2.37-1.78-1.25-.59-2.34-.51-2.6-.57-1.35.02-2.46.57-2.73.63-1.38.63-2.44 1.67-2.71 1.85-1.34 1.23-1.87 2.29-2.08 2.54-.73 1.33-.78 2.41-.87 2.67-.14 1.34.3 2.39.34 2.66.48 1.3 1.42 2.25 1.58 2.5.91.99 2.09 1.68 2.32 1.87.94.58 2 1.08 3.18 1.48-2.17 2.94-3.37 4.56-3.62 4.89-2.15-.86-3.45-1.96-3.84-2.17-1.69-1.31-2.76-2.52-3.07-2.8-1.97-2.15-2.73-4.22-3.03-4.69-1.05-2.56-.97-4.67-1.08-5.19-.02-2.64.96-4.69 1.07-5.21.73-1.7 1.88-3.27 3.45-4.71 2.99-1.82 4.66-2.83 4.99-3.03z" id="W"/><path d="M160.24 510.63l39.37 27.79-38.43 54.46-39.38-27.79 38.44-54.46z" id="X"/><path d="M162.78 570.48l-8.14-5.75 2.23-5.3-5.35-3.77-4.2 3.91-5.5-3.88 20.7-17.68 9.54 6.73-9.28 25.74zm-3.72-14.85l5.29-11.31-.48-.34-9.17 8.57 4.36 3.08z" id="Y"/><path d="M189.74 535.84l49.86 21.25-23.84 55.92-49.87-21.24 23.85-55.93z" id="Z"/><path d="M205.55 565.46l.33.15.31.16.3.15.28.15.27.16.25.15.23.14.23.15.21.14.19.13.18.13.17.13.16.11.14.11.13.11.12.09.11.09.09.07.09.07.07.05.07.04.22.21.21.2.2.2.18.2.17.19.16.19.16.18.13.18.13.17.12.16.11.16.1.15.1.14.08.14.08.12.07.12.06.11.06.09.05.09.05.07.04.06.03.05.11.23.1.22.1.22.08.21.07.2.07.2.05.19.05.19.05.18.04.17.03.17.03.15.02.15.02.14.02.13.02.12.01.11.01.1.01.09.01.07.01.07.02.05v.44l-.01.21-.01.2-.02.2-.02.19-.03.18-.03.17-.03.17-.03.15-.04.15-.04.14-.04.13-.03.12-.04.12-.03.1-.03.09-.03.09-.03.08-.02.06-.01.06-.02.05-.06.15-.07.14-.06.15-.07.13-.07.14-.07.12-.06.13-.07.11-.06.12-.06.1-.06.11-.06.09-.06.09-.05.09-.05.08-.05.07-.04.07-.04.06-.03.05-.03.04-.02.04-.02.04-.1.13-.09.13-.1.12-.09.11-.1.11-.1.11-.09.1-.09.1-.09.09-.09.08-.09.08-.08.08-.08.07-.08.06-.07.07-.06.05-.06.05-.06.05-.05.04-.04.03-.03.03-.03.03-.13.1-.14.08-.13.09-.14.08-.13.07-.14.07-.13.07-.13.06-.12.05-.12.05-.12.05-.12.05-.11.04-.1.03-.1.04-.09.03-.08.02-.07.03-.07.02-.05.02-.05.02-.04.01-.18.05-.18.04-.18.03-.18.03-.17.02-.18.02-.17.01-.17.01-.17.01h-.74l-.13-.01h-.11l-.11-.01h-.1l-.08-.01h-.19l-.01.11-.01.12v.12l-.01.11v.12l-.01.12v.36l.01.11v.32l.01.1v.17l.01.08v.19l.01.04v.04l.01.17.01.18.01.17.01.17.02.17.01.17.02.16.01.15.02.16.01.15.01.14.02.13.01.13.01.12.02.12.01.1.01.1.01.09v.08l.01.06.01.06v.04l.03.21.02.21.02.2.03.2.02.19.03.19.02.18.03.18.02.17.02.17.02.16.02.15.02.14.02.14.02.12.02.12.02.2.02.09.01.07v.06l.01.05.02.15.03.16.02.15.02.15.02.15.02.14.03.15.02.15.02.15.02.15.03.14.02.15.02.15.02.14.02.15.03.14.02.15.02.14.02.14.03.15.02.14.02.14-8.79-3.74v-1.58l.01-.25v-.25l.01-.23v-.23l.01-.22v-.21l.01-.2.01-.19v-.18l.01-.16v-.15l.01-.14v-.12l.01-.1v-.16l.01-.22.01-.22.02-.22.02-.22.02-.22.02-.23.02-.22.02-.23.03-.23.03-.22.03-.23.03-.23.04-.23.03-.23.04-.24.04-.23.04-.23.04-.24.05-.23.05-.24.05-.24.05-.24-2.2-.93-3.51 8.23-7.69-3.27 10.35-24.27 10.91 4.65.35.15zm-7.46 11.22l2.34.59.58-.01.47-.06.38-.08.26-.07.17-.04.43-.21.34-.22.26-.2.19-.17.11-.1.29-.34.22-.31.16-.28.1-.2.07-.13.28-.74.15-.61.08-.48.03-.34.03-.2-.05-.56-.11-.46-.12-.35-.12-.26-.06-.15-.29-.42-.3-.34-.28-.26-.22-.18-.14-.11-.32-.21-.34-.2-.35-.2-.37-.18-.38-.17-1.29-.55-3.51 8.24 1.31.56z" id="aa"/><path d="M219.93 552.94l45.43 10.23-11.55 51.26-45.43-10.23 11.55-51.26z" id="ab"/><path d="M246.95 580.6l-1.07 4.77-9.9-2.23-1.23 5.44 8.74 1.96-1.05 4.66-8.74-1.96-1.26 5.62 9.9 2.23-1.18 5.24-18.06-4.06 5.8-25.74 18.05 4.07z" id="ac"/><path d="M365.83 568.5l54.2-17.63 17.37 53.36-54.19 17.64-17.38-53.37z" id="ad"/><path d="M403.69 584.81c-1.06-.03-1.99.05-2.21.06-1.14.07-2.05.24-2.27.26-1.14.18-1.89.44-2.1.49-1.67.54-2.22 1.15-2.47 1.27-.8.74-.42 1.57-.47 1.75.15.48.53.67.59.74.46.25 1.05.34 1.16.37.71.11 1.47.12 1.64.14.63 0 1.32 0 2.07-.01.86-.01 1.34-.01 1.43-.01 1.8-.04 2.99.22 3.32.25 1.52.27 2.45.84 2.72.94 1.21.64 1.88 1.54 2.09 1.71.88 1.07 1.25 2.37 1.39 2.63.59 1.83.45 3.17.5 3.53-.09 1.67-.87 2.82-.96 3.14-.88 1.46-2.35 2.4-2.61 2.67-1.7 1.2-3.94 1.86-4.38 2.07-2.38.78-4.38 1.04-4.87 1.15-1.64.25-3.37.31-5.18.18-1.14-3.51-1.78-5.46-1.9-5.86 2.67.43 4.49.25 4.99.28 2.34-.17 3.99-.77 4.43-.85 1.72-.56 2.09-1.23 2.32-1.37.62-.81.28-1.6.31-1.78-.19-.59-.57-.81-.63-.9-.42-.33-1.07-.42-1.19-.47-.76-.15-1.73-.15-1.92-.16-1.17-.03-2.53-.01-2.81-.01-1.63.04-2.82-.2-3.13-.22-1.48-.26-2.44-.81-2.71-.9-1.23-.66-1.96-1.57-2.17-1.75-.93-1.09-1.31-2.43-1.45-2.7-.55-1.67-.37-2.92-.41-3.24.13-1.58.92-2.65 1.02-2.95.88-1.38 2.3-2.28 2.55-2.53 1.68-1.16 3.81-1.79 4.24-1.99 1.01-.33 1.96-.55 2.17-.61 1.17-.28 2.16-.44 2.4-.48 1.24-.21 2.24-.28 2.49-.31.83-.06 1.63-.07 2.4-.03l1.52 5.58c-1.14-.05-1.78-.07-1.91-.08z" id="ae"/><path d="M408.4 558.47l44.67-22.68 22.08 43.44-44.68 22.68-22.07-43.44z" id="af"/><path d="M446.86 562.55l2.22 4.36-9.05 4.59 2.53 4.97 7.98-4.05 2.16 4.26-7.98 4.05 2.61 5.14 9.05-4.59 2.44 4.79-16.51 8.37-11.95-23.51 16.5-8.38z" id="ag"/><path d="M443.26 542.06l45.1-34.86 37.6 48.66-45.09 34.86-37.61-48.66z" id="ah"/><path d="M485.41 539.88l.23.03.23.03.21.04.21.04.2.04.18.05.18.05.17.05.16.05.15.05.14.05.13.05.13.05.11.05.1.04.09.03.08.04.08.03.06.02.05.01.2.11.19.1.18.11.17.11.16.11.15.12.15.11.13.11.13.11.12.1.11.11.11.1.09.09.09.1.08.08.08.08.06.08.06.06.06.06.05.05.04.05.03.03.1.13.1.13.09.13.09.12.08.12.08.12.07.12.07.12.07.11.06.1.06.11.06.1.05.09.05.09.04.08.05.07.03.07.04.06.03.06.02.05.03.04.01.03.07.15.07.14.06.15.05.14.05.13.05.14.04.13.04.13.03.12.03.12.03.12.03.11.02.1.02.1.02.09.01.08.02.08.01.07.01.06.01.06.01.04.01.04.02.16.01.16.01.16.01.16-.01.15v.15l-.01.15-.01.14-.01.14-.02.13-.01.13-.02.12-.02.11-.02.11-.01.1-.02.09-.02.09-.01.07-.01.07-.01.06-.01.05-.01.04-.04.18-.06.18-.06.17-.06.17-.07.16-.07.17-.07.15-.07.16-.08.15-.07.14-.08.13-.07.13-.08.13-.06.11-.07.11-.06.1-.06.09-.05.08-.05.08-.03.06-.03.05-.03.05.1.06.09.06.1.07.1.06.11.06.1.06.1.06.1.06.11.05.1.06.09.05.1.05.09.05.09.04.08.04.07.04.07.04.07.03.05.03.05.02.04.02.03.02.16.07.16.08.15.07.16.07.15.08.15.06.15.07.15.06.14.07.13.06.13.05.13.06.12.05.11.05.11.04.09.04.09.04.08.04.08.03.06.02.05.03.04.01.19.09.19.07.19.08.19.08.18.07.18.07.17.07.17.07.16.06.15.06.15.06.14.06.14.05.13.05.11.04.11.05.1.04.09.03.08.03.07.03.06.02.05.02.14.05.14.06.15.05.14.06.14.05.14.05.14.06.14.05.14.05.14.06.14.05.14.05.14.05.13.05.14.06.14.05.14.05.13.05.14.05.14.05.13.05.14.05-7.56 5.84-.24-.13-.23-.13-.24-.13-.22-.12-.23-.13-.22-.13-.22-.13-.21-.12-.2-.12-.2-.12-.19-.11-.18-.11-.17-.1-.16-.1-.15-.09-.15-.08-.12-.08-.12-.07-.1-.06-.09-.06-.08-.04-.06-.04-.18-.11-.19-.12-.18-.12-.19-.13-.18-.12-.19-.13-.18-.13-.19-.13-.18-.13-.19-.14-.18-.14-.19-.14-.18-.14-.19-.15-.18-.14-.19-.15-.18-.15-.18-.15-.19-.16-.18-.16-.18-.16-.19-.16-1.89 1.46 5.48 7.09-6.61 5.11-16.14-20.87 9.39-7.26.3-.23.3-.21.28-.2.28-.18.27-.17.27-.16.25-.15.24-.13.24-.13.22-.11.21-.11.21-.09.19-.09.18-.08.16-.07.16-.06.14-.06.12-.05.12-.05.09-.04.09-.04.06-.04.29-.09.28-.08.27-.08.26-.06.26-.06.24-.05.23-.04.22-.04.22-.03.2-.02.19-.02.18-.01.17-.02h.16l.15-.01h.13l.13-.01h.21l.08-.01h.08l.06-.01.25.01.24.02zm-5.43 6.38l-.37.12-.27.11-.16.06-.34.18-.34.2-.34.21-.33.23-.34.25-1.11.86 5.48 7.09 1.12-.87 1.66-1.76.28-.51.18-.44.11-.36.06-.27.05-.17.03-.47-.02-.41-.06-.33-.05-.24-.03-.15-.16-.42-.17-.34-.16-.27-.13-.2-.07-.12-.52-.6-.45-.44-.38-.29-.28-.2-.17-.12-.51-.23-.45-.13-.37-.06-.28-.03-.16-.02-.51.05-.44.09z" id="ai"/><path d="M478.04 513.65l44.8-44.76 48.7 48.71-44.79 44.75-48.71-48.7z" id="aj"/><path d="M507.84 513.63l16.64 11.2-10.73-17.11 4.65-4.64 13.6 23.7-8.04 8.03-23.3-14.01 7.18-7.17z" id="ak"/><path d="M506.67 486.19l43.14-56.49 55.81 42.65-43.14 56.49-55.81-42.65z" id="al"/><path d="M536.93 481.25l20.96 16.02-5.08 6.64-20.96-16.02 5.08-6.64z" id="am"/><path d="M522.37 473.64l28.1-60.54 68.52 31.81-28.1 60.55-68.52-31.82z" id="an"/><path d="M554.01 473.34c-1.83-2.13-2.36-4.19-2.62-4.65-.8-2.53-.51-4.76-.57-5.29.23-2.75 1.31-4.85 1.45-5.39.86-1.85 1.89-3.23 2.1-3.59.83-1.17 1.85-2.24 3.06-3.21 2.95 2.13 4.59 3.32 4.92 3.56-1.5 1.11-2.32 2.14-2.58 2.38-1.08 1.27-1.48 2.24-1.65 2.48-.68 1.48-.66 2.59-.73 2.87-.07 1.39.42 2.36.47 2.63.53 1.23 1.47 2.05 1.63 2.28 1.11 1.03 2.48 1.61 2.75 1.79 1.64.76 2.83.85 3.14.94 1.51.17 2.52-.2 2.8-.22 1.29-.39 2.09-1.2 2.32-1.33 1.02-.95 1.53-2.18 1.7-2.42.57-1.22.75-2.58.84-2.86.17-1.1.22-2.27.14-3.51 3.54.88 5.51 1.37 5.9 1.46.04 2.32-.47 3.95-.53 4.38-.55 2.07-1.26 3.53-1.4 3.92-1.23 2.64-2.85 4.14-3.16 4.6-1.96 1.95-3.94 2.69-4.37 2.99-2.44 1.03-4.7.91-5.22 1.01-1.86-.02-3.75-.48-5.68-1.38-2.83-2.07-4.4-3.21-4.71-3.44z" id="ao"/><path d="M542.56 442.27l19.48-58.78 65.4 21.66-19.48 58.78-65.4-21.66z" id="ap"/><path d="M572.75 418.09l4.64 1.54-3.2 9.63 5.3 1.76 2.82-8.5 4.53 1.5-2.82 8.5 5.48 1.81 3.19-9.63 5.1 1.69-5.82 17.56-25.05-8.29 5.83-17.57z" id="aq"/><path d="M557.25 410.51l10.95-65.85 52.19 8.65-10.94 65.85-52.2-8.65z" id="ar"/><path d="M590.4 384.79c-.51.94-.87 1.79-.97 1.99-.46 1.04-.73 1.93-.81 2.14-.37 1.09-.48 1.88-.53 2.09-.29 1.73-.01 2.5-.01 2.77.28 1.05 1.19 1.1 1.33 1.23.49.08.84-.17.94-.19.42-.29.77-.77.86-.86.41-.57.78-1.25.87-1.38.29-.56.61-1.18.95-1.85.39-.77.6-1.19.65-1.28.79-1.6 1.58-2.54 1.75-2.82.94-1.23 1.88-1.79 2.09-1.98 1.13-.78 2.24-.96 2.49-1.07 1.35-.28 2.67-.01 2.97-.02 1.89.32 3.02 1.07 3.36 1.18 1.44.85 2.1 2.07 2.34 2.3.89 1.46 1.05 3.19 1.17 3.54.28 2.07-.17 4.37-.18 4.85-.41 2.47-1.1 4.36-1.22 4.85-.54 1.57-1.29 3.13-2.24 4.68-3.64-.61-5.67-.94-6.07-1.01 1.61-2.17 2.29-3.87 2.55-4.3.92-2.16 1.16-3.9 1.28-4.33.3-1.78-.12-2.42-.14-2.69-.43-.92-1.3-.98-1.44-1.09-.61-.1-.98.13-1.08.14-.49.22-.88.76-.98.84-.47.61-.92 1.47-1.02 1.63-.57 1.02-1.17 2.24-1.3 2.49-.72 1.47-1.48 2.41-1.64 2.68-.92 1.19-1.85 1.79-2.05 1.98-1.16.8-2.3 1.02-2.55 1.13-1.4.32-2.77.04-3.07.04-1.73-.28-2.76-1.02-3.07-1.13-1.33-.85-1.92-2.04-2.14-2.26-.82-1.43-.97-3.09-1.07-3.44-.25-2.02.17-4.2.19-4.67.17-1.05.41-1.99.46-2.21.29-1.17.61-2.12.67-2.35.39-1.2.8-2.12.89-2.35.32-.77.68-1.48 1.07-2.15l5.66 1.22c-.57 1-.89 1.55-.96 1.66z" id="as"/><path d="M175.36 26.13l53.59-19.25 25.13 70.13-53.59 19.26-25.13-70.14z" id="at"/><path d="M235.57 64.64l-11.94 4.29-8.14-10.28-1.11 13.6-9.01 3.24 2.19-18.23-13.31-12.82 11.94-4.29 8.68 9.31 1.15-12.85 8.43-3.02-2.14 18.37 13.26 12.68z" id="au"/></defs><use xlink:href="#a" fill-opacity="0"/><use xlink:href="#a" fill-opacity="0" stroke="#000" stroke-opacity="0"/><use xlink:href="#b" fill="url(#c)"/><use xlink:href="#b" fill-opacity="0" stroke="#000" stroke-opacity="0"/><use xlink:href="#d" fill="url(#e)"/><use xlink:href="#d" fill-opacity="0" stroke="#000" stroke-opacity="0"/><use xlink:href="#f" fill-opacity="0"/><use xlink:href="#f" fill-opacity="0" stroke="#000" stroke-width="8"/><use xlink:href="#g" fill-opacity="0"/><use xlink:href="#g" fill-opacity="0" stroke="#000" stroke-opacity="0"/><use xlink:href="#h" fill-opacity="0"/><use xlink:href="#h" fill-opacity="0" stroke="#000" stroke-width="8"/><use xlink:href="#i" fill-opacity="0"/><use xlink:href="#i" fill-opacity="0" stroke="#000" stroke-opacity="0"/><use xlink:href="#j" fill-opacity="0"/><use xlink:href="#j" fill-opacity="0" stroke="#000" stroke-width="8"/><use xlink:href="#k" fill="url(#l)"/><use xlink:href="#k" fill-opacity="0" stroke="#000" stroke-opacity="0"/><use xlink:href="#m" fill-opacity="0"/><use xlink:href="#m" fill-opacity="0" stroke="#000" stroke-width="4"/><use xlink:href="#n" fill="url(#o)"/><use xlink:href="#n" fill-opacity="0" stroke="#000" stroke-opacity="0"/><use xlink:href="#p" fill-opacity="0"/><use xlink:href="#p" fill-opacity="0" stroke="#000" stroke-width="4"/><use xlink:href="#q" fill="url(#r)"/><use xlink:href="#q" fill-opacity="0" stroke="#000" stroke-opacity="0"/><use xlink:href="#s" fill-opacity="0"/><use xlink:href="#s" fill-opacity="0" stroke="#000" stroke-width="4"/><use xlink:href="#t" fill="url(#u)"/><use xlink:href="#t" fill-opacity="0" stroke="#000" stroke-opacity="0"/><use xlink:href="#v" fill-opacity="0"/><use xlink:href="#v" fill-opacity="0" stroke="#000" stroke-width="4"/><use xlink:href="#w" fill="url(#x)"/><use xlink:href="#w" fill-opacity="0" stroke="#000" stroke-opacity="0"/><use xlink:href="#y" fill-opacity="0"/><use xlink:href="#y" fill-opacity="0" stroke="#000" stroke-width="3"/><use xlink:href="#z" fill-opacity="0"/><use xlink:href="#z" fill-opacity="0" stroke="#000" stroke-opacity="0"/><use xlink:href="#A"/><use xlink:href="#A" fill-opacity="0" stroke="#000" stroke-opacity="0"/><use xlink:href="#B" fill-opacity="0"/><use xlink:href="#B" fill-opacity="0" stroke="#000" stroke-opacity="0"/><use xlink:href="#C"/><use xlink:href="#C" fill-opacity="0" stroke="#000" stroke-opacity="0"/><use xlink:href="#D" fill-opacity="0"/><use xlink:href="#D" fill-opacity="0" stroke="#000" stroke-opacity="0"/><use xlink:href="#E" fill="#222"/><use xlink:href="#E" fill-opacity="0" stroke="#000" stroke-opacity="0"/><use xlink:href="#F" fill-opacity="0"/><use xlink:href="#F" fill-opacity="0" stroke="#000" stroke-opacity="0"/><use xlink:href="#G" fill="#222"/><use xlink:href="#G" fill-opacity="0" stroke="#000" stroke-opacity="0"/><use xlink:href="#H" fill-opacity="0"/><use xlink:href="#H" fill-opacity="0" stroke="#000" stroke-opacity="0"/><use xlink:href="#I"/><use xlink:href="#I" fill-opacity="0" stroke="#000" stroke-opacity="0"/><use xlink:href="#J" fill-opacity="0"/><use xlink:href="#J" fill-opacity="0" stroke="#000" stroke-opacity="0"/><use xlink:href="#K"/><use xlink:href="#K" fill-opacity="0" stroke="#000" stroke-opacity="0"/><use xlink:href="#L" fill-opacity="0"/><use xlink:href="#L" fill-opacity="0" stroke="#000" stroke-opacity="0"/><use xlink:href="#M"/><use xlink:href="#M" fill-opacity="0" stroke="#000" stroke-opacity="0"/><use xlink:href="#N" fill-opacity="0"/><use xlink:href="#N" fill-opacity="0" stroke="#000" stroke-opacity="0"/><use xlink:href="#O"/><use xlink:href="#O" fill-opacity="0" stroke="#000" stroke-opacity="0"/><g fill-opacity="0"><use xlink:href="#P"/><use xlink:href="#P" stroke="#000" stroke-opacity="0"/></g><use xlink:href="#Q"/><use xlink:href="#Q" fill-opacity="0" stroke="#000" stroke-opacity="0"/><g fill-opacity="0"><use xlink:href="#R"/><use xlink:href="#R" stroke="#000" stroke-opacity="0"/></g><use xlink:href="#S"/><use xlink:href="#S" fill-opacity="0" stroke="#000" stroke-opacity="0"/><g fill-opacity="0"><use xlink:href="#T"/><use xlink:href="#T" stroke="#000" stroke-opacity="0"/></g><use xlink:href="#U"/><use xlink:href="#U" fill-opacity="0" stroke="#000" stroke-opacity="0"/><g fill-opacity="0"><use xlink:href="#V"/><use xlink:href="#V" stroke="#000" stroke-opacity="0"/></g><use xlink:href="#W"/><use xlink:href="#W" fill-opacity="0" stroke="#000" stroke-opacity="0"/><g fill-opacity="0"><use xlink:href="#X"/><use xlink:href="#X" stroke="#000" stroke-opacity="0"/></g><use xlink:href="#Y"/><use xlink:href="#Y" fill-opacity="0" stroke="#000" stroke-opacity="0"/><g fill-opacity="0"><use xlink:href="#Z"/><use xlink:href="#Z" stroke="#000" stroke-opacity="0"/></g><use xlink:href="#aa"/><use xlink:href="#aa" fill-opacity="0" stroke="#000" stroke-opacity="0"/><g fill-opacity="0"><use xlink:href="#ab"/><use xlink:href="#ab" stroke="#000" stroke-opacity="0"/></g><use xlink:href="#ac"/><use xlink:href="#ac" fill-opacity="0" stroke="#000" stroke-opacity="0"/><g fill-opacity="0"><use xlink:href="#ad"/><use xlink:href="#ad" stroke="#000" stroke-opacity="0"/></g><use xlink:href="#ae"/><use xlink:href="#ae" fill-opacity="0" stroke="#000" stroke-opacity="0"/><g fill-opacity="0"><use xlink:href="#af"/><use xlink:href="#af" stroke="#000" stroke-opacity="0"/></g><use xlink:href="#ag"/><use xlink:href="#ag" fill-opacity="0" stroke="#000" stroke-opacity="0"/><g fill-opacity="0"><use xlink:href="#ah"/><use xlink:href="#ah" stroke="#000" stroke-opacity="0"/></g><use xlink:href="#ai"/><use xlink:href="#ai" fill-opacity="0" stroke="#000" stroke-opacity="0"/><g fill-opacity="0"><use xlink:href="#aj"/><use xlink:href="#aj" stroke="#000" stroke-opacity="0"/></g><use xlink:href="#ak"/><use xlink:href="#ak" fill-opacity="0" stroke="#000" stroke-opacity="0"/><g fill-opacity="0"><use xlink:href="#al"/><use xlink:href="#al" stroke="#000" stroke-opacity="0"/></g><use xlink:href="#am"/><use xlink:href="#am" fill-opacity="0" stroke="#000" stroke-opacity="0"/><g fill-opacity="0"><use xlink:href="#an"/><use xlink:href="#an" stroke="#000" stroke-opacity="0"/></g><use xlink:href="#ao"/><use xlink:href="#ao" fill-opacity="0" stroke="#000" stroke-opacity="0"/><g fill-opacity="0"><use xlink:href="#ap"/><use xlink:href="#ap" stroke="#000" stroke-opacity="0"/></g><use xlink:href="#aq"/><use xlink:href="#aq" fill-opacity="0" stroke="#000" stroke-opacity="0"/><g fill-opacity="0"><use xlink:href="#ar"/><use xlink:href="#ar" stroke="#000" stroke-opacity="0"/></g><use xlink:href="#as"/><use xlink:href="#as" fill-opacity="0" stroke="#000" stroke-opacity="0"/><g fill-opacity="0"><use xlink:href="#at"/><use xlink:href="#at" stroke="#000" stroke-opacity="0"/></g><use xlink:href="#au"/><use xlink:href="#au" fill-opacity="0" stroke="#000" stroke-opacity="0"/></svg>