<svg viewBox="0 0 720 540" fill="none" stroke-linecap="square" stroke-miterlimit="10" xmlns="http://www.w3.org/2000/svg"><clipPath id="a"><path d="M0 0h720v540H0V0z"/></clipPath><g clip-path="url(#a)"><path d="M0 0h720v540H0z"/><defs><radialGradient id="b" gradientUnits="userSpaceOnUse" gradientTransform="scale(17.29271)" spreadMethod="pad" cx="20.837" cy="15.696" fx="20.837" fy="15.696" r="17.293"><stop offset="0" stop-color="#fff6db"/><stop offset="1" stop-color="#fad25c"/></radialGradient></defs><path fill="url(#b)" d="M150 271.42c0-117.398 94.168-212.567 210.33-212.567 55.784 0 109.282 22.395 148.727 62.26 39.445 39.863 61.604 93.93 61.604 150.307 0 117.397-94.168 212.567-210.33 212.567C244.168 483.987 150 388.817 150 271.42z" fill-rule="evenodd"/><defs><radialGradient id="c" gradientUnits="userSpaceOnUse" gradientTransform="rotate(.027) scale(11.88366)" spreadMethod="pad" cx="30.189" cy="16.99" fx="30.189" fy="16.99" r="11.884"><stop offset="0" stop-color="#f5d0d0"/><stop offset="1" stop-color="#d96868"/></radialGradient></defs><path fill="url(#c)" d="M358.75 150.33c41.49-117.438 203.3 0 0 150.993-203.298-150.992-41.489-268.43 0-150.992z" fill-rule="evenodd"/><path stroke="#000" stroke-width="8" stroke-linejoin="round" stroke-linecap="butt" d="M358.75 150.33c41.49-117.438 203.3 0 0 150.993-203.298-150.992-41.489-268.43 0-150.992z"/><path d="M358.75 150.33l.253 151.686"/><path stroke="#000" stroke-width="8" stroke-linejoin="round" stroke-linecap="butt" d="M358.75 150.33l.253 151.686"/><path d="M358.999 210l46.268 46.268-47.496 47.496-46.268-46.268z"/><path stroke="#000" stroke-width="8" stroke-linejoin="round" stroke-linecap="butt" d="M358.999 210l46.268 46.268-47.496 47.496-46.268-46.268z"/><defs><linearGradient id="d" gradientUnits="userSpaceOnUse" gradientTransform="rotate(15.885) scale(12.47137)" spreadMethod="pad" x1="19.798" y1="11.055" x2="19.798" y2="23.05"><stop offset="0" stop-color="#3177ee"/><stop offset="1" stop-color="#113d8a"/></linearGradient></defs><path fill="url(#d)" d="M179.27 272.127c11.315-39.73 40.78-66.163 65.81-59.04 12.02 3.42 21.39 14.28 26.048 30.19 4.657 15.91 4.22 35.566-1.213 54.645-11.315 39.73-40.78 66.162-65.811 59.04-25.031-7.124-36.15-45.106-24.835-84.835z" fill-rule="evenodd"/><path stroke="#000" stroke-width="4" stroke-linejoin="round" stroke-linecap="butt" d="M179.27 272.127h0c11.315-39.73 40.78-66.163 65.81-59.04h0c12.02 3.42 21.39 14.28 26.048 30.19 4.657 15.91 4.22 35.566-1.213 54.645h0c-11.315 39.73-40.78 66.162-65.811 59.04h0c-25.031-7.124-36.15-45.106-24.835-84.835z"/><defs><linearGradient id="e" gradientUnits="userSpaceOnUse" gradientTransform="rotate(14.247) scale(11.77996)" spreadMethod="pad" x1="28.714" y1="18.624" x2="28.714" y2="30.042"><stop offset="0" stop-color="#3177ee"/><stop offset="1" stop-color="#113d8a"/></linearGradient></defs><path fill="url(#e)" d="M257.31 361.068c9.14-35.998 36.405-60.14 60.897-53.921 11.761 2.986 21.297 12.718 26.51 27.053 5.213 14.335 5.675 32.1 1.285 49.388-9.14 35.998-36.406 60.14-60.897 53.921-24.492-6.218-36.937-40.442-27.796-76.44z" fill-rule="evenodd"/><path stroke="#000" stroke-width="4" stroke-linejoin="round" stroke-linecap="butt" d="M257.31 361.068h0c9.14-35.998 36.405-60.14 60.897-53.921h0c11.761 2.986 21.297 12.718 26.51 27.053 5.213 14.335 5.675 32.1 1.285 49.388h0c-9.14 35.998-36.406 60.14-60.897 53.921h0c-24.492-6.218-36.937-40.442-27.796-76.44z"/><defs><linearGradient id="f" gradientUnits="userSpaceOnUse" gradientTransform="rotate(-6.198) scale(11.6581)" spreadMethod="pad" x1="27.533" y1="29.822" x2="27.533" y2="41.412"><stop offset="0" stop-color="#3177ee"/><stop offset="1" stop-color="#113d8a"/></linearGradient></defs><path fill="url(#f)" d="M363.935 378.147c-4.018-37.094 12.656-69.33 37.244-72 11.807-1.282 23.897 4.565 33.611 16.254 9.713 11.69 16.254 28.264 18.184 46.077 4.018 37.094-12.656 69.33-37.244 72-24.588 2.67-47.777-25.236-51.795-62.33z" fill-rule="evenodd"/><path stroke="#000" stroke-width="4" stroke-linejoin="round" stroke-linecap="butt" d="M363.935 378.147h0c-4.018-37.094 12.656-69.33 37.244-72h0c11.807-1.282 23.897 4.565 33.611 16.254 9.713 11.69 16.254 28.264 18.184 46.077h0c4.018 37.094-12.656 69.33-37.244 72h0c-24.588 2.67-47.777-25.236-51.795-62.33z"/><defs><linearGradient id="g" gradientUnits="userSpaceOnUse" gradientTransform="rotate(-20.163) scale(12.18843)" spreadMethod="pad" x1="25.461" y1="29.987" x2="25.461" y2="41.428"><stop offset="0" stop-color="#3177ee"/><stop offset="1" stop-color="#113d8a"/></linearGradient></defs><path fill="url(#g)" d="M441.322 301.585c-13.28-36.147-3.847-72.867 21.071-82.016 11.966-4.394 25.976-1.712 38.947 7.455 12.97 9.167 23.84 24.069 30.218 41.427 13.281 36.146 3.848 72.866-21.07 82.015-24.919 9.15-55.885-12.735-69.166-48.881z" fill-rule="evenodd"/><path stroke="#000" stroke-width="4" stroke-linejoin="round" stroke-linecap="butt" d="M441.322 301.585h0c-13.28-36.147-3.847-72.867 21.071-82.016h0c11.966-4.394 25.976-1.712 38.947 7.455 12.97 9.167 23.84 24.069 30.218 41.427h0c13.281 36.146 3.848 72.866-21.07 82.015h0c-24.919 9.15-55.885-12.735-69.166-48.881z"/><defs><radialGradient id="h" gradientUnits="userSpaceOnUse" gradientTransform="rotate(.015) scale(19.46816)" spreadMethod="pad" cx="18.492" cy="13.869" fx="18.492" fy="13.869" r="19.468"><stop offset="0" stop-color="#dcecd5"/><stop offset="1" stop-color="#93bc81"/></radialGradient></defs><path fill="url(#h)" d="M92 270C92 121.988 211.988 2 360 2a268 268 0 0 1 268 268c0 148.012-119.988 268-268 268S92 418.012 92 270zm56.334 0c0 116.9 94.766 211.666 211.666 211.666 116.9 0 211.666-94.766 211.666-211.666C571.666 153.1 476.9 58.334 360 58.334 243.1 58.334 148.334 153.1 148.334 270z" fill-rule="evenodd"/><path stroke="#000" stroke-width="3" stroke-linejoin="round" stroke-linecap="butt" d="M92 270h0C92 121.988 211.988 2 360 2h0a268 268 0 0 1 268 268h0c0 148.012-119.988 268-268 268h0C211.988 538 92 418.012 92 270zm56.334 0h0c0 116.9 94.766 211.666 211.666 211.666 116.9 0 211.666-94.766 211.666-211.666h0C571.666 153.1 476.9 58.334 360 58.334h0C243.1 58.334 148.334 153.1 148.334 270z"/><path d="M149.106 94.764l27.559-27.591 31.81 31.811-27.558 27.59z"/><path fill="#000" d="M171.801 100.024l7.53-7.539q1.966-1.968 3.69-3.206 1.722-1.238 3.257-1.89 1.535-.653 2.883-.742 1.347-.111 2.518.198 1.17.287 2.198.96 1.017.664 1.912 1.559.762.762 1.348 1.701.585.917.873 2.022.276 1.095.2 2.365-.078 1.271-.63 2.708-.54 1.426-1.633 3.029-1.105 1.592-2.85 3.338-.253.255-.629.63-.375.354-.773.686l-.905.796 6.728 6.728-6.183 6.191-19.534-19.534zm15.995 3.62l1.413-1.414q.994-.995 1.424-1.913.442-.928.442-1.746 0-.84-.387-1.58-.387-.74-1.039-1.392-1.038-1.039-1.977-1.448-.928-.42-1.812-.353t-1.7.553q-.818.487-1.58 1.25l-1.413 1.415 6.629 6.629z"/><path d="M191.07 54.985l31.968-20.693 24.536 37.764-31.969 20.693z"/><path fill="#000" d="M247.155 75.145l-8.749 5.663-4.29-4.222-5.745 3.719 2.165 5.597-5.916 3.83-9.148-26.986 10.258-6.64 21.425 19.039zm-25.341-11.386l4.758 12.257 4.696-3.04-8.956-9.54-.498.323z"/><path d="M92 232.992h64v74.016H92z"/><path fill="#222" d="M103.5 266.415h16.766l5.203-16.563 5.203 16.563h16.766l-13.688 9.453 5.016 15.984-13.297-9.828-13.297 9.828 5.016-15.984-13.688-9.453z"/><path d="M567.614 231.542h53.008v73.165h-53.008z"/><path fill="#222" d="M579.114 264.964h16.766l5.203-16.562 5.203 16.562h16.766l-13.688 9.454 5.016 15.984-13.297-9.828-13.297 9.828 5.016-15.984-13.688-9.454z"/><path d="M422.525 4.716l51.905 10.708-11.118 53.859-51.905-10.709z"/><path fill="#000" d="M430.6 26.573l10.437 2.154q2.724.562 4.705 1.321 1.981.76 3.37 1.685 1.388.924 2.203 2.002.833 1.065 1.218 2.213.404 1.137.406 2.365.004 1.214-.252 2.453-.217 1.056-.68 2.062-.445.993-1.21 1.84-.762.832-1.866 1.466-1.104.633-2.608.961-1.488.332-3.427.298-1.937-.048-4.355-.547l-.872-.18q-.502-.12-.997-.27l-1.163-.32-1.924 9.32-8.57-1.768 5.586-27.055zm5.765 15.357l1.959.404q1.377.284 2.38.14 1.018-.14 1.701-.59.702-.462 1.108-1.192.406-.73.592-1.632.297-1.439.123-2.448-.16-1.006-.7-1.708-.542-.702-1.397-1.118-.856-.416-1.912-.633l-1.958-.405-1.896 9.182z"/><path d="M509.321 38.322l41.575 32.882-45.386 57.354-41.575-32.882z"/><path fill="#000" d="M512.95 81.704l-11.914 10.498-9.057-7.163 13.22-24.765 7.746 6.126-11.58 19.09 16.42-15.261 6.533 5.166-11.133 19.483 16.035-15.606 5.392 4.265-20.574 18.949-8.333-6.591 7.245-14.191z"/><path d="M472.431 16.917l39.78 21.04-25.67 48.66-39.779-21.039z"/><path fill="#000" d="M482.18 75.695l-9.212-4.873 1.594-5.803-6.05-3.2-3.832 4.62-6.229-3.295 19.105-21.146 10.8 5.712-6.176 27.985zm-2.416-27.669l-8.383 10.132 4.945 2.615 3.962-12.469-.524-.278z"/><path d="M554.236 70.994l24.819 30.08-42.394 35.023-24.819-30.079z"/><path fill="#000" d="M553.847 112.864q-.242-.834-.65-1.894-.388-1.059-.907-2.13-.507-1.08-1.128-2.128-.611-1.035-1.278-1.843-1.173-1.422-2.19-1.919-1.019-.497-1.874.21-.41.338-.494.874-.072.526.08 1.251.163.737.497 1.657.355.923.794 2.02l.556 1.385q.722 1.734 1.037 3.318.324 1.597.144 3.023-.18 1.426-.89 2.701-.698 1.266-2.024 2.36-1.541 1.274-3.226 1.835-1.685.56-3.443.27-1.759-.29-3.595-1.508-1.827-1.207-3.706-3.485-1.661-2.013-2.974-4.292-1.316-2.257-2.165-4.98l4.962-4.1q.614 2.756 1.655 4.976 1.054 2.21 2.516 3.981 1.213 1.47 2.23 1.745 1.027.287 1.858-.4.494-.408.634-.95.163-.539.007-1.342-.157-.803-.592-1.944-.412-1.138-1.071-2.722t-.988-3.137q-.306-1.55-.158-2.99.16-1.45.865-2.782.704-1.331 2.077-2.466 1.41-1.164 2.986-1.636 1.598-.469 3.275-.13 1.688.327 3.439 1.516 1.772 1.19 3.562 3.36.706.855 1.43 1.88.723 1.023 1.392 2.153.69 1.131 1.255 2.307.564 1.175.953 2.333l-4.85 3.623z"/><path d="M152.167 308.21l13.764 50.016-48.252 13.26-13.764-50.016z"/><path fill="#000" d="M138.264 324.12l2.263 8.225q.589 2.139.761 3.825.192 1.698.037 3.02-.154 1.323-.617 2.293-.458.984-1.143 1.675-.666.701-1.531 1.15-.865.448-1.844.717-.83.228-1.712.26-.878.047-1.756-.198-.873-.23-1.724-.79t-1.632-1.512q-.776-.937-1.454-2.34-.673-1.386-1.2-3.3l-.186-.677q-.097-.411-.175-.811l-.197-.95-7.337 2.016-1.857-6.75 21.304-5.854zm-8.84 9.688l.427 1.552q.298 1.084.758 1.752.474.664 1.05.991.577.328 1.248.354.672.026 1.38-.168 1.13-.31 1.79-.8.659-.489.95-1.136.312-.637.298-1.395-.014-.757-.242-1.586l-.427-1.552-7.232 1.988z"/><path d="M159.052 343.478l17.984 34.614-44.409 23.087-17.984-34.615z"/><path fill="#000" d="M148.794 361.965l7.146 13.755-3.632 1.888-3.919-7.543-4.145 2.155 3.458 6.655-3.55 1.845-3.457-6.655-4.284 2.227 3.92 7.543-3.994 2.075-7.146-13.754 19.603-10.19z"/><path d="M170.18 371.485l25.197 31.528-49.985 39.937-25.196-31.528z"/><path fill="#000" d="M147.986 407.338l13.282-10.612-3.122-3.906 3.98-3.18 10.681 13.366-3.98 3.18-3.19-3.992-13.28 10.612-4.37-5.468z"/><path d="M205.607 405.597l26.33 28.724-47.18 43.276-26.331-28.725z"/><path fill="#000" d="M191.495 432.704q1.969-1.806 4.179-2.54 2.232-.733 4.435-.527 2.214.196 4.268 1.258 2.055 1.063 3.702 2.86 1.151 1.255 2.102 2.778.952 1.523 1.5 3.394l-4.338 2.666q-.377-1.52-1.008-2.765-.632-1.244-1.392-2.073-.919-1.002-1.981-1.49-1.051-.5-2.18-.482-1.128.017-2.29.531-1.15.526-2.267 1.55-1.117 1.025-1.74 2.126-.612 1.112-.727 2.236-.115 1.123.28 2.224.406 1.09 1.324 2.092.76.83 1.945 1.567 1.184.737 2.666 1.243l-3.03 4.094q-1.804-.72-3.216-1.82-1.424-1.09-2.574-2.346-1.648-1.797-2.54-3.926-.88-2.14-.906-4.342-.015-2.212.897-4.363.922-2.139 2.89-3.945z"/><path d="M226.2 429.655l32.976 23.276-32.189 45.606-32.976-23.276z"/><path fill="#000" d="M228.329 479.775l-6.817-4.811 1.87-4.437-4.481-3.163-3.516 3.275-4.609-3.253 17.336-14.807 7.991 5.64-7.774 21.556zm.915-22.189l-7.686 7.178 3.65 2.577 4.432-9.475-.396-.28z"/><path d="M250.905 450.77l41.764 17.794L272.7 515.4l-41.764-17.795z"/><path fill="#000" d="M254.715 471.552l9.142 3.896q2.17.925 3.579 2.204 1.414 1.265 2.108 2.665.715 1.391.773 2.808.064 1.404-.445 2.597-.398.934-.977 1.774-.573.826-1.397 1.443-.817.603-1.933.909-1.095.297-2.546.155-.07.683-.005 1.764.066 1.081.214 2.367t.352 2.68q.204 1.395.41 2.706l-7.36-3.136q-.024-1.658.064-3.658.095-2.015.577-4.221l-1.84-.784-2.941 6.899-6.44-2.744 8.665-20.324zm3.181 13.415q1.093.465 1.963.496.884.037 1.555-.22.67-.258 1.117-.747.46-.484.705-1.058.485-1.136.475-1.99-.01-.853-.385-1.488-.368-.65-1.026-1.1-.657-.45-1.477-.799l-1.078-.459-2.941 6.9 1.092.465z"/><path d="M276.188 465.085l38.047 8.567-9.669 42.93-38.047-8.568z"/><path fill="#000" d="M283.702 484.845l15.121 3.404-.9 3.994-8.292-1.867-1.026 4.558 7.317 1.647-.88 3.902-7.316-1.647-1.061 4.71 8.292 1.867-.988 4.39-15.122-3.405 4.855-21.553z"/><path d="M398.386 478.123l45.386-14.772 14.551 44.693-45.385 14.772z"/><path fill="#000" d="M431.694 491.849q-.696-.07-1.6-.07-.895-.022-1.859.046-.949.062-1.899.223-.954.147-1.757.408-1.396.454-2.068 1.067-.671.613-.395 1.46.13.401.5.626.378.205.97.308.588.089 1.368.114.791.005 1.74-.008l1.196-.01q1.502-.03 2.78.211 1.274.227 2.278.787 1.014.541 1.749 1.436.735.894 1.16 2.202.499 1.53.42 2.953-.07 1.402-.805 2.627-.735 1.226-2.18 2.238-1.43 1.008-3.673 1.738-1.991.648-4.074.964-2.067.312-4.34.147l-1.596-4.902q2.236.356 4.184.232 1.958-.144 3.711-.715 1.441-.47 1.945-1.142.519-.679.253-1.496-.16-.49-.524-.75-.354-.279-1-.397-.632-.123-1.605-.135-.978-.027-2.352-.007-1.37.035-2.623-.181-1.238-.222-2.267-.758-1.034-.55-1.823-1.46-.775-.915-1.215-2.267-.455-1.396-.342-2.715.113-1.318.858-2.464.74-1.161 2.134-2.125 1.41-.968 3.55-1.664.847-.276 1.822-.511.975-.235 2.004-.406 1.044-.175 2.087-.252 1.043-.077 2.011-.03l1.277 4.678z"/><path d="M434.033 469.72l37.417-18.992 18.488 36.378-37.417 18.992z"/><path fill="#000" d="M452.426 480.15l13.822-7.015 1.855 3.65-7.58 3.847 2.117 4.165 6.688-3.395 1.812 3.566-6.688 3.395 2.188 4.304 7.58-3.847 2.038 4.011-13.822 7.016-10.01-19.696z"/><path d="M463.234 455.973l37.764-29.197 31.496 40.756-37.764 29.197z"/><path fill="#000" d="M483.234 462.79l7.862-6.078q1.866-1.443 3.67-2.048 1.794-.616 3.355-.54 1.563.056 2.828.697 1.256.629 2.05 1.655.62.804 1.071 1.72.442.902.578 1.923.127 1.007-.15 2.13-.275 1.101-1.107 2.298.562.395 1.537.865.976.47 2.17.969 1.195.498 2.512 1.001 1.317.503 2.56.963l-6.328 4.893q-1.459-.788-3.161-1.842-1.713-1.065-3.403-2.563l-1.582 1.223 4.586 5.935-5.538 4.281-13.51-17.482zm13.26 3.77q.94-.726 1.392-1.47.464-.754.566-1.465.102-.71-.107-1.34-.196-.637-.579-1.132-.754-.976-1.504-1.384-.75-.408-1.487-.391-.747.004-1.46.359-.714.354-1.419.899l-.927.716 4.586 5.935.94-.726z"/><path d="M492.363 432.18l37.511-37.48 40.788 40.787-37.512 37.48z"/><path fill="#000" d="M511.303 438.171l6.013-6.007 13.934 9.38-8.982-14.328 3.89-3.887 11.39 19.852-6.731 6.726-19.514-11.735z"/><path d="M516.337 409.184l36.126-47.308 46.74 35.717-36.125 47.307z"/><path fill="#000" d="M537.427 410.61l4.248-5.564 17.555 13.415-4.248 5.563-17.555-13.415z"/><path d="M529.488 398.676l23.528-50.709 57.385 26.646-23.527 50.709z"/><path fill="#000" d="M559.93 401.303q-2.423-1.125-3.95-2.885-1.533-1.78-2.19-3.893-.67-2.12-.478-4.426.191-2.306 1.217-4.517.717-1.545 1.758-3.008 1.04-1.463 2.557-2.69l4.127 2.985q-1.26.932-2.165 1.993-.905 1.06-1.379 2.081-.572 1.234-.615 2.402-.057 1.163.393 2.198.45 1.036 1.37 1.911.926.861 2.301 1.5 1.375.638 2.63.79 1.263.138 2.344-.187 1.08-.325 1.945-1.112.85-.794 1.423-2.027.473-1.02.699-2.397.225-1.377.124-2.94l4.942 1.227q.03 1.943-.445 3.67-.46 1.732-1.176 3.277-1.026 2.211-2.649 3.853-1.637 1.634-3.66 2.504-2.036.863-4.371.847-2.329-.03-4.752-1.156z"/><path d="M546.395 372.402l16.315-49.229 54.772 18.142-16.315 49.229z"/><path fill="#000" d="M566.8 366.865l4.875-14.713 3.886 1.287-2.674 8.068 4.435 1.47 2.36-7.12 3.797 1.258-2.36 7.119 4.584 1.518 2.674-8.068 4.272 1.414-4.877 14.714-20.973-6.947z"/><path d="M559.723 346.106l9.165-55.15 43.717 7.244-9.166 55.15z"/><path fill="#000" d="M587.265 322.874q-.383.586-.801 1.387-.431.784-.816 1.67-.383.872-.678 1.79-.31.914-.448 1.746-.241 1.449-.007 2.327.234.878 1.113 1.024.416.069.786-.155.357-.242.722-.72.349-.48.731-1.161.37-.7.796-1.547l.541-1.067q.668-1.346 1.471-2.37.788-1.025 1.749-1.658.947-.65 2.08-.89t2.49-.015q1.587.263 2.813.988 1.213.708 1.961 1.925t.98 2.966q.235 1.733-.152 4.06-.343 2.066-1.023 4.06-.677 1.978-1.871 3.919l-5.087-.843q1.348-1.82 2.136-3.606.775-1.804 1.077-3.622.248-1.496-.117-2.253-.362-.773-1.21-.913-.509-.084-.907.119-.41.185-.814.704-.4.504-.86 1.362-.475.856-1.09 2.085-.601 1.23-1.371 2.243-.768.997-1.718 1.664-.966.663-2.137.944-1.169.266-2.572.033-1.449-.24-2.566-.948-1.118-.707-1.792-1.896-.689-1.191-.9-2.873-.21-1.698.16-3.918.146-.878.387-1.852.24-.974.564-1.965.326-1.007.739-1.969.413-.96.9-1.798l4.74 1.023z"/><path d="M238.868 23.885L283.75 7.759l21.039 58.74-44.882 16.126z"/><path fill="#000" d="M278.183 45.515l11.106 10.62-9.999 3.593-6.817-8.608-.932 11.392-7.544 2.71 1.834-15.269-11.149-10.737 10-3.593 7.273 7.797.96-10.756 7.06-2.536-1.792 15.387z"/></g></svg>